<svg xmlns="http://www.w3.org/2000/svg" width="453" height="238" fill="none" xmlns:v="https://vecta.io/nano"><path d="M226.5 238c125.092 0 226.5-20.447 226.5-45.67s-101.408-45.67-226.5-45.67S0 167.107 0 192.33 101.408 238 226.5 238z" fill="url(#A)"/><g fill-rule="evenodd"><g stroke-width="2.362"><path d="M217.94 183.06l.137 3.48-59.65 1.532L135.2 131.96l3.16-1.392 22.265 53.885 57.313-1.393z" fill="#000" stroke="#000"/><g stroke="#373435"><g stroke-linejoin="bevel"><path d="M134.514 129.036l3.848 1.532 22.265 53.885.55 9.19-26.663-64.606z" fill="#d2d3d5"/><path d="M161.178 193.642l-.55-9.19 57.312-1.393 11.82 8.772-68.582 1.8z" fill="#dededc"/><path d="M229.76 191.832l.137 4.177-71.468 1.81-27.763-67.252 3.848-1.532 26.664 64.606 68.582-1.8z" fill="#373435"/></g><path d="M162.69 185.567l40.683-1.114 7.146 7.1-47.83 1.114v-7.1z" fill="#96989a"/></g></g><g fill="#1b1b1b"><path d="M245.702 176.795l-27.9 10.303c-2.473.975-5.085 1.114-7.01.696-2.062-.278-3.573-1.253-4.123-2.645l-2.062-5.43c-.824-2.785 24.877-11.418 36.697-15.038l4.398 12.114z"/><path d="M245.427 196.288h-4.535c-1.374 0-8.66-.14-9.346-1.253s-2.474-4.874-2.336-6.544c.412-2.924 1.65-4.178 3.573-6.127.962-1.114 4.8-1.67 5.498-7.658.55-3.62.137-9.607.962-12.95.137-6.962 7.147-12.253 14.156-12.253h10.995l14.98 15.038c10.858 10.86 11.545 21.86 11.545 25.48 0 1.67-.138 3.203-.825 4.456-.687 1.114-1.924 1.8-3.16 1.8h-41.507z"/></g><path d="M216.427 75.874l-6.35 2.505-.04-.72-.07-1.8-.137-7.38c-.11-4.245-2.964-4.01-5.223-3.82l-1.512.062c-1.226 0-1.03-6.758-.974-8.712l.012-.478c0-2.953-2.3-2.153-2.834-1.967l-.052.018c-.607.205-.42 2.9-.234 5.556.193 2.768.384 5.515-.316 5.444-1.237 0-3.986 0-6.185-.14-1.65 0-2.06-4.595-2.2-10.443l-.07-4.792c-.052-4.838-.106-9.918-.618-13.45-1.237-10.443-6.322-2.645-6.185 2.785.122 4.678.673 10.336 1.18 15.53l.196 2.015c.55 5.57 1.237 10.304 1.65 12.392.55 3.48 3.436 3.9 7.284 3.62 1.472-.1 3.085-.323 4.725-.55 2.953-.4 5.995-.832 8.47-.563.943 0 1.094 4.143 1.23 7.847l.008.23.153.038-1.94.798c-6.734 3.063-10.308 9.33-9.483 16.848 2.61 21.86 8.246 43.303 17.043 64.328 2.886 6.962 9.208 10.582 16.492 9.607 22.54-2.645 43.706-8.493 63.497-17.265 6.872-2.924 10.583-9.2 9.62-16.71-3.16-23.81-9.07-45.113-17.042-64.328-2.887-6.962-9.21-10.582-16.493-9.607l-1.747.2c.93-4.25 1.974-9.375 2.984-14.97 2.2-12.253 4.398-27.012 4.673-38.708.412-11.974-20.34-14.76-23.915 6.126-.984 6.483-.91 14.824-.84 22.82l.016 9.203c0 9.886-.825 17.683-5.223 17.683l-9.4.1-4.344.05c-1.184 0-.99-3.755-.8-7.495.187-3.64.373-7.266-.712-7.404-.687-.14-4.948-.557-4.673 3.342 0 .14.02.474.048.943.166 2.81.62 10.474-1.147 10.474-.588 0-1.275-.074-2-.15-3.002-.322-6.66-.715-6.66 3.772.124 2.5.136 4.775.137 7.128zm2.356-.9l6.13-2.19c-1.922-.422-3.633-.73-5.05-.844-.643 0-.952 1.24-1.08 3.035z" fill="url(#B)"/></g><path d="M216.564 145.275c2.366-.642 2.9-6.4 1.195-12.84s-5.006-11.157-7.372-10.514-2.902 6.4-1.196 12.84 5.007 11.157 7.373 10.515zm13.266-4.038c3.103-2.818 3.546-11.174 1-18.664s-7.145-11.277-10.247-8.458-3.546 11.174-1 18.663 7.144 11.277 10.247 8.46z" fill="#fefefe"/><defs><radialGradient id="A" cx="0" cy="0" r="1" gradientUnits="userSpaceOnUse" gradientTransform="translate(226.5 192.33) rotate(90) scale(45.67 226.5)"><stop stop-color="#363636"/><stop offset="1" stop-color="#cecece" stop-opacity=".03"/></radialGradient><linearGradient id="B" x1="243.577" y1="0" x2="243.577" y2="170.825" gradientUnits="userSpaceOnUse"><stop stop-color="#848484"/><stop offset="1" stop-color="#0a0a0a"/></linearGradient></defs></svg>