<svg xmlns="http://www.w3.org/2000/svg" width="299" height="302" fill="none" xmlns:v="https://vecta.io/nano"><g fill-rule="evenodd"><path d="M97.27 88.342C67.937 80.895 2.31 77.095 2.838 62.81c.312-8.253 4.41-37.2 12.414-54.11C19.15.466 50.366-.896 48.474 15.557c-1.788 15.52-25.074 43.956-9.15 47.997l28.802 7.304c5.507 1.398 4.343-17.027 9.462-16.328 1.61.206 12.036 1.72 10.105 6.157-.464 1.05-7.163 13.326-1.656 14.724 8.26 2.097 25.074 3.585 22.908 11.444L105.72 98.27c-.577 1.864-1.183 3.746-1.892 5.592l.255.1 21.753 5.44c.398-1.91.87-3.826 1.353-5.708l3.227-11.38c2.27-7.814 17.628-1.165 25.888.896 5.497 1.434 6.18-12.367 6.34-13.442.67-4.758 10.502-1.138 12.007-.556 4.73 1.846-5.942 17.233-.435 18.63l28.812 7.303c15.924 3.997 10.767-31.65 17.438-45.936 7.03-15.154 33.335.842 32.36 9.804-1.996 18.443-13.72 45.443-17.817 52.738-7.077 12.618-65.884-15.154-95.254-22.6-3.482-.896-5.535 5.754-6.945 12.07l-.057.278c10.957 3.37 21.927 7.27 32.91 11.704 11.156 4.48 17.032 14.16 15.584 25.558-4.274 33.85-13.635 66.948-27.8 98.29-1.577 3.588-3.998 6.788-7.078 9.355l1.43 2.69c.51 1.063.75 2.223.705 3.4s-.378 2.307-.97 3.33c-1.257 2.418-3.346 4.36-5.923 5.502l-18.84 8.137c3.084 3.01 5.052 4.983 5.677 9.544.36 2.563-2.612 8.12-3.785 9.858s-13.03 1.98-15.196 1.98H34.27a6.38 6.38 0 0 1-3.012-.799c-.914-.51-1.673-1.234-2.202-2.104-1.173-1.793-1.353-4.14-1.353-6.72 0-5.476 1.117-22.27 18.763-38.82l6.48-6.076C42.66 243.08 32.568 239.44 22.67 235.4c-11.127-4.553-17.202-14.186-15.584-25.558 5.195-36.518 14.76-69.003 27.81-98.29 4.73-10.575 14.95-16.068 26.986-14.76 11.638 1.267 23.29 3.086 34.953 5.458l.076-.215c2.1-6.076 3.842-12.797.36-13.684zm15.935 172.695l1.58-.743-1.6-.224a31.19 31.19 0 0 0 .019.967z" fill="url(#A)"/><path d="M143.775 220.612a20.22 20.22 0 0 1-10.858-2.986c-3.227-1.994-5.755-4.85-7.263-8.208s-1.928-7.064-1.206-10.648 2.552-6.884 5.258-9.48 6.168-4.372 9.942-5.1a20.44 20.44 0 0 1 11.257 1.007c3.564 1.385 6.613 3.743 8.758 6.774s3.292 6.596 3.292 10.245c.02 4.845-1.986 9.5-5.58 12.948s-8.484 5.407-13.6 5.45zm-40.325-54.655a24.92 24.92 0 0 0-13.721.425c-4.43 1.424-8.312 4.058-11.16 7.57s-4.533 7.747-4.84 12.167.773 8.827 3.1 12.664 5.82 6.934 10 8.897 8.905 2.705 13.542 2.132 8.992-2.435 12.512-5.35 6.05-6.754 7.268-11.03a21.26 21.26 0 0 0 .618-8.732 21.61 21.61 0 0 0-2.962-8.289c-1.553-2.552-3.622-4.8-6.088-6.583a24.21 24.21 0 0 0-8.287-3.871h0zm26.742 72.74a5.3 5.3 0 0 1 2.266-.421 5.29 5.29 0 0 1 2.235.58l.01.005c1.665.812 3 2.112 3.832 3.705l.002.004 4.816 9.123.846-.4-4.815-9.12c-.9-1.765-2.4-3.204-4.243-4.105a6.25 6.25 0 0 0-2.648-.685 6.3 6.3 0 0 0-2.698.503l-.008.003-5.118 2.415-5.088 2.414c-.846.344-1.566.918-2.068 1.65a4.24 4.24 0 0 0-.751 2.475v.012l.001.012c.097 1.28.817 3.252 1.95 5.67 1.142 2.438 2.73 5.388 4.617 8.646l.83-.43-4.582-8.578c-1.132-2.416-1.783-4.252-1.87-5.358-.01-.695.2-1.377.6-1.96s.98-1.046 1.658-1.32l.014-.006 5.113-2.426 5.1-2.406z" fill="#fff"/><path d="M162.955 295.655v5.234h97.42l36.334-85.61-5.138-1.953-34.934 82.328h-93.683z" fill="#00c4d1" stroke="#00c4d1" stroke-width=".57" stroke-miterlimit="22.93"/></g><defs><linearGradient id="A" x1="127.841" y1="2.751" x2="127.841" y2="300.889" gradientUnits="userSpaceOnUse"><stop stop-color="#00c4d1"/><stop offset="1" stop-color="#9d3bff"/></linearGradient></defs></svg>