<svg xmlns="http://www.w3.org/2000/svg" width="236" height="314" fill="none" xmlns:v="https://vecta.io/nano"><g clip-path="url(#B)"><path d="M231.073 202.404l-8.847-10.065a6.77 6.77 0 0 0-2.097-1.609 6.76 6.76 0 0 0-2.553-.682c-.888-.058-1.778.06-2.62.347s-1.62.737-2.287 1.324l-1.507 1.445c-2.334-33.293-8.175-63.312-17.678-90.737-3.59-10.2-12.356-16.15-23.16-15.754-10.488.294-20.95 1.192-31.335 2.69-1.57-6.145-2.755-12.372.744-13.035 26.463-5.033 85.023-4.486 85.696-17.943.153-7.688-1.453-35.195-7.44-51.8-2.692-7.94-30.348-11.15-29.79 4.486.332 14.453 19.014 42.74 4.62 45.485l-26.068 4.96c-5.06.96-2.647-16.032-7.466-15.915-1.166.215-10.768.825-9.45 5.383.54.7 5.627 12.632.575 13.592-7.394 1.408-22.63 1.884-21.222 9.276l2.135 11.376c.298 1.837.776 3.64 1.427 5.383l-.386.08-19.454 3.696-.386.08a28.23 28.23 0 0 0-.655-5.526l-2.145-11.277c-1.408-7.392-15.748-2.243-23.142-.843-5.06.97-4.702-12.004-4.855-12.775-.072-4.836-9.225-1.893-10.39-1.67-4.487 1.66 3.966 16.58-1.095 17.54l-26.068 4.96c-14.357 2.692-7.412-30.44-12.4-43.96-5.222-14.767-29.738-1.633-29.352 6.755.538 17.638 8.758 43.888 12.114 50.904 5.555 12.246 59.826-9.77 86.288-14.803 3.5-.664 4.684 5.562 5.483 11.86-9.97 2.69-19.94 5.383-30.15 8.972S59.996 116.96 60.4 127.762c1.672 32.052 7.7 63.726 17.947 94.146 3.59 10.2 12.347 16.15 23.152 15.745 25.87-1.156 51.52-5.32 76.426-12.407l-2.692 2.628a346.3 346.3 0 0 1-60.122 11.295c-4.187.39-8.333.688-12.437.898L81.56 261.07a6.78 6.78 0 0 0 0 9.59l9.476 9.474c1.272 1.27 2.997 1.986 4.796 1.986s3.524-.715 4.796-1.986l10.454-10.452c-1.696 18.13-2.467 34.99-.538 39.7.538 1.66 2.692 2.772 4.397 2.8l7.18.045h6.613a6.57 6.57 0 0 0 2.795-.782c.862-.466 1.608-1.118 2.185-1.9a11.73 11.73 0 0 0 2.253-6.603l.143-20.948 27.028.18-.144 20.958c0 2.754.52 4.96 2.163 6.63a5.8 5.8 0 0 0 4.944 2.79l13.236.09c2.208 0 4.424-1.076 4.99-2.69 2.97-6.926.296-41.098-2.78-66.048l44.92-31.902c1.35-1.2 2.17-2.866 2.285-4.66a6.79 6.79 0 0 0-1.675-4.913z" fill="url(#A)"/><g fill="#fefefe"><path d="M156.954 176.64a20.99 20.99 0 0 0 20.988-20.985 20.99 20.99 0 0 0-20.988-20.984 20.99 20.99 0 0 0-20.989 20.984 20.99 20.99 0 0 0 20.989 20.985zm-60.94-13.26h18.198a8.98 8.98 0 0 1 6.346 2.627c1.682 1.683 2.628 3.965 2.628 6.344v2.324H87.042v-2.324a8.97 8.97 0 0 1 2.628-6.344c1.683-1.684 3.965-2.627 6.345-2.627z"/></g></g><defs><linearGradient id="A" x1="117.587" y1=".045" x2="117.587" y2="312.654" gradientUnits="userSpaceOnUse"><stop stop-color="#00c4d1"/><stop offset="1" stop-color="#9d3bff"/></linearGradient><clipPath id="B"><path fill="#fff" d="M0 0h236v314H0z"/></clipPath></defs></svg>