<svg xmlns="http://www.w3.org/2000/svg" width="494" height="191" fill="none" xmlns:v="https://vecta.io/nano"><path d="M247 190.5c136.414 0 247-23.818 247-53.198s-110.586-53.2-247-53.2S0 107.91 0 137.292 110.586 190.5 247 190.5z" fill="url(#A)"/><g fill-rule="evenodd"><g fill="#575757"><path d="M144.477 97.04l2.673-2.892c.58-.628 1.162-1.006 1.86-1.006.698-.126 1.28 0 1.627.503.58.503 1.046 1.006 1.51 1.508.465.63.93 1.132 1.395 1.634.465.377.697 1.132.465 1.76-.35.88-1.86 2.64-3.952 4.652l-5.578-6.16z" stroke="#000" stroke-width="11.811"/><path d="M151.8 114.136l-8.95-9.178a4.48 4.48 0 0 1-1.395-2.765c-.116-1.006.116-2.012.697-2.64.698-.754 1.976-1.634 2.8-2.39 1.162-1.383 8.716 7.166 12.203 11.19l-5.346 5.783z"/></g><path d="M157.145 120.17c25.685 0 46.49 3.52 46.49 7.92S182.83 136 157.145 136s-46.49-3.52-46.49-7.92 20.804-7.92 46.49-7.92z" fill="url(#B)"/><path d="M159.586 118.66h-3.835v6.537c0 .755-.233 1.51-.582 2.012-.464.503-.93.88-1.5.88h-3.836c-.58 0-1.162-.252-1.394-.88-1.163-3.143 1.278-25.646 2.208-28.537h18.014c.814 2.89 3.37 25.394 2.092 28.537-.232.628-.697.88-1.278.88h-3.952c-.465 0-1.046-.377-1.394-.88s-.582-1.257-.582-2.012v-6.537h-3.95z" fill="#9d3bff" stroke="#9d3bff" stroke-width="2.362"/><path d="M143.315 46.627l.116.126c3.603-2.01 7.44-3.897 11.4-5.657 4.068-1.76 8.136-.503 10.81 3.143 7.787 10.812 14.18 22.754 19.177 35.954 1.627 4.274.464 8.674-2.906 11.566-10.344 8.925-21.5 15.84-33.24 20.868-4.067 1.634-8.135.503-10.808-3.143-8.368-11.942-14.644-24.01-19.177-35.954-1.627-4.4-.465-8.8 2.906-11.692 3.254-2.766 6.74-5.406 10.343-7.92l-.116-.126c-1.046-2.39-2.44-4.777-3.603-4.023-9.297 5.91-26.963 22.63-30.566 18.354-2.208-2.39-8.833-11.817-11.4-18.983-1.162-3.394 6.392-12.32 10.227-7.04 3.72 4.903 5.462 19.486 10.576 16.343l9.18-5.783c1.744-1.13-3.486-6.034-1.975-7.29.465-.377 3.486-2.766 4.184-1.006.232.503 1.743 5.783 3.486 4.65 2.673-1.634 7.322-5.783 8.833-2.892l2.325 4.15c.348.754.697 1.383.93 2.137h.117l6.857-4.4h.116c-.465-.63-.814-1.383-1.162-2.01l-2.208-4.15c-1.51-2.892 4.067-5.154 6.74-6.79 1.744-1.13-1.743-5.28-1.975-5.657-1.163-1.634 2.324-3.268 2.905-3.52 1.627-.754 3.022 6.663 4.765 5.532l9.298-5.783c5.114-3.143-5.695-12.068-7.903-17.977-2.208-6.286 8.717-8.926 10.81-6.034 4.416 5.91 8.716 16.846 9.646 20.114 1.51 5.53-20.687 13.577-30.1 19.486-1.163.754.116 3.143 1.394 5.406z" fill="url(#C)"/><path d="M159.47 64.604c2.208 2.64 5.8 3.27 8.6 1.5 2.906-1.886 4.184-5.532 3.138-8.926-4.184 1.886-8.135 4.274-11.738 7.417zm-18.015 6.663c.116 1.383.465 2.766 1.162 4.148 2.325 4.274 7.44 5.783 11.506 3.27s5.463-8.046 3.138-12.446a9.52 9.52 0 0 0-1.511-2.137l-14.295 7.166z" fill="#fefefe"/><g fill="#9d3bff"><path d="M174.81 97.04l-2.79-2.892c-.465-.628-1.162-1.006-1.743-1.006-.698-.126-1.28 0-1.744.503l-2.905 3.143c-.465.377-.58 1.132-.35 1.76.35.88 1.744 2.64 3.836 4.652l5.694-6.16z" stroke="#fff" stroke-width="2"/><path d="M167.954 113.445l9.065-9.177c.814-.754 1.162-1.76 1.278-2.766.233-1.005 0-2.01-.697-2.64-.697-.754-1.976-1.634-2.673-2.39-1.278-1.383-8.833 7.166-12.203 11.19l5.23 5.782z"/></g></g><defs><radialGradient id="A" cx="0" cy="0" r="1" gradientUnits="userSpaceOnUse" gradientTransform="translate(247 137.292) rotate(89.5956) scale(39.3617 202.341)"><stop stop-color="#828282"/><stop offset="1" stop-color="#fff" stop-opacity="0"/><stop offset="1" stop-color="#01f0ff" stop-opacity="0"/></radialGradient><radialGradient id="B" cx="0" cy="0" r="1" gradientUnits="userSpaceOnUse" gradientTransform="translate(157.131 128.081) scale(46.4853 7.90707)"><stop stop-color="#2d2d2d"/><stop offset="1" stop-color="#787777" stop-opacity="0"/></radialGradient><linearGradient id="C" x1="122.805" y1="17.365" x2="175.195" y2="103.271" gradientUnits="userSpaceOnUse"><stop stop-color="#00c4d1"/><stop offset="1" stop-color="#9d3bff"/></linearGradient></defs></svg>