<svg xmlns="http://www.w3.org/2000/svg" width="90" height="90" fill="none" xmlns:v="https://vecta.io/nano"><path d="M4.156 74.245c1.94 0 3.5-1.7 3.5-3.818s-1.57-3.827-3.5-3.827-3.5 1.72-3.5 3.828 1.572 3.818 3.5 3.818zM86.108 23.38c1.3 0 2.337-1.138 2.337-2.542s-1.046-2.542-2.337-2.542-2.337 1.138-2.337 2.542 1.046 2.542 2.337 2.542z" fill="#00c4d1"/><path d="M79.678 14.48c2.26 0 4.093-1.993 4.093-4.45s-1.832-4.45-4.093-4.45-4.093 1.993-4.093 4.45 1.832 4.45 4.093 4.45z" fill="#9d3bff"/><path d="M50.675 81h-5.138c-1.378-.003-2.7-.6-3.673-1.66s-1.52-2.498-1.52-3.997V32.825c0-1.5.547-2.936 1.52-3.997s2.294-1.658 3.673-1.66h5.138c1.378.003 2.7.6 3.673 1.66s1.52 2.498 1.52 3.997v42.528c0 1.5-.547 2.936-1.52 3.997s-2.294 1.658-3.673 1.66zm-5.138-48.778a.5.5 0 0 0-.367.165.59.59 0 0 0-.152.399v42.527a.6.6 0 0 0 .151.402.51.51 0 0 0 .367.171h5.138a.51.51 0 0 0 .367-.171.6.6 0 0 0 .151-.402V32.796a.59.59 0 0 0-.152-.399.5.5 0 0 0-.367-.165h-5.138z" fill="#00c4d1"/><g fill="#9d3bff"><path d="M69.2 81h-5.13c-1.38-.003-2.7-.6-3.676-1.66s-1.524-2.498-1.526-3.997V23.548c.002-1.5.55-2.937 1.526-3.997s2.297-1.657 3.676-1.66h5.13c1.38 0 2.703.596 3.678 1.657s1.524 2.5 1.524 4v51.804c0 1.5-.548 2.94-1.524 4S70.6 81 69.2 81zm-5.13-58.035a.51.51 0 0 0-.367.172.6.6 0 0 0-.151.402v51.804a.6.6 0 0 0 .151.402.51.51 0 0 0 .367.171h5.13c.14 0 .274-.06.373-.168a.6.6 0 0 0 .154-.406V23.548a.6.6 0 0 0-.154-.406c-.1-.108-.233-.168-.373-.168h-5.13zM32.13 81h-5.138c-1.373-.01-2.687-.6-3.655-1.67s-1.5-2.493-1.5-3.986v-32.46c0-1.5.547-2.936 1.52-3.997s2.294-1.658 3.673-1.66h5.138c1.367.02 2.672.626 3.632 1.685s1.498 2.486 1.498 3.972v32.46c0 1.492-.542 2.923-1.508 3.983s-2.277 1.66-3.65 1.674zm-5.138-38.7a.51.51 0 0 0-.367.172.6.6 0 0 0-.151.402v32.46a.6.6 0 0 0 .151.402.51.51 0 0 0 .367.171h5.138a.51.51 0 0 0 .367-.171.6.6 0 0 0 .151-.402v-32.46a.6.6 0 0 0-.151-.402.51.51 0 0 0-.367-.172h-5.138zM80.26 89.506H14.78c-.62 0-1.214-.268-1.653-.745s-.685-1.123-.685-1.797a2.66 2.66 0 0 1 .685-1.797c.438-.477 1.033-.744 1.653-.744h65.48a2.25 2.25 0 0 1 1.653.744c.44.476.685 1.123.685 1.797s-.246 1.32-.685 1.797-1.033.745-1.653.745zM11.268 43.724c-.454.002-.9-.14-1.28-.408a2.49 2.49 0 0 1-.863-1.105 2.74 2.74 0 0 1-.165-1.44 2.61 2.61 0 0 1 .588-1.3L35.27 8.95a2.28 2.28 0 0 1 1.49-.812 2.2 2.2 0 0 1 1.61.476l11.186 8.842L62.17 2.62c.43-.426.992-.662 1.575-.66s1.143.238 1.573.664a2.63 2.63 0 0 1 .752 1.643c.054.63-.1 1.26-.462 1.765L51.575 22.57c-.4.457-.92.743-1.5.803a2.2 2.2 0 0 1-1.603-.476l-11.195-8.832-24.292 28.84a2.36 2.36 0 0 1-.785.608 2.2 2.2 0 0 1-.943.213z"/><path d="M65.063 13.213a2.25 2.25 0 0 1-1.635-.755 2.66 2.66 0 0 1-.675-1.787V5.578h-5.875c-.62 0-1.214-.268-1.653-.744a2.66 2.66 0 0 1-.685-1.797 2.66 2.66 0 0 1 .685-1.797c.438-.477 1.033-.744 1.653-.744h8.185c.62 0 1.214.268 1.653.744a2.66 2.66 0 0 1 .685 1.797v7.635a2.66 2.66 0 0 1-.685 1.797c-.438.477-1.033.745-1.653.745z"/></g></svg>