<svg xmlns="http://www.w3.org/2000/svg" width="90" height="90" fill="none" xmlns:v="https://vecta.io/nano"><path d="M47.064 85.4c-6.627.006-13.107-2.088-18.62-6.018s-9.81-9.517-12.35-16.057a38.07 38.07 0 0 1-1.918-20.682c1.3-6.945 4.478-13.325 9.162-18.334S33.99 15.9 40.5 14.506s13.237-.676 19.36 2.032 11.357 7.296 15.04 13.182S80.54 42.53 80.54 49.61c-.01 9.484-3.54 18.578-9.814 25.287S55.942 85.383 47.064 85.4zm0-65.077c-5.42 0-10.72 1.717-15.23 4.935s-8.02 7.792-10.096 13.143a31.15 31.15 0 0 0-1.56 16.92c1.058 5.68 3.668 10.9 7.502 14.994S36.4 77.2 41.717 78.33s10.83.55 15.837-1.666 9.3-5.97 12.302-10.786 4.62-10.478 4.62-16.27c-.01-7.764-2.9-15.206-8.04-20.696s-12.105-8.578-19.372-8.59z" fill="#9d3bff"/><path d="M47.055 61.002c-.737.001-1.45-.287-2-.8L32.873 48.808a3.25 3.25 0 0 1-.733-1.008 3.43 3.43 0 0 1-.316-1.23 3.48 3.48 0 0 1 .149-1.266 3.37 3.37 0 0 1 .59-1.11 3.1 3.1 0 0 1 .943-.783 2.91 2.91 0 0 1 1.152-.338 2.87 2.87 0 0 1 1.185.16 3.06 3.06 0 0 1 1.038.63l10 9.337L81.4 14.836c.277-.3.6-.556.975-.727a2.87 2.87 0 0 1 1.16-.273 2.89 2.89 0 0 1 1.17.222c.372.155.713.388 1.002.684a3.27 3.27 0 0 1 .681 1.042c.16.392.248.813.256 1.24s-.062.852-.208 1.25a3.29 3.29 0 0 1-.64 1.071L49.258 60.003a3.06 3.06 0 0 1-1.006.74 2.89 2.89 0 0 1-1.197.259zM16.978 15.696c3.988 0 7.22-3.454 7.22-7.714S20.966.267 16.978.267 9.757 3.72 9.757 7.98s3.233 7.714 7.22 7.714z" fill="#00c4d1"/><path d="M5.258 27.247c2.5 0 4.508-2.156 4.508-4.816s-2.018-4.816-4.508-4.816S.75 19.77.75 22.43s2.018 4.816 4.508 4.816zm79.484 62.03c2.5 0 4.508-2.156 4.508-4.817s-2.02-4.817-4.508-4.817-4.508 2.156-4.508 4.817 2.018 4.817 4.508 4.817z" fill="#9d3bff"/></svg>