<svg xmlns="http://www.w3.org/2000/svg" xmlns:xlink="http://www.w3.org/1999/xlink" width="90" height="90" fill="none" xmlns:v="https://vecta.io/nano"><path d="M4.302 18.11c1.803 0 3.264-1.46 3.264-3.264s-1.46-3.264-3.264-3.264-3.264 1.46-3.264 3.264S2.5 18.11 4.302 18.11z" fill="#9d3bff"/><g fill="#00c4d1"><use xlink:href="#B"/><path d="M68.756 89.506c1.803 0 3.264-1.46 3.264-3.264s-1.46-3.264-3.264-3.264-3.264 1.46-3.264 3.264 1.46 3.264 3.264 3.264z"/></g><use xlink:href="#B" x="67.946" y="73.068" fill="#9d3bff"/><path d="M5.49 87.893a2.48 2.48 0 0 1-1.533-.564 2.51 2.51 0 0 1-.851-2.522l5.084-21.62C5.43 58.05 3.977 52.314 3.956 46.484c0-20.858 18.485-37.85 41.173-37.85s41.133 16.99 41.133 37.85-18.455 37.88-41.133 37.88c-7.157.022-14.2-1.7-20.542-5.044l-18.04 8.347a2.61 2.61 0 0 1-1.058.227zm39.64-74.245C25.21 13.648 9 28.385 9 46.484 9 51.778 10.4 56.98 13.035 61.566a2.48 2.48 0 0 1 .257 1.82L9.128 80.94l14.5-6.706a2.5 2.5 0 0 1 1.164-.232c.4.017.792.13 1.14.33a38.63 38.63 0 0 0 19.197 5.034c19.91 0 36.12-14.746 36.12-32.865s-16.2-32.855-36.12-32.855z" fill="#00c4d1"/><g fill="#9d3bff"><path d="M25.31 53.773a6.52 6.52 0 0 0 6.518-6.518 6.52 6.52 0 0 0-6.518-6.517 6.52 6.52 0 0 0-6.518 6.517 6.52 6.52 0 0 0 6.518 6.518z"/><use xlink:href="#C"/><use xlink:href="#C" x="19.563"/></g><defs ><path id="B" d="M16.09 11.364a5.43 5.43 0 0 0 5.43-5.43 5.43 5.43 0 0 0-5.43-5.43 5.43 5.43 0 0 0-5.43 5.43 5.43 5.43 0 0 0 5.43 5.43z"/><path id="C" d="M44.377 53.773a6.52 6.52 0 0 0 6.517-6.518 6.52 6.52 0 0 0-6.517-6.517 6.52 6.52 0 0 0-6.518 6.517 6.52 6.52 0 0 0 6.518 6.518z"/></defs></svg>