<svg xmlns="http://www.w3.org/2000/svg" width="90" height="90" fill="none" xmlns:v="https://vecta.io/nano"><g clip-path="url(#A)"><path d="M87.065 53.1c1.675 0 3.032-1.235 3.032-2.76s-1.358-2.76-3.032-2.76-3.032 1.235-3.032 2.76 1.358 2.76 3.032 2.76z" fill="#9d3bff"/><g fill="#00c4d1"><path d="M81.36 66.343c2.797 0 5.065-2.063 5.065-4.6s-2.267-4.6-5.065-4.6-5.065 2.063-5.065 4.6 2.267 4.6 5.065 4.6zM16.8 6.37c1.675 0 3.032-1.235 3.032-2.76S18.466.85 16.8.85s-3.03 1.236-3.03 2.75 1.358 2.76 3.032 2.76z"/></g><path d="M6.173 17.872c2.797 0 5.065-2.064 5.065-4.61s-2.267-4.61-5.065-4.61-5.065 2.063-5.065 4.61 2.268 4.61 5.065 4.61z" fill="#9d3bff"/><path d="M60.47 33.696a2.74 2.74 0 0 0-1.095-1.369c-.516-.338-1.138-.517-1.774-.5h-8.15l-2.49-7.09a2.74 2.74 0 0 0-1.082-1.353 3.18 3.18 0 0 0-1.749-.517 3.18 3.18 0 0 0-1.749.517 2.74 2.74 0 0 0-1.082 1.353l-2.52 7.052h-8.15a3.19 3.19 0 0 0-1.793.501c-.523.34-.912.822-1.108 1.378a2.48 2.48 0 0 0 .017 1.707c.208.553.606 1.03 1.135 1.36l6.586 4.36-2.51 7.052a2.48 2.48 0 0 0 0 1.679 2.74 2.74 0 0 0 1.087 1.357c.51.34 1.124.523 1.755.523a3.17 3.17 0 0 0 1.755-.523l6.597-4.362 6.586 4.362a3.18 3.18 0 0 0 1.754.523 3.18 3.18 0 0 0 1.756-.519c.5-.338.89-.814 1.083-1.36a2.48 2.48 0 0 0-.007-1.68l-2.51-7.052 6.586-4.36a2.72 2.72 0 0 0 1.082-1.353 2.46 2.46 0 0 0-.006-1.673zm-20.65 7.774a2.47 2.47 0 0 0 .003-1.68 2.73 2.73 0 0 0-1.09-1.356l-4.097-2.7h5.065a3.16 3.16 0 0 0 1.758-.515c.5-.338.89-.816 1.08-1.364l1.576-4.38 1.565 4.38c.2.548.568 1.026 1.08 1.364a3.16 3.16 0 0 0 1.758.515h5.065l-4.097 2.7c-.512.335-.894.8-1.1 1.356a2.47 2.47 0 0 0 .003 1.68l1.598 4.38-4.097-2.7c-.512-.334-1.125-.514-1.755-.514s-1.244.18-1.755.514l-4.097 2.7 1.532-4.38z" fill="#00c4d1"/><path d="M74.665 80.644L64.123 56.67c3.873-3.576 6.502-8.11 7.56-13.04s.497-10.03-1.613-14.67-5.674-8.61-10.25-11.418-9.957-4.326-15.474-4.366-10.926 1.4-15.55 4.138-8.26 6.658-10.45 11.266-2.843 9.7-1.873 14.644 3.52 9.516 7.328 13.15l-10.65 24.27a2.39 2.39 0 0 0-.143 1.504c.116.503.393.964.795 1.325s.907.603 1.458.7a3.1 3.1 0 0 0 1.64-.156l8.216-3.096 3.608 7.398c.228.457.595.845 1.057 1.118a3.1 3.1 0 0 0 1.552.425h.054c.566-.01 1.115-.172 1.58-.466s.822-.707 1.03-1.186l9.912-22.59L53.82 88.2c.206.48.564.892 1.03 1.186s1.014.456 1.58.466a3.09 3.09 0 0 0 1.553-.423c.462-.273.83-.662 1.056-1.12l3.608-7.398 8.27 3.145c.517.2 1.088.253 1.64.156s1.06-.34 1.458-.7c.413-.365.697-.834.813-1.348s.06-1.047-.16-1.53zM28.65 60.073l.62.366.74.406.522.267a19.58 19.58 0 0 0 1.032.504l.272.12c.957.424 1.94.798 2.945 1.118h.14a22.83 22.83 0 0 0 1.337.396l.272.07c.413.11.826.198 1.24.287l.326.07a24.24 24.24 0 0 0 1.228.227h.228L31.3 82.69l-3.663-7.507-8.336 3.155 8.347-19.03.5.307.51.455zm27.605-3.175l-.163.08a11.52 11.52 0 0 1-.717.376l-.38.188-.5.237-.565.247-.304.128-.74.287h-.11a25.26 25.26 0 0 1-7.901 1.493H41.94l-.64-.1-.49-.06-.598-.09-.413-.07-.674-.13-.348-.07-.74-.168-.272-.07-.76-.208-.174-.05a24.47 24.47 0 0 1-2.597-.989h-.11l-.51-.237-.478-.218-.39-.198-.576-.307-.293-.168-.663-.386-.217-.13-.728-.475-.13-.09-.793-.564H29.3c-3.8-2.865-6.52-6.758-7.742-11.116s-.887-8.957.952-13.132 5.09-7.7 9.28-10.094 9.106-3.495 14.036-3.17 9.62 2.065 13.4 4.972 6.43 6.83 7.592 11.202.766 8.966-1.13 13.12-5.192 7.652-9.415 10v-.04zM53.07 63c.478-.148.946-.307 1.413-.475l.14-.05 1.326-.524.152-.07c.457-.198.924-.406 1.37-.633l.467-.237.772-.415c.272-.148.532-.307.793-.465l.39-.227.39-.237 8.238 18.79-8.336-3.155-3.663 7.507L48.3 64.01a30.98 30.98 0 0 0 4.771-1.019z" fill="#9d3bff"/><g fill="#00c4d1"><path d="M70.426 15.963c-3.4-3.285-7.505-5.9-12.06-7.68S48.9 5.6 43.94 5.608c-4.975.015-9.895.95-14.46 2.752s-8.68 4.428-12.092 7.722a2.11 2.11 0 0 0-.652 1.107c-.092.42-.046.855.133 1.25a2.23 2.23 0 0 0 .873.973 2.55 2.55 0 0 0 1.32.368 2.57 2.57 0 0 0 .948-.176c.3-.117.57-.3.8-.506 2.96-2.866 6.534-5.153 10.5-6.72S39.543 10 43.866 10s8.603.783 12.578 2.33 7.56 3.817 10.538 6.67a2.3 2.3 0 0 0 .755.493 2.48 2.48 0 0 0 .908.18 2.56 2.56 0 0 0 .913-.14 2.39 2.39 0 0 0 .782-.452 2.18 2.18 0 0 0 .557-.697c.132-.264.204-.55.213-.84s-.048-.578-.165-.848a2.15 2.15 0 0 0-.517-.722zM19.3 63.366l.5.425c.182.136.383.25.598.336l1.837-4.193c-5.3-4.506-8.726-10.523-9.74-17.05s.455-13.176 4.165-18.84a2.04 2.04 0 0 0 .31-.797c.045-.282.028-.57-.05-.844a2.06 2.06 0 0 0-.397-.762 2.29 2.29 0 0 0-.69-.563c-.54-.294-1.188-.38-1.8-.242s-1.137.493-1.462.984c-4.3 6.57-5.98 14.3-4.758 21.856S13.093 58.2 19.3 63.356v.01zm49.506 0l-.522.425c-.34.28-.703.534-1.087.76l-1.815-4.223c3.24-2.767 5.84-6.095 7.647-9.8s2.784-7.68 2.874-11.722c.012-5.222-1.532-10.348-4.467-14.835a2 2 0 0 1-.266-1.641c.154-.557.545-1.036 1.087-1.33s1.2-.382 1.803-.242 1.14.496 1.463 1c4.295 6.572 5.97 14.3 4.748 21.855S75 58.13 68.796 63.297v.07z"/></g><path d="M74.665 80.644L64.123 56.67c3.873-3.576 6.502-8.11 7.56-13.04s.497-10.03-1.613-14.67-5.674-8.61-10.25-11.418-9.957-4.326-15.474-4.366-10.926 1.4-15.55 4.138-8.26 6.658-10.45 11.266-2.843 9.7-1.873 14.644 3.52 9.516 7.328 13.15l-10.65 24.27a2.39 2.39 0 0 0-.143 1.504c.116.503.393.964.795 1.325s.907.603 1.458.7a3.1 3.1 0 0 0 1.64-.156l8.216-3.096 3.608 7.398c.228.457.595.845 1.057 1.118a3.1 3.1 0 0 0 1.552.425h.054c.566-.01 1.115-.172 1.58-.466s.822-.707 1.03-1.186l9.912-22.59L53.82 88.2c.206.48.564.892 1.03 1.186s1.014.456 1.58.466a3.09 3.09 0 0 0 1.553-.423c.462-.273.83-.662 1.056-1.12l3.608-7.398 8.27 3.145c.517.2 1.088.253 1.64.156s1.06-.34 1.458-.7c.413-.365.697-.834.813-1.348s.06-1.047-.16-1.53zM31.246 82.8l-3.663-7.507-8.336 3.155 8.347-19.03.5.307.554.346.62.366.74.406.522.267a19.58 19.58 0 0 0 1.032.504l.272.12c.957.424 1.94.798 2.945 1.118h.14a22.83 22.83 0 0 0 1.337.396l.272.07c.413.11.826.198 1.24.287l.326.07a24.24 24.24 0 0 0 1.228.227h.228l-8.303 18.9zm13.52-22.816H41.94l-.64-.148-.49-.06-.598-.09-.413-.07-.674-.13-.348-.07-.74-.168-.272-.07-.76-.208-.174-.05a24.47 24.47 0 0 1-2.597-.989h-.11l-.51-.237-.478-.218-.39-.198-.576-.307-.293-.168-.663-.386-.217-.13-.728-.475-.13-.09-.793-.564H29.3c-3.8-2.865-6.52-6.758-7.742-11.116s-.887-8.957.952-13.132 5.09-7.7 9.28-10.094 9.106-3.495 14.036-3.17 9.62 2.065 13.4 4.972 6.43 6.83 7.592 11.202.766 8.966-1.13 13.12-5.192 7.652-9.415 10l-.163.08c-.228.13-.467.257-.717.376l-.38.188-.5.237-.565.247-.304.13-.74.287h-.11c-2.518.913-5.192 1.418-7.9 1.493l-.11.01zm15.466 15.3L56.57 82.8l-8.227-18.79a30.95 30.95 0 0 0 4.728-1.048c.478-.148.946-.307 1.413-.475l.14-.05 1.326-.524.152-.07c.457-.198.924-.406 1.37-.633l.467-.237.772-.415c.272-.148.532-.307.793-.465l.39-.227.39-.237 8.238 18.79-8.292-3.125z" fill="#9d3bff"/></g><defs><clipPath id="A"><path fill="#fff" d="M0 0h90v90H0z"/></clipPath></defs></svg>