<svg xmlns="http://www.w3.org/2000/svg" width="90" height="90" fill="none" xmlns:v="https://vecta.io/nano"><path d="M73.686 15.893c3.036 0 5.497-2.06 5.497-4.6s-2.46-4.6-5.497-4.6-5.497 2.06-5.497 4.6 2.46 4.6 5.497 4.6z" fill="#00c4d1"/><path d="M85.318 7.784c2.024 0 3.665-1.373 3.665-3.066s-1.64-3.066-3.665-3.066-3.665 1.373-3.665 3.066 1.64 3.066 3.665 3.066zM3.357 74.62c1.717 0 3.1-1.165 3.1-2.6s-1.392-2.6-3.1-2.6-3.1 1.165-3.1 2.6 1.392 2.6 3.1 2.6z" fill="#9d3bff"/><g fill="#00c4d1"><path d="M11.68 85.846c2.86 0 5.178-1.94 5.178-4.332s-2.318-4.332-5.178-4.332-5.178 1.94-5.178 4.332 2.318 4.332 5.178 4.332zm35.477-55.82c-.56 0-1.1-.186-1.496-.518s-.62-.782-.62-1.252v-6.22c0-.232.055-.463.16-.677s.262-.4.46-.574a2.03 2.03 0 0 1 .686-.384 2.48 2.48 0 0 1 1.62 0c.257.1.5.22.687.384s.352.36.46.574.16.445.16.677v6.22c0 .47-.223.92-.62 1.252s-.935.518-1.496.518z"/><path d="M47.536 22.6c-.442 0-.866-.147-1.18-.4s-.488-.616-.488-.986v-4.52c-.003-.954-.457-1.868-1.264-2.543s-1.9-1.055-3.04-1.057H28.04a8.96 8.96 0 0 1-2.927-.487 7.89 7.89 0 0 1-2.482-1.387c-.7-.594-1.274-1.3-1.658-2.076s-.582-1.608-.582-2.45.198-1.672.582-2.45.948-1.482 1.658-2.076A7.89 7.89 0 0 1 25.114.784a8.96 8.96 0 0 1 2.927-.487h37.996c.23-.016.465.008.684.07a1.77 1.77 0 0 1 .593.295 1.44 1.44 0 0 1 .401.469 1.21 1.21 0 0 1 .142.565 1.21 1.21 0 0 1-.142.565 1.44 1.44 0 0 1-.401.469 1.77 1.77 0 0 1-.593.295 1.97 1.97 0 0 1-.684.07H28.04c-1.14 0-2.236.38-3.043 1.054s-1.26 1.6-1.26 2.546.453 1.87 1.26 2.546 1.902 1.054 3.043 1.054h13.524c2.028.003 3.97.678 5.405 1.877s2.24 2.826 2.244 4.522v4.52c-.003.37-.18.725-.496.987a1.86 1.86 0 0 1-1.183.408zm26.032 21.56H50.834c-.416-.002-.814-.142-1.108-.388s-.46-.58-.464-.927V40.67c.005-.4-.157-.8-.46-1.135s-.73-.55-1.207-.645c-.3-.054-.63-.05-.937.012s-.595.18-.84.348a1.87 1.87 0 0 0-.58.616c-.136.24-.207.5-.207.765v2.225c0 .347-.164.68-.456.927s-.7.386-1.104.4h-22.7c-.493-.005-.974.13-1.362.387s-.658.615-.766 1.018a1.49 1.49 0 0 0 .013.781c.074.256.215.495.413.7a2.1 2.1 0 0 0 .733.483c.283.113.595.172.9.173h52.915a2.46 2.46 0 0 0 .902-.179c.28-.115.53-.28.724-.485s.335-.442.407-.697a1.49 1.49 0 0 0 .012-.776c-.107-.398-.372-.753-.753-1.008s-.852-.395-1.34-.396z"/></g><path d="M47.157 41.54c-1.4-.003-2.743-.47-3.733-1.298s-1.548-1.95-1.55-3.123v-5.35c.064-1.138.65-2.2 1.635-2.997s2.294-1.225 3.655-1.225 2.67.44 3.656 1.225 1.57 1.86 1.635 2.997v5.32a3.81 3.81 0 0 1-.396 1.702 4.47 4.47 0 0 1-1.146 1.444c-.492.414-1.077.742-1.72.966a6.2 6.2 0 0 1-2.032.34zm0-10.622c-.277.005-.54.1-.737.263s-.3.385-.315.617v5.3a.85.85 0 0 0 .346.568 1.19 1.19 0 0 0 .712.228 1.19 1.19 0 0 0 .712-.228c.195-.147.32-.35.346-.568v-5.32c-.006-.233-.12-.456-.32-.62a1.19 1.19 0 0 0-.745-.26v.03zm.001 58.4c-7.854-.008-15.384-2.622-20.938-7.268s-8.678-10.946-8.687-17.517V44.18c-.08-3.297.63-6.574 2.083-9.64S23.24 28.683 26 26.328s6.053-4.226 9.687-5.503S43.224 18.9 47.165 18.9s7.844.658 11.478 1.935 6.927 3.148 9.687 5.503 4.93 5.147 6.383 8.212 2.162 6.342 2.083 9.64v20.344c-.01 6.573-3.135 12.874-8.692 17.52s-13.1 7.26-20.946 7.264zm0-66.382c-6.734.008-13.2 2.25-17.95 6.234s-7.437 9.386-7.444 15.02v20.344c0 5.64 2.678 11.048 7.444 15.036s11.232 6.228 17.973 6.228 13.206-2.24 17.972-6.228S72.6 70.163 72.6 64.523V44.18c-.006-5.64-2.7-11.048-7.46-15.033s-11.238-6.223-17.98-6.22z" fill="#9d3bff"/></svg>