<svg xmlns="http://www.w3.org/2000/svg" width="90" height="90" fill="none" xmlns:v="https://vecta.io/nano"><path d="M21.142 89.278c2.307 0 4.177-2.39 4.177-5.34s-1.87-5.34-4.177-5.34-4.177 2.39-4.177 5.34 1.87 5.34 4.177 5.34z" fill="#00c4d1"/><path d="M12.547 76.856c1.77 0 3.203-1.833 3.203-4.094s-1.434-4.094-3.203-4.094-3.203 1.833-3.203 4.094 1.434 4.094 3.203 4.094zM80.902 9.168c1.923 0 3.48-1.993 3.48-4.45s-1.558-4.45-3.48-4.45-3.48 1.993-3.48 4.45 1.56 4.45 3.48 4.45z" fill="#9d3bff"/><path d="M46.214 87.488a5.01 5.01 0 0 1-2.358-.597c-.758-.397-1.426-.976-1.998-1.708L17.553 54.1C6.28 39.7 8.045 22.322 15.62 12.57c7.156-9.208 19.696-11.868 30.596 0 10.892-11.78 23.4-9.158 30.58.04 7.566 9.732 9.337 27.1-1.926 41.54l-24.3 31.035c-1.157 1.473-2.723 2.3-4.355 2.304zM30.487 11.78c-2.032.005-4.043.523-5.917 1.524s-3.576 2.467-5.006 4.3c-5.415 7.002-7.17 19.84 1.926 31.46L45.796 80.1a.6.6 0 0 0 .192.165.48.48 0 0 0 .226.058.48.48 0 0 0 .226-.058.57.57 0 0 0 .19-.165l24.3-31.035c9.082-11.6 7.357-24.438 1.9-31.44S57.37 8.337 48.303 19.84c-.558.7-1.3 1.094-2.093 1.094s-1.534-.393-2.093-1.094c-4.54-5.746-9.306-8.06-13.63-8.06zm56.666 5.726c2.692 0 2.692-5.34 0-5.34s-2.692 5.34 0 5.34z" fill="#00c4d1"/><path d="M44.814 57.234C26.302 57.234.232 52.26.255 41.212c0-6.102 7.736-8.95 9.74-9.78l.72 6.923c-1.648.67-3.202 1.67-4.603 2.967 2.74 3.283 17.352 8.802 38.68 8.802s35.972-5.52 38.68-8.802c-.6-.547-1.25-1-1.934-1.345l.774-7.16c1.385.762 7.04 3.68 7.04 8.407.023 11.037-26.03 16.012-44.536 16.012z" fill="#9d3bff"/><path d="M9.624 28.8c-.334 3.77-.012 7.585.944 11.176l3.357-3.48.364-8.743L9.624 28.8zm71.27 2.63l1.988.692s-.317 6.092-1.547 9.603" fill="#00c4d1"/></svg>