<svg xmlns="http://www.w3.org/2000/svg" width="90" height="90" fill="none" xmlns:v="https://vecta.io/nano"><path d="M5.42 80.684c1.622 0 2.938-1.2 2.938-2.68s-1.315-2.68-2.937-2.68-2.937 1.2-2.937 2.68 1.315 2.68 2.937 2.68z" fill="#9d3bff"/><path d="M16.13 89.743c2.706 0 4.9-2.002 4.9-4.47s-2.194-4.47-4.9-4.47-4.9 2-4.9 4.47 2.194 4.47 4.9 4.47zM72.722 8c1.622 0 2.938-1.2 2.938-2.68s-1.315-2.68-2.937-2.68-2.937 1.2-2.937 2.68S71.1 8 72.724 8z" fill="#00c4d1"/><g fill="#9d3bff"><path d="M82.803 17.773c2.706 0 4.9-2 4.9-4.47s-2.194-4.47-4.9-4.47-4.9 2-4.9 4.47 2.194 4.47 4.9 4.47zM44.55 62.9a1.53 1.53 0 0 1-.683-.168L30.74 55.8a1.3 1.3 0 0 1-.492-.452c-.118-.187-.18-.4-.18-.616V40.896a1.17 1.17 0 0 1 .18-.615 1.31 1.31 0 0 1 .491-.453l13.127-6.923a1.46 1.46 0 0 1 1.366 0l13.127 6.923a1.29 1.29 0 0 1 .498.45 1.16 1.16 0 0 1 .184.618v13.846c0 .217-.063.43-.183.618a1.29 1.29 0 0 1-.5.45l-13.126 6.923c-.208.1-.443.166-.683.168zM32.778 54l11.772 6.23 11.815-6.2V41.628l-11.815-6.2-11.772 6.2V54z"/><path d="M44.702 62.763c-.358-.005-.7-.14-.952-.372s-.392-.547-.392-.874v-13.55c-.001-.215.06-.427.175-.614s.283-.344.486-.454l12.736-6.923c.153-.083.322-.138.5-.16s.356-.015.528.025.335.11.478.208.263.22.354.36a1.17 1.17 0 0 1 .177.455 1.13 1.13 0 0 1-.028.482c-.044.157-.12.306-.228.436a1.32 1.32 0 0 1-.393.323L46.057 48.67v12.857c-.003.327-.147.64-.4.87s-.596.362-.955.365z"/><path d="M44.702 49.203c-.237.001-.47-.057-.672-.168L31.022 42.26a1.33 1.33 0 0 1-.401-.317 1.2 1.2 0 0 1-.238-.433c-.047-.157-.06-.32-.038-.483a1.18 1.18 0 0 1 .167-.46 1.28 1.28 0 0 1 .347-.366c.14-.1.302-.174.474-.217a1.5 1.5 0 0 1 .53-.035 1.45 1.45 0 0 1 .503.153l13.007 6.785c.262.134.468.344.585.596a1.13 1.13 0 0 1 .062.798 1.24 1.24 0 0 1-.487.666 1.44 1.44 0 0 1-.832.254zM49.287 82.9a1.44 1.44 0 0 1-.982-.31 1.2 1.2 0 0 1-.454-.852c-.02-.328.1-.65.34-.896a1.41 1.41 0 0 1 .934-.415 39.27 39.27 0 0 0 6.504-1.276c.176-.066.366-.097.556-.1s.377.048.55.124.323.184.445.317.212.288.265.456a1.13 1.13 0 0 1 .038.515 1.17 1.17 0 0 1-.196.484 1.31 1.31 0 0 1-.395.37 1.43 1.43 0 0 1-.526.19 42.2 42.2 0 0 1-6.937 1.375l-.14.01zm-11.262-.316h-.24a40.36 40.36 0 0 1-6.84-1.76 1.39 1.39 0 0 1-.47-.25c-.138-.112-.246-.246-.324-.397a1.15 1.15 0 0 1-.127-.481 1.14 1.14 0 0 1 .09-.488 1.23 1.23 0 0 1 .293-.417 1.35 1.35 0 0 1 .45-.278c.17-.064.35-.097.532-.096a1.45 1.45 0 0 1 .53.103 39.4 39.4 0 0 0 6.352 1.592 1.38 1.38 0 0 1 .838.469 1.16 1.16 0 0 1 .27.862 1.2 1.2 0 0 1-.439.802 1.43 1.43 0 0 1-.918.32v.02zm28.096-5.568c-.287-.004-.565-.1-.795-.247s-.4-.375-.487-.624-.084-.517.005-.766a1.26 1.26 0 0 1 .495-.618 35.75 35.75 0 0 0 5.029-3.956 1.45 1.45 0 0 1 .935-.297 1.43 1.43 0 0 1 .91.357 1.2 1.2 0 0 1 .406.823c.018.3-.093.617-.3.858a38.44 38.44 0 0 1-5.42 4.193c-.22.162-.488.258-.77.277zm-44.44-1.248a1.46 1.46 0 0 1-.846-.267 37.25 37.25 0 0 1-5.127-4.48 1.22 1.22 0 0 1-.262-.42 1.14 1.14 0 0 1-.065-.481 1.16 1.16 0 0 1 .141-.467 1.25 1.25 0 0 1 .326-.382 1.4 1.4 0 0 1 .462-.239 1.48 1.48 0 0 1 .527-.059 1.46 1.46 0 0 1 .512.129 1.35 1.35 0 0 1 .419.298 34.53 34.53 0 0 0 4.758 4.164 1.24 1.24 0 0 1 .46.625c.078.247.07.5-.022.752a1.2 1.2 0 0 1-.497.6c-.23.147-.505.228-.787.227zm-9.647-42.43c-.233-.003-.46-.06-.662-.167s-.37-.258-.5-.44a1.17 1.17 0 0 1-.193-.602 1.15 1.15 0 0 1 .153-.61 34.52 34.52 0 0 1 3.913-5.41 1.41 1.41 0 0 1 .915-.473 1.5 1.5 0 0 1 .535.036 1.43 1.43 0 0 1 .479.22c.142.1.26.227.35.37a1.18 1.18 0 0 1 .168.465 1.15 1.15 0 0 1-.039.488c-.048.16-.13.307-.24.437a33.32 33.32 0 0 0-3.642 5.034 1.28 1.28 0 0 1-.53.497 1.45 1.45 0 0 1-.739.156h.022zm65.188-.584a1.43 1.43 0 0 1-.686-.17c-.208-.113-.38-.272-.496-.464a32.74 32.74 0 0 0-3.74-4.945c-.23-.252-.344-.577-.312-.905s.204-.63.48-.84a1.45 1.45 0 0 1 .99-.285c.357.03.7.186.922.438a35.11 35.11 0 0 1 4.021 5.341 1.14 1.14 0 0 1 .126.94 1.19 1.19 0 0 1-.24.43c-.1.127-.248.233-.404.312a1.42 1.42 0 0 1-.683.148h.022zm-53.113-11.6a1.46 1.46 0 0 1-.806-.248c-.233-.158-.404-.38-.5-.635s-.078-.526.018-.776a1.27 1.27 0 0 1 .518-.616 40.36 40.36 0 0 1 6.2-3.056c.164-.064.34-.097.517-.1a1.47 1.47 0 0 1 .52.089 1.37 1.37 0 0 1 .443.264 1.24 1.24 0 0 1 .298.398c.072.15.1.3.113.47a1.13 1.13 0 0 1-.094.474 1.22 1.22 0 0 1-.288.404c-.124.116-.272.2-.436.272-2.02.8-3.958 1.768-5.788 2.888a1.44 1.44 0 0 1-.76.168h.032zm40.778-.386c-.262.003-.52-.066-.737-.198a36.65 36.65 0 0 0-5.853-2.769 1.38 1.38 0 0 1-.442-.267 1.24 1.24 0 0 1-.296-.401c-.07-.15-.105-.3-.105-.474a1.18 1.18 0 0 1 .1-.475 1.2 1.2 0 0 1 .293-.403 1.37 1.37 0 0 1 .44-.27c.165-.063.34-.096.52-.096a1.47 1.47 0 0 1 .52.092 39.24 39.24 0 0 1 6.298 2.967c.246.145.434.36.535.6s.112.524.03.78-.255.48-.5.64-.52.246-.812.245v.02z"/></g><path d="M45.006 15.755a8.81 8.81 0 0 1-4.578-1.267c-1.355-.826-2.4-2-3.034-3.375a6.9 6.9 0 0 1-.467-4.344c.32-1.458 1.103-2.8 2.257-3.85s2.622-1.766 4.22-2.055 3.255-.14 4.76.432 2.8 1.535 3.695 2.773 1.385 2.692 1.383 4.18a6.94 6.94 0 0 1-.627 2.875c-.414.9-1.02 1.74-1.786 2.436s-1.673 1.25-2.673 1.627a8.92 8.92 0 0 1-3.152.568zm0-11.522c-.87 0-1.72.236-2.445.677a4.12 4.12 0 0 0-1.621 1.802 3.69 3.69 0 0 0-.25 2.32 3.92 3.92 0 0 0 1.204 2.056c.615.562 1.4.944 2.253 1.1s1.74.075 2.543-.23a4.34 4.34 0 0 0 1.975-1.479 3.77 3.77 0 0 0 .742-2.231c0-1.065-.464-2.086-1.3-2.84s-1.945-1.176-3.112-1.176zM54.133 28.8a2.08 2.08 0 0 1-.734-.133 1.94 1.94 0 0 1-.622-.379 1.75 1.75 0 0 1-.416-.568 1.62 1.62 0 0 1-.146-.67c0-1.744-.76-3.417-2.1-4.65s-3.185-1.926-5.097-1.926-3.745.693-5.097 1.926-2.1 2.906-2.1 4.65a1.61 1.61 0 0 1-.102.709 1.73 1.73 0 0 1-.404.613 1.93 1.93 0 0 1-.639.414 2.08 2.08 0 0 1-1.535 0 1.93 1.93 0 0 1-.639-.414 1.73 1.73 0 0 1-.404-.613 1.61 1.61 0 0 1-.102-.709c.1-2.617 1.292-5.1 3.353-6.92s4.818-2.84 7.687-2.84 5.626 1.02 7.687 2.84 3.263 4.304 3.353 6.92c0 .464-.202.9-.562 1.238s-.848.513-1.357.513zM78.14 53.98a8.81 8.81 0 0 1-4.579-1.268c-1.355-.827-2.4-2.002-3.034-3.376s-.785-2.887-.465-4.346 1.106-2.798 2.26-3.848 2.624-1.765 4.224-2.053 3.257-.136 4.76.436 2.8 1.538 3.693 2.777 1.382 2.694 1.378 4.18c-.006 2-.876 3.897-2.42 5.302S80.32 53.98 78.14 53.98zm0-11.532a4.72 4.72 0 0 0-2.453.673c-.727.44-1.294 1.068-1.63 1.803a3.7 3.7 0 0 0-.257 2.325c.168.78.586 1.5 1.202 2.064s1.4.95 2.256 1.107a4.81 4.81 0 0 0 2.55-.223c.807-.303 1.497-.817 1.984-1.478a3.78 3.78 0 0 0 .75-2.235 3.72 3.72 0 0 0-.332-1.541 4.02 4.02 0 0 0-.953-1.308 4.46 4.46 0 0 0-1.429-.876 4.78 4.78 0 0 0-1.687-.31zm9.128 24.577a2.08 2.08 0 0 1-.734-.133 1.94 1.94 0 0 1-.623-.379 1.75 1.75 0 0 1-.416-.568 1.62 1.62 0 0 1-.146-.67 6.08 6.08 0 0 0-.549-2.517c-.362-.798-.893-1.523-1.563-2.134a7.29 7.29 0 0 0-2.338-1.426 7.83 7.83 0 0 0-2.76-.5c-.948 0-1.884.17-2.758.5a7.29 7.29 0 0 0-2.338 1.426c-.67.6-1.2 1.336-1.563 2.134a6.08 6.08 0 0 0-.549 2.517c.02.24-.015.482-.102.7s-.225.436-.404.613-.397.318-.64.414-.503.146-.767.146-.525-.05-.767-.146-.46-.237-.64-.414a1.73 1.73 0 0 1-.404-.613 1.61 1.61 0 0 1-.102-.709c.1-2.617 1.292-5.1 3.353-6.92s4.818-2.84 7.687-2.84 5.626 1.02 7.687 2.84 3.263 4.304 3.353 6.92c0 .464-.202.9-.562 1.238s-.848.513-1.357.513zM11.923 53.98c-1.633.01-3.23-.423-4.594-1.244S4.902 50.744 4.27 49.37a6.91 6.91 0 0 1-.487-4.349c.313-1.462 1.096-2.806 2.248-3.86s2.622-1.775 4.223-2.066 3.26-.143 4.77.427 2.796 1.537 3.7 2.777 1.386 2.697 1.382 4.186c-.006 1.982-.87 3.88-2.4 5.285s-3.6 2.2-5.783 2.212zm0-11.532c-.875-.014-1.735.2-2.47.644s-1.312 1.057-1.658 1.8a3.7 3.7 0 0 0-.284 2.33 3.92 3.92 0 0 0 1.186 2.079 4.57 4.57 0 0 0 2.255 1.124 4.81 4.81 0 0 0 2.558-.213c.8-.3 1.505-.815 1.995-1.477s.752-1.442.754-2.24c.003-1.057-.45-2.073-1.26-2.828s-1.916-1.2-3.074-1.207zm9.073 24.577c-.5 0-.997-.184-1.357-.513s-.562-.774-.562-1.238c0-1.744-.76-3.417-2.1-4.65s-3.185-1.926-5.097-1.926-3.745.693-5.097 1.926-2.1 2.906-2.1 4.65a1.61 1.61 0 0 1-.102.709 1.74 1.74 0 0 1-.404.613c-.18.177-.397.318-.64.414s-.503.146-.767.146-.525-.05-.767-.146-.46-.237-.64-.414a1.72 1.72 0 0 1-.404-.613 1.61 1.61 0 0 1-.102-.709c.1-2.617 1.292-5.1 3.353-6.92s4.817-2.84 7.687-2.84 5.626 1.02 7.687 2.84 3.263 4.304 3.353 6.92c0 .464-.202.9-.562 1.238s-.848.513-1.357.513z" fill="#00c4d1"/></svg>