<svg xmlns="http://www.w3.org/2000/svg" width="90" height="90" fill="none" xmlns:v="https://vecta.io/nano"><path d="M6.924 15.636c3.125 0 5.66-2.298 5.66-5.133S10.05 5.37 6.924 5.37s-5.66 2.298-5.66 5.133 2.534 5.133 5.66 5.133z" fill="#00c4d1"/><path d="M19.3 7.14c2.084 0 3.773-1.532 3.773-3.422S21.384.297 19.3.297 15.527 1.83 15.527 3.72 17.216 7.14 19.3 7.14z" fill="#9d3bff"/><path d="M86.347 77.598c1.764 0 3.195-1.297 3.195-2.898s-1.43-2.898-3.195-2.898-3.195 1.297-3.195 2.898 1.43 2.898 3.195 2.898z" fill="#00c4d1"/><path d="M76.654 89.308c2.945 0 5.332-2.165 5.332-4.836s-2.387-4.836-5.332-4.836-5.332 2.165-5.332 4.836 2.387 4.836 5.332 4.836z" fill="#9d3bff"/><g stroke-miterlimit="10"><path d="M26.17 83.364a2.64 2.64 0 0 1-1.262-.29 2.34 2.34 0 0 1-.919-.837l-13.86-22.47a2.07 2.07 0 0 1-.295-.858 2.02 2.02 0 0 1 .106-.894c.102-.288.268-.554.488-.782s.49-.412.79-.542l24.228-10.88c.425-.19.9-.263 1.37-.212s.913.223 1.277.497.633.637.775 1.046.15.847.024 1.26l-2.18 7.11c3.642 1.978 19.89 9.06 43.408-6.923.32-.194.698-.296 1.084-.293s.76.112 1.078.31.56.48.697.808a1.59 1.59 0 0 1 .075 1.024c-.185.633-4.547 14.944-19.016 22.41-9.3 4.777-20.565 5.598-33.507 2.443l-1.985 6.458c-.132.423-.4.8-.768 1.086s-.822.465-1.303.517l-.305.01zM14.175 59.222l11.558 18.653 1.526-4.747c.16-.55.55-1.023 1.1-1.315a2.87 2.87 0 0 1 1.974-.178c12.43 3.244 23.105 2.64 31.828-1.8 7.905-4.065 12.54-10.602 14.96-15.142-10.27 5.865-19.114 7.675-26.093 7.675-10.697 0-17.02-4.233-17.446-4.55a2.21 2.21 0 0 1-.84-1.054c-.156-.42-.167-.874-.032-1.3l1.625-5.27-20.15 9.03z" fill="#00c4d1" stroke="#00c4d1"/><path d="M53.952 46.04a2.59 2.59 0 0 1-1.559-.544c-.36-.275-.628-.64-.77-1.047s-.15-.845-.027-1.258l2.18-7.12C50.136 34.09 33.89 27 10.37 42.992L7.306 45.07v-3.47c0-.82 3.85-12.758 15.178-20.492 9.955-6.794 22.538-8.407 37.41-4.777L61.9 9.9c.132-.422.398-.8.765-1.084s.82-.465 1.3-.518.966.024 1.398.22a2.37 2.37 0 0 1 1.029.887l13.924 22.46a2.09 2.09 0 0 1 .306.866 2.04 2.04 0 0 1-.099.905c-.097.29-.26.556-.474.786s-.48.417-.78.55L55.043 45.84c-.342.142-.715.21-1.1.198zM39.428 29.225c10.697 0 17.02 4.223 17.446 4.54a2.21 2.21 0 0 1 .84 1.054c.156.42.167.874.032 1.3l-1.625 5.27 20.107-9.03-11.536-18.603-1.45 4.747c-.17.536-.56.992-1.1 1.276a2.8 2.8 0 0 1-.972.273 2.86 2.86 0 0 1-1.013-.085c-12.474-3.224-23.16-2.62-31.817 1.8C20.4 25.863 15.756 32.4 13.336 36.93c10.27-5.865 19.114-7.665 26.093-7.665v-.04z" fill="#9d3bff" stroke="#9d3bff"/></g></svg>