<svg width="90" height="90" viewBox="0 0 90 90" fill="none" xmlns="http://www.w3.org/2000/svg">
<path d="M5.41991 80.6835C7.04225 80.6835 8.35741 79.4835 8.35741 78.0033C8.35741 76.5231 7.04225 75.3231 5.41991 75.3231C3.79758 75.3231 2.48242 76.5231 2.48242 78.0033C2.48242 79.4835 3.79758 80.6835 5.41991 80.6835Z" fill="#9D3BFF"/>
<path d="M16.1289 89.7429C18.8348 89.7429 21.0284 87.7414 21.0284 85.2725C21.0284 82.8036 18.8348 80.8022 16.1289 80.8022C13.423 80.8022 11.2295 82.8036 11.2295 85.2725C11.2295 87.7414 13.423 89.7429 16.1289 89.7429Z" fill="#00C4D1"/>
<path d="M72.7217 8.01098C74.344 8.01098 75.6592 6.81101 75.6592 5.33076C75.6592 3.85052 74.344 2.65054 72.7217 2.65054C71.0993 2.65054 69.7842 3.85052 69.7842 5.33076C69.7842 6.81101 71.0993 8.01098 72.7217 8.01098Z" fill="#00C4D1"/>
<path d="M82.8028 17.7725C85.5086 17.7725 87.7022 15.7711 87.7022 13.3022C87.7022 10.8333 85.5086 8.83186 82.8028 8.83186C80.0969 8.83186 77.9033 10.8333 77.9033 13.3022C77.9033 15.7711 80.0969 17.7725 82.8028 17.7725Z" fill="#9D3BFF"/>
<path d="M44.5499 62.9011C44.3104 62.8981 44.0756 62.8403 43.867 62.733L30.7404 55.8099C30.5358 55.701 30.3661 55.545 30.2482 55.3576C30.1303 55.1702 30.0683 54.9579 30.0684 54.7418V40.8956C30.0694 40.6797 30.1318 40.4677 30.2496 40.2805C30.3675 40.0932 30.5366 39.9371 30.7404 39.8275L43.867 32.9044C44.0739 32.793 44.3097 32.7343 44.5499 32.7343C44.7901 32.7343 45.0259 32.793 45.2328 32.9044L58.3593 39.8275C58.5659 39.9351 58.7378 40.0905 58.8577 40.278C58.9775 40.4655 59.0412 40.6785 59.0422 40.8956V54.7418C59.0423 54.959 58.9791 55.1724 58.8591 55.3601C58.7391 55.5478 58.5667 55.703 58.3593 55.8099L45.2328 62.733C45.0247 62.8415 44.7895 62.8994 44.5499 62.9011ZM32.7782 54L44.5499 60.2308L56.3649 54.0297V41.6275L44.5499 35.4264L32.7782 41.6275V54Z" fill="#9D3BFF"/>
<path d="M44.7015 62.7626C44.3431 62.7574 44.0012 62.6239 43.7498 62.3907C43.4983 62.1576 43.3574 61.8436 43.3574 61.5165V47.967C43.3563 47.7519 43.4166 47.5402 43.5326 47.3529C43.6486 47.1655 43.8161 47.009 44.0186 46.8989L56.755 39.9758C56.908 39.8927 57.0775 39.8379 57.2537 39.8145C57.43 39.7912 57.6095 39.7997 57.7821 39.8396C57.9548 39.8796 58.1171 39.9502 58.2598 40.0474C58.4025 40.1445 58.5229 40.2664 58.614 40.406C58.7051 40.5457 58.7651 40.7003 58.7908 40.8611C58.8164 41.0219 58.807 41.1857 58.7632 41.3432C58.7194 41.5007 58.6421 41.6488 58.5356 41.779C58.4291 41.9093 58.2955 42.0191 58.1425 42.1022L46.0565 48.6692V61.5264C46.0536 61.8534 45.91 62.1664 45.6565 62.3977C45.403 62.629 45.06 62.76 44.7015 62.7626Z" fill="#9D3BFF"/>
<path d="M44.7016 49.2033C44.4649 49.2046 44.2324 49.1464 44.0295 49.0352L31.0222 42.2604C30.867 42.1799 30.7308 42.0723 30.6212 41.9437C30.5116 41.8151 30.4309 41.6681 30.3836 41.5111C30.3363 41.3541 30.3233 41.1901 30.3455 41.0284C30.3676 40.8668 30.4245 40.7108 30.5127 40.5692C30.601 40.4277 30.7189 40.3033 30.8598 40.2034C31.0008 40.1034 31.1619 40.0297 31.334 39.9865C31.5061 39.9434 31.6858 39.9316 31.863 39.9518C32.0401 39.972 32.2111 40.0239 32.3663 40.1044L45.3736 46.889C45.6356 47.0232 45.8413 47.233 45.9583 47.4855C46.0753 47.7379 46.0971 48.0187 46.0202 48.2837C45.9432 48.5487 45.7719 48.7828 45.5332 48.9493C45.2945 49.1157 45.002 49.2051 44.7016 49.2033Z" fill="#9D3BFF"/>
<path d="M49.2874 82.8989C48.9281 82.9186 48.5749 82.8072 48.3056 82.5893C48.0362 82.3713 47.8728 82.0647 47.8512 81.7368C47.8297 81.4089 47.9517 81.0867 48.1906 80.8409C48.4294 80.5952 48.7655 80.446 49.1249 80.4264C51.3311 80.1842 53.5082 79.7571 55.6285 79.1505C55.8049 79.0849 55.9945 79.0539 56.1849 79.0596C56.3753 79.0654 56.5622 79.1076 56.7335 79.1837C56.9048 79.2598 57.0565 79.368 57.1789 79.5012C57.3012 79.6345 57.3914 79.7897 57.4435 79.9569C57.4956 80.1241 57.5086 80.2994 57.4814 80.4715C57.4542 80.6435 57.3876 80.8084 57.2859 80.9553C57.1842 81.1023 57.0497 81.228 56.8911 81.3243C56.7325 81.4207 56.5535 81.4854 56.3656 81.5143C54.1041 82.165 51.782 82.6251 49.4284 82.889L49.2874 82.8989ZM38.0253 82.5824H37.7868C35.451 82.1943 33.1608 81.6049 30.9471 80.822C30.774 80.7685 30.6146 80.6836 30.4783 80.5725C30.3421 80.4613 30.232 80.3262 30.1545 80.1752C30.077 80.0242 30.0338 79.8604 30.0275 79.6938C30.0212 79.5272 30.0518 79.3611 30.1177 79.2056C30.1835 79.05 30.2832 78.9082 30.4106 78.7888C30.5381 78.6693 30.6907 78.5745 30.8593 78.5103C31.0279 78.446 31.2091 78.4135 31.3918 78.4148C31.5745 78.416 31.7551 78.451 31.9226 78.5176C33.9832 79.2215 36.1091 79.7544 38.2746 80.1099C38.6082 80.165 38.9071 80.3322 39.1122 80.5786C39.3173 80.8249 39.4137 81.1325 39.3824 81.4406C39.3511 81.7486 39.1944 82.0348 38.9431 82.2425C38.6918 82.4502 38.3643 82.5645 38.0253 82.5626V82.5824ZM66.1211 77.0143C65.8344 77.0102 65.5564 76.9239 65.3264 76.7677C65.0965 76.6114 64.9263 76.393 64.8399 76.1435C64.7536 75.8941 64.7555 75.6261 64.8453 75.3777C64.9352 75.1292 65.1085 74.9129 65.3407 74.7593C67.1456 73.583 68.8291 72.2588 70.3702 70.8033C70.63 70.6011 70.9635 70.495 71.3048 70.5061C71.6461 70.5171 71.9705 70.6444 72.214 70.8629C72.4575 71.0813 72.6025 71.3751 72.6204 71.6863C72.6382 71.9975 72.5276 72.3035 72.3104 72.544C70.6471 74.0889 68.833 75.4925 66.8907 76.7374C66.671 76.8989 66.4025 76.9955 66.1211 77.0143ZM21.6794 75.7681C21.3719 75.7723 21.0727 75.6778 20.8339 75.5011C18.9774 74.1549 17.2611 72.6551 15.7068 71.0209C15.5901 70.8975 15.5011 70.7543 15.4451 70.5996C15.389 70.4448 15.3668 70.2815 15.3799 70.119C15.393 69.9564 15.4411 69.7978 15.5213 69.6522C15.6016 69.5066 15.7125 69.3768 15.8477 69.2703C15.983 69.1638 16.1399 69.0827 16.3095 69.0315C16.4791 68.9803 16.658 68.9601 16.8362 68.9721C17.0144 68.984 17.1882 69.0278 17.3478 69.1011C17.5074 69.1743 17.6496 69.2755 17.7663 69.3989C19.2086 70.9175 20.8016 72.3113 22.5248 73.5626C22.7457 73.7222 22.9066 73.9406 22.9851 74.1875C23.0635 74.4344 23.0557 74.6974 22.9627 74.94C22.8697 75.1827 22.6961 75.3928 22.4661 75.5412C22.2361 75.6897 21.9611 75.769 21.6794 75.7681ZM12.0322 33.3396C11.7994 33.3364 11.5714 33.2791 11.3697 33.1729C11.1681 33.0667 10.9995 32.9153 10.88 32.733C10.7606 32.5506 10.6942 32.3435 10.6871 32.1311C10.6801 31.9188 10.7327 31.7084 10.8399 31.5198C11.9559 29.6088 13.266 27.7975 14.7529 26.1099C14.9772 25.8476 15.3064 25.6773 15.6683 25.6365C15.8474 25.6163 16.0292 25.6285 16.2032 25.6724C16.3772 25.7163 16.54 25.791 16.6824 25.8923C16.8247 25.9936 16.9438 26.1195 17.0328 26.2628C17.1218 26.4061 17.1791 26.564 17.2012 26.7275C17.2233 26.8909 17.21 27.0568 17.1619 27.2156C17.1138 27.3743 17.0319 27.5229 16.9208 27.6527C15.5425 29.2268 14.3234 30.9117 13.2788 32.6868C13.1584 32.8953 12.9748 33.0677 12.7499 33.1835C12.525 33.2992 12.2683 33.3534 12.0106 33.3396H12.0322ZM77.2207 32.756C76.9797 32.7569 76.7428 32.6986 76.5349 32.5872C76.3271 32.4759 76.1559 32.3156 76.0392 32.1231C74.962 30.3733 73.7101 28.718 72.2996 27.178C72.0682 26.9262 71.9559 26.6008 71.9874 26.2735C72.0189 25.9461 72.1916 25.6436 72.4676 25.4324C72.7436 25.2213 73.1002 25.1188 73.459 25.1475C73.8178 25.1763 74.1494 25.3339 74.3808 25.5857C75.8992 27.2488 77.2455 29.0366 78.4022 30.9264C78.4904 31.0677 78.5469 31.2235 78.5684 31.3849C78.5899 31.5463 78.5761 31.7099 78.5277 31.8664C78.4793 32.0228 78.3972 32.1689 78.2864 32.2962C78.1755 32.4235 78.038 32.5293 77.8819 32.6077C77.6733 32.7128 77.4372 32.7641 77.199 32.756H77.2207ZM24.1074 21.1549C23.8167 21.1526 23.5344 21.0656 23.3016 20.9068C23.0688 20.7479 22.8976 20.5254 22.813 20.2717C22.7284 20.0179 22.7347 19.7461 22.831 19.4959C22.9273 19.2456 23.1087 19.03 23.3486 18.8802C25.3101 17.693 27.3853 16.6702 29.5488 15.8242C29.7125 15.7605 29.8883 15.7269 30.0663 15.7253C30.2442 15.7236 30.4207 15.754 30.5858 15.8146C30.7509 15.8752 30.9013 15.9649 31.0283 16.0786C31.1554 16.1922 31.2567 16.3276 31.3265 16.4769C31.398 16.6255 31.4366 16.7856 31.4398 16.9478C31.4431 17.1101 31.411 17.2713 31.3455 17.4222C31.28 17.5731 31.1822 17.7106 31.058 17.8267C30.9338 17.9429 30.7856 18.0354 30.6219 18.0989C28.601 18.9003 26.6636 19.8669 24.8336 20.9868C24.6048 21.1107 24.3405 21.1692 24.0749 21.1549H24.1074ZM64.8854 20.7692C64.6235 20.7725 64.3666 20.7036 64.1483 20.5714C62.2962 19.4838 60.3365 18.5567 58.295 17.8022C58.1299 17.7405 57.9797 17.6497 57.8531 17.5351C57.7264 17.4204 57.6257 17.2841 57.5567 17.134C57.4878 16.9838 57.4519 16.8228 57.4512 16.66C57.4505 16.4972 57.4849 16.3358 57.5525 16.1852C57.6201 16.0345 57.7196 15.8975 57.8453 15.7819C57.9709 15.6663 58.1203 15.5744 58.2849 15.5115C58.4495 15.4486 58.626 15.4159 58.8044 15.4152C58.9828 15.4146 59.1597 15.446 59.3248 15.5077C61.5212 16.3145 63.6298 17.3079 65.6225 18.4747C65.8683 18.6196 66.0561 18.8332 66.1578 19.0836C66.2595 19.334 66.2696 19.6076 66.1867 19.8637C66.1037 20.1198 65.9321 20.3444 65.6975 20.5041C65.463 20.6637 65.1781 20.7498 64.8854 20.7495V20.7692Z" fill="#9D3BFF"/>
<path d="M45.0056 15.7549C43.3758 15.7549 41.7826 15.3139 40.4277 14.4875C39.0727 13.6611 38.0168 12.4866 37.3936 11.1126C36.7704 9.73857 36.6079 8.22675 36.9267 6.76842C37.2454 5.3101 38.0311 3.97081 39.1843 2.92C40.3375 1.8692 41.8063 1.1541 43.4051 0.865196C45.0038 0.576289 46.6605 0.726552 48.1656 1.29697C49.6707 1.8674 50.9566 2.83234 51.8605 4.06972C52.7644 5.3071 53.2457 6.76131 53.2435 8.24835C53.2435 9.23496 53.0304 10.2119 52.6163 11.1233C52.2021 12.0347 51.5951 12.8626 50.83 13.5598C50.0649 14.257 49.1567 14.8097 48.1573 15.1864C47.1579 15.563 46.0869 15.7562 45.0056 15.7549ZM45.0056 4.23296C44.1352 4.23296 43.2843 4.46846 42.5606 4.90968C41.8369 5.35089 41.2728 5.97801 40.9397 6.71173C40.6066 7.44544 40.5195 8.2528 40.6893 9.03171C40.8591 9.81062 41.2782 10.5261 41.8937 11.0877C42.5092 11.6492 43.2933 12.0316 44.147 12.1866C45.0007 12.3415 45.8855 12.262 46.6897 11.9581C47.4938 11.6542 48.1811 11.1395 48.6647 10.4792C49.1483 9.81885 49.4064 9.04251 49.4064 8.24835C49.4064 7.1834 48.9427 6.16207 48.1174 5.40904C47.2921 4.65601 46.1727 4.23296 45.0056 4.23296Z" fill="#00C4D1"/>
<path d="M54.1326 28.8C53.8807 28.8 53.6312 28.7547 53.3984 28.6667C53.1656 28.5788 52.9541 28.4498 52.776 28.2873C52.5978 28.1247 52.4565 27.9317 52.3601 27.7194C52.2637 27.507 52.214 27.2793 52.214 27.0494C52.214 25.3051 51.4546 23.6323 50.1028 22.3989C48.751 21.1654 46.9176 20.4725 45.0058 20.4725C43.0941 20.4725 41.2606 21.1654 39.9088 22.3989C38.557 23.6323 37.7976 25.3051 37.7976 27.0494C37.8174 27.2897 37.7827 27.5312 37.6955 27.7586C37.6084 27.9861 37.4707 28.1947 37.2911 28.3714C37.1115 28.548 36.8938 28.689 36.6518 28.7854C36.4098 28.8817 36.1485 28.9315 35.8844 28.9315C35.6203 28.9315 35.3591 28.8817 35.117 28.7854C34.875 28.689 34.6573 28.548 34.4777 28.3714C34.2981 28.1947 34.1605 27.9861 34.0733 27.7586C33.9861 27.5312 33.9514 27.2897 33.9712 27.0494C34.0611 24.4325 35.2637 21.9503 37.3242 20.1281C39.3848 18.306 42.1417 17.2871 45.0112 17.2871C47.8807 17.2871 50.6376 18.306 52.6982 20.1281C54.7588 21.9503 55.9613 24.4325 56.0512 27.0494C56.0512 27.5137 55.8491 27.959 55.4893 28.2873C55.1295 28.6156 54.6415 28.8 54.1326 28.8Z" fill="#00C4D1"/>
<path d="M78.1413 53.9802C76.511 53.9802 74.9174 53.5389 73.5623 52.7121C72.2071 51.8853 71.1512 50.7102 70.5283 49.3356C69.9054 47.961 69.7436 46.4486 70.0632 44.9901C70.3828 43.5315 71.1696 42.1922 72.3239 41.1418C73.4781 40.0914 74.948 39.3771 76.5475 39.0893C78.1469 38.8015 79.804 38.9532 81.3089 39.5251C82.8138 40.097 84.0989 41.0635 85.0015 42.3022C85.904 43.5409 86.3836 44.9961 86.3793 46.4835C86.3735 48.4736 85.5031 50.3804 83.9588 51.7857C82.4145 53.191 80.3224 53.9802 78.1413 53.9802ZM78.1413 42.4484C77.2687 42.4464 76.4152 42.6806 75.6885 43.1212C74.9618 43.5619 74.3947 44.1893 74.0588 44.9241C73.7229 45.6589 73.6333 46.468 73.8015 47.2492C73.9696 48.0304 74.3878 48.7486 75.0033 49.3129C75.6187 49.8772 76.4038 50.2624 77.2591 50.4196C78.1145 50.5768 79.0018 50.4991 79.8087 50.1963C80.6156 49.8934 81.306 49.379 81.7926 48.7182C82.2791 48.0573 82.54 47.2796 82.5421 46.4835C82.5435 45.9549 82.4308 45.4312 82.2104 44.9424C81.99 44.4535 81.6663 44.009 81.2576 43.6343C80.849 43.2596 80.3634 42.962 79.8287 42.7585C79.294 42.5551 78.7206 42.4496 78.1413 42.4484Z" fill="#00C4D1"/>
<path d="M87.2684 67.0253C87.0164 67.0253 86.7669 66.98 86.5342 66.892C86.3014 66.8041 86.0899 66.6751 85.9117 66.5126C85.7336 66.35 85.5923 66.157 85.4958 65.9446C85.3994 65.7323 85.3498 65.5046 85.3498 65.2747C85.3498 64.411 85.1633 63.5558 84.8011 62.7578C84.4388 61.9599 83.9079 61.2349 83.2385 60.6241C82.5692 60.0134 81.7746 59.529 80.9 59.1984C80.0255 58.8679 79.0881 58.6978 78.1415 58.6978C77.1949 58.6978 76.2576 58.8679 75.3831 59.1984C74.5085 59.529 73.7139 60.0134 73.0446 60.6241C72.3752 61.2349 71.8442 61.9599 71.482 62.7578C71.1198 63.5558 70.9333 64.411 70.9333 65.2747C70.9532 65.515 70.9184 65.7564 70.8312 65.9839C70.7441 66.2114 70.6064 66.42 70.4268 66.5966C70.2472 66.7733 70.0296 66.9143 69.7875 67.0106C69.5455 67.107 69.2842 67.1568 69.0201 67.1568C68.7561 67.1568 68.4948 67.107 68.2528 67.0106C68.0107 66.9143 67.7931 66.7733 67.6135 66.5966C67.4339 66.42 67.2962 66.2114 67.209 65.9839C67.1219 65.7564 67.0871 65.515 67.107 65.2747C67.1969 62.6578 68.3994 60.1755 70.46 58.3534C72.5206 56.5313 75.2775 55.5124 78.147 55.5124C81.0165 55.5124 83.7734 56.5313 85.834 58.3534C87.8946 60.1755 89.0971 62.6578 89.187 65.2747C89.187 65.739 88.9848 66.1843 88.625 66.5126C88.2652 66.8408 87.7772 67.0253 87.2684 67.0253Z" fill="#00C4D1"/>
<path d="M11.923 53.9802C10.2905 53.99 8.69162 53.557 7.32931 52.7362C5.967 51.9154 4.9027 50.7437 4.2715 49.37C3.64031 47.9963 3.47068 46.4824 3.78416 45.0206C4.09764 43.5588 4.88008 42.2149 6.03217 41.1595C7.18427 40.1041 8.65405 39.3849 10.255 39.0931C11.8559 38.8012 13.5157 38.95 15.0238 39.5205C16.5319 40.0909 17.8202 41.0574 18.7252 42.2971C19.6302 43.5368 20.1111 44.994 20.1068 46.4835C20.1011 48.465 19.2381 50.3644 17.7055 51.7683C16.1729 53.1722 14.0947 53.9672 11.923 53.9802ZM11.923 42.4484C11.0479 42.4346 10.188 42.6587 9.45285 43.0922C8.71769 43.5256 8.14045 44.1488 7.79456 44.8824C7.44868 45.616 7.34979 46.4269 7.51047 47.212C7.67116 47.997 8.08415 48.7207 8.69691 49.291C9.30967 49.8613 10.0945 50.2524 10.9516 50.4145C11.8086 50.5766 12.6992 50.5025 13.5099 50.2015C14.3206 49.9005 15.0149 49.3862 15.5044 48.7242C15.9939 48.0621 16.2565 47.2821 16.2588 46.4835C16.2618 45.4261 15.8087 44.4101 14.9974 43.6551C14.1861 42.9 13.0817 42.4665 11.923 42.4484Z" fill="#00C4D1"/>
<path d="M20.9959 67.0253C20.4871 67.0253 19.9991 66.8408 19.6393 66.5126C19.2795 66.1843 19.0773 65.739 19.0773 65.2747C19.0773 63.5304 18.3179 61.8576 16.9661 60.6241C15.6143 59.3907 13.7808 58.6978 11.8691 58.6978C9.95734 58.6978 8.1239 59.3907 6.77209 60.6241C5.42029 61.8576 4.66085 63.5304 4.66085 65.2747C4.68069 65.515 4.64594 65.7564 4.55879 65.9839C4.47163 66.2114 4.33395 66.42 4.15436 66.5966C3.97476 66.7733 3.75713 66.9143 3.51508 67.0106C3.27303 67.107 3.01178 67.1568 2.74769 67.1568C2.48359 67.1568 2.22234 67.107 1.98029 67.0106C1.73824 66.9143 1.52061 66.7733 1.34101 66.5966C1.16142 66.42 1.02374 66.2114 0.936585 65.9839C0.849431 65.7564 0.814685 65.515 0.834521 65.2747C0.924403 62.6578 2.12693 60.1755 4.18752 58.3534C6.24811 56.5313 9.00499 55.5124 11.8745 55.5124C14.744 55.5124 17.5009 56.5313 19.5615 58.3534C21.6221 60.1755 22.8246 62.6578 22.9145 65.2747C22.9145 65.739 22.7124 66.1843 22.3526 66.5126C21.9927 66.8408 21.5047 67.0253 20.9959 67.0253Z" fill="#00C4D1"/>
</svg>
