<svg xmlns="http://www.w3.org/2000/svg" width="90" height="90" fill="none" xmlns:v="https://vecta.io/nano"><g clip-path="url(#A)"><g fill="#9d3bff"><path d="M45.397 51.785h-4.643c-.902 0-1.767-.285-2.405-.794s-.996-1.198-.996-1.916v-1.127a21.13 21.13 0 0 1-2.843-.94l-.993.8c-.65.5-1.512.765-2.408.765s-1.76-.273-2.41-.763l-3.277-2.62a2.76 2.76 0 0 1-.744-.879c-.173-.33-.26-.683-.262-1.04a2.2 2.2 0 0 1 .26-1.035c.173-.328.426-.625.745-.873l.993-.8a12.71 12.71 0 0 1-1.167-2.265H23.82c-.896-.003-1.754-.286-2.388-.8s-.994-1.186-1-1.9v-3.72c0-.717.357-1.405.992-1.913s1.497-.794 2.397-.797h1.415a13.64 13.64 0 0 1 1.241-2.265l-1.006-.8c-.635-.5-.992-1.2-.993-1.92 0-.357.1-.7.262-1.04a2.76 2.76 0 0 1 .744-.879l3.277-2.6c.647-.496 1.5-.772 2.408-.772s1.76.277 2.408.772l.993.8c.916-.37 1.866-.68 2.843-.93v-1.128c0-.72.358-1.408.996-1.916s1.503-.794 2.405-.794h4.643c.902 0 1.767.285 2.405.794s.996 1.198.996 1.916v1.118a20.93 20.93 0 0 1 2.843.99l.993-.8c.647-.496 1.5-.772 2.408-.772s1.76.277 2.408.772l3.277 2.6c.318.25.57.55.743.88a2.23 2.23 0 0 1 .26 1.04c0 .357-.1.7-.26 1.04s-.425.628-.743.88l-.993.8a13.04 13.04 0 0 1 1.167 2.265h1.428c.892 0 1.747.28 2.383.776s1.002 1.174 1.018 1.884v3.72c0 .72-.358 1.408-.996 1.916s-1.503.794-2.405.794h-1.477c-.333.782-.748 1.54-1.24 2.265l.993.8c.318.25.57.55.743.88a2.23 2.23 0 0 1 .26 1.04c0 .357-.1.7-.26 1.04s-.425.628-.743.88l-3.277 2.62c-.65.5-1.512.765-2.408.765s-1.758-.274-2.408-.765l-.993-.8c-.915.372-1.866.686-2.843.94v1.127c-.006.707-.36 1.384-.983 1.886s-1.47.8-2.356.804zm-4.432-2.898h4.17v-3.185l1.403-.267a17.18 17.18 0 0 0 4.432-1.464l1.24-.603 2.83 2.255 2.955-2.354-2.83-2.255.757-1c.848-1.1 1.468-2.282 1.837-3.53l.335-1.118h3.972v-3.303H58.08l-.323-1.117c-.372-1.244-.992-2.433-1.837-3.52l-.757-1 2.83-2.255-2.955-2.354-2.83 2.255-1.24-.603c-1.37-.672-2.866-1.166-4.432-1.464l-1.378-.267v-3.165h-4.196v3.165l-1.403.267a17.2 17.2 0 0 0-4.432 1.454l-1.24.603-2.83-2.255-2.955 2.354 2.93 2.275-.757 1c-.85 1.085-1.472 2.275-1.837 3.52l-.335 1.118H24.07v3.323h3.997l.323 1.118c.37 1.248 1 2.44 1.837 3.53l.757 1-2.83 2.245 2.954 2.354 2.83-2.255 1.24.603c1.368.675 2.865 1.17 4.432 1.464l1.403.267-.05 3.165zm2.11-6.765c-2.038 0-4.03-.48-5.724-1.383s-3.015-2.184-3.795-3.684-.984-3.15-.586-4.743 1.38-3.055 2.82-4.203 3.277-1.93 5.276-2.247 4.07-.154 5.953.467 3.492 1.673 4.624 3.023 1.736 2.937 1.736 4.56c-.003 2.176-1.1 4.263-3.02 5.802s-4.55 2.405-7.282 2.407zm0-13.52c-1.318 0-2.607.3-3.703.895s-1.95 1.413-2.455 2.384-.636 2.038-.38 3.07.892 1.977 1.824 2.72 2.12 1.25 3.413 1.454 2.634.1 3.852-.302 2.26-1.083 2.992-1.956 1.123-1.9 1.123-2.95c-.003-1.408-.707-2.757-1.956-3.753s-2.943-1.556-4.7-1.558zm30.178-23.4c1.817 0 3.3-1.173 3.3-2.62s-1.473-2.62-3.3-2.62-3.3 1.173-3.3 2.62 1.473 2.62 3.3 2.62z"/></g><path d="M84.017 15.122c3.023 0 5.475-1.953 5.475-4.36S87.04 6.4 84.017 6.4s-5.474 1.953-5.474 4.362 2.45 4.36 5.474 4.36z" fill="#00c4d1"/><path d="M6.592 78.537c2.955 0 5.35-1.91 5.35-4.263s-2.395-4.263-5.35-4.263-5.35 1.908-5.35 4.263 2.395 4.263 5.35 4.263z" fill="#9d3bff"/><g fill="#00c4d1"><path d="M15.865 86.5c1.83 0 3.314-1.182 3.314-2.64s-1.484-2.64-3.314-2.64-3.314 1.182-3.314 2.64 1.484 2.64 3.314 2.64zm38.99-14.965H31.27c-1.277-.007-2.517-.34-3.54-.947s-1.775-1.462-2.145-2.435a1.9 1.9 0 0 1-.124-.584c-.112-4.233-1.093-5.627-3.252-8.693l-2.086-3.046-.186-.307c-1.104-1.73-2.45-3.356-4-4.846-5.8-5.443-8.988-12.36-8.963-19.503 0-16.33 16.2-29.562 36.112-29.562s36.112 13.233 36.112 29.562c.018 7.147-3.17 14.064-8.988 19.503-1.56 1.5-2.905 3.116-4 4.846l-.186.307c-.782 1.187-1.477 2.176-2.086 3.046-2.16 3.066-3.1 4.43-3.252 8.693a1.9 1.9 0 0 1-.124.584c-.37.973-1.123 1.827-2.145 2.435s-2.263.94-3.54.947zm-24.207-4.4a.69.69 0 0 0 .27.227.93.93 0 0 0 .376.09H54.88c.133-.003.263-.034.376-.1a.69.69 0 0 0 .27-.227c.2-4.945 1.688-7.1 3.898-10.236.596-.84 1.24-1.8 2-2.967l.2-.297c1.28-2.015 2.846-3.907 4.668-5.637 5.016-4.7 7.763-10.652 7.746-16.813 0-14.024-13.88-25.437-30.935-25.437S12.14 17.14 12.14 31.164c-.017 6.16 2.73 12.124 7.746 16.813 1.822 1.73 3.388 3.622 4.668 5.637l.2.297c.732 1.137 1.403 2.087 2 2.967 2.2 3.115 3.687 5.222 3.898 10.207v.05z"/></g><g fill="#9d3bff"><path d="M56.892 77.48H29.26c-.685 0-1.34-.217-1.826-.603s-.756-.9-.756-1.455.272-1.07.756-1.455 1.14-.602 1.826-.602h27.633c.685 0 1.342.217 1.826.602s.756.9.756 1.455-.272 1.07-.756 1.455-1.14.603-1.826.603zm-1.204 5.745H30.463c-.655-.036-1.27-.27-1.718-.652s-.698-.887-.698-1.4.25-1.028.698-1.4 1.062-.616 1.718-.652h25.225c.655.036 1.27.27 1.718.652s.697.887.697 1.4-.25 1.027-.697 1.4-1.062.616-1.718.652zM55.08 89H31.034c-.685 0-1.34-.217-1.826-.602s-.756-.9-.756-1.455.272-1.07.756-1.455 1.14-.603 1.826-.603H55.08c.685 0 1.342.217 1.826.603s.756.9.756 1.455-.272 1.07-.756 1.455-1.14.602-1.826.602z"/></g></g><defs><clipPath id="A"><path fill="#fff" d="M0 0h90v90H0z"/></clipPath></defs></svg>