<svg xmlns="http://www.w3.org/2000/svg" xmlns:xlink="http://www.w3.org/1999/xlink" width="90" height="90" fill="none" xmlns:v="https://vecta.io/nano"><path d="M87.354 12.6c1.107 0 2.004-.925 2.004-2.067s-.897-2.067-2.004-2.067-2.004.925-2.004 2.067.897 2.067 2.004 2.067z" fill="#00c4d1"/><path d="M79.483 7.507c1.938 0 3.5-1.62 3.5-3.62s-1.57-3.62-3.5-3.62-3.5 1.62-3.5 3.62 1.57 3.62 3.5 3.62zM2.885 82.513c1.403 0 2.54-1.173 2.54-2.62s-1.137-2.62-2.54-2.62-2.54 1.173-2.54 2.62 1.137 2.62 2.54 2.62z" fill="#9d3bff"/><path d="M13.355 89.268c2.34 0 4.237-1.957 4.237-4.37s-1.897-4.37-4.237-4.37-4.237 1.957-4.237 4.37 1.897 4.37 4.237 4.37z" fill="#00c4d1"/><g fill="#9d3bff"><path d="M33.438 60.785c-5.1 0-9.232-5.4-9.232-12.007V37.434c-.018-.25.014-.5.095-.736a1.83 1.83 0 0 1 .372-.636c.165-.183.365-.33.588-.43a1.72 1.72 0 0 1 .705-.152c.243 0 .483.052.705.152a1.76 1.76 0 0 1 .587.43 1.83 1.83 0 0 1 .372.636c.08.236.113.487.095.736v11.344c0 4.53 2.617 8.367 5.752 8.367s5.752-3.837 5.752-8.367V37.434c-.018-.25.014-.5.095-.736a1.83 1.83 0 0 1 .372-.636c.165-.183.365-.33.587-.43s.462-.152.705-.152.483.052.705.152a1.76 1.76 0 0 1 .587.43 1.83 1.83 0 0 1 .372.636c.08.236.112.487.095.736v11.344c-.077 6.607-4.218 12.007-9.3 12.007zm29.144-.365a1.72 1.72 0 0 1-.795-.197 1.78 1.78 0 0 1-.624-.545L46.218 38.57a1.87 1.87 0 0 1-.314-1.363 1.84 1.84 0 0 1 .712-1.193c.38-.285.857-.4 1.322-.324a1.76 1.76 0 0 1 1.157.735L64 57.53c.195.27.312.592.34.928a1.86 1.86 0 0 1-.186.973 1.79 1.79 0 0 1-.655.726c-.28.174-.6.265-.927.26z"/><path d="M47.636 60.42c-.326.002-.646-.1-.924-.265a1.79 1.79 0 0 1-.651-.726 1.86 1.86 0 0 1-.183-.971c.027-.335.145-.655.34-.925l14.946-21.086c.276-.393.692-.658 1.157-.735s.94.04 1.322.324a1.84 1.84 0 0 1 .712 1.193c.075.48-.038.97-.314 1.363L49.065 59.677a1.78 1.78 0 0 1-.628.547 1.72 1.72 0 0 1-.8.194z"/></g><g fill="#00c4d1"><use xlink:href="#B"/><use xlink:href="#B" x="6.663"/><use xlink:href="#B" x="13.316"/></g><path d="M33.055 30.52H6.528a1.35 1.35 0 0 1-.969-.414c-.257-.265-.402-.625-.402-1s.144-.735.402-1a1.35 1.35 0 0 1 .969-.414h26.526c.42-.001.832-.124 1.188-.355a2.29 2.29 0 0 0 .825-.951l5.675-12.036c.074-.174.182-.33.316-.462s.293-.23.466-.297.357-.095.542-.085a1.34 1.34 0 0 1 .531.141c.166.083.314.2.435.344s.213.31.27.492a1.46 1.46 0 0 1 .061.562 1.45 1.45 0 0 1-.157.542L37.54 27.623a5.13 5.13 0 0 1-1.843 2.108 4.91 4.91 0 0 1-2.643.79z" fill="#9d3bff"/><path d="M74.508 75.768H14.045c-2.524-.003-4.944-1.038-6.73-2.88s-2.788-4.338-2.79-6.942V22.164c.003-2.604 1.006-5.1 2.79-6.94s4.205-2.877 6.73-2.88h60.463c2.524.003 4.944 1.038 6.73 2.88s2.788 4.338 2.79 6.94v43.784c-.003 2.604-1.006 5.1-2.79 6.942s-4.205 2.877-6.73 2.88zm-60.463-59.34a5.53 5.53 0 0 0-3.946 1.68c-1.05 1.074-1.647 2.53-1.662 4.056v43.784a5.89 5.89 0 0 0 1.645 4.088c1.05 1.084 2.476 1.695 3.963 1.698h60.463c1.486-.003 2.9-.613 3.96-1.698a5.88 5.88 0 0 0 1.639-4.088V22.164a5.88 5.88 0 0 0-1.639-4.088c-1.05-1.085-2.474-1.695-3.96-1.698l-60.463.05z" fill="#00c4d1"/><defs ><path id="B" d="M14.754 24.053c1.08 0 1.956-.903 1.956-2.018s-.876-2.018-1.956-2.018-1.956.903-1.956 2.018.876 2.018 1.956 2.018z"/></defs></svg>