<svg width="90" height="90" viewBox="0 0 90 90" fill="none" xmlns="http://www.w3.org/2000/svg">
<path d="M45.8698 43.8231C44.4238 43.8231 43.0102 43.4524 41.8079 42.758C40.6056 42.0636 39.6685 41.0766 39.1151 39.9218C38.5618 38.767 38.417 37.4963 38.6991 36.2704C38.9812 35.0445 39.6775 33.9184 40.7 33.0346C41.7225 32.1507 43.0252 31.5488 44.4435 31.305C45.8617 31.0611 47.3317 31.1863 48.6677 31.6646C50.0036 32.1429 51.1455 32.953 51.9489 33.9922C52.7522 35.0315 53.181 36.2534 53.181 37.5033C53.178 39.1786 52.4067 40.7846 51.0363 41.9692C49.6658 43.1538 47.8079 43.8205 45.8698 43.8231V43.8231ZM45.8698 34.1209C45.0954 34.1189 44.3377 34.3157 43.6927 34.6861C43.0477 35.0566 42.5444 35.5842 42.2465 36.2021C41.9486 36.8199 41.8694 37.5003 42.0191 38.1571C42.1688 38.8139 42.5406 39.4175 43.0874 39.8915C43.6342 40.3656 44.3314 40.6887 45.0908 40.82C45.8501 40.9513 46.6375 40.8849 47.3532 40.6292C48.0688 40.3735 48.6807 39.94 49.1111 39.3835C49.5416 38.8271 49.7714 38.1727 49.7714 37.5033C49.7714 36.608 49.3607 35.7491 48.6294 35.1151C47.898 34.481 46.9056 34.1235 45.8698 34.1209Z" fill="#00C4D1"/>
<path d="M53.9706 54.7912C53.5205 54.7912 53.0886 54.6373 52.7692 54.3631C52.4498 54.0888 52.2689 53.7166 52.2658 53.3274C52.3023 52.5811 52.1638 51.8361 51.8586 51.1372C51.5533 50.4383 51.0876 49.8001 50.4896 49.2608C49.8916 48.7215 49.1735 48.2924 48.3786 47.9993C47.5837 47.7061 46.7284 47.555 45.8642 47.555C45 47.555 44.1447 47.7061 43.3498 47.9993C42.555 48.2924 41.8369 48.7215 41.2389 49.2608C40.6408 49.8001 40.1752 50.4383 39.8699 51.1372C39.5647 51.8361 39.4261 52.5811 39.4626 53.3274C39.4626 53.7209 39.2818 54.0982 38.96 54.3764C38.6381 54.6547 38.2016 54.811 37.7464 54.811C37.2912 54.811 36.8547 54.6547 36.5328 54.3764C36.211 54.0982 36.0301 53.7209 36.0301 53.3274C35.9852 52.1907 36.2054 51.0577 36.6777 49.9961C37.1499 48.9344 37.8645 47.9658 38.779 47.1479C39.6934 46.33 40.7889 45.6795 42.0003 45.2353C43.2116 44.7911 44.514 44.5621 45.8299 44.5621C47.1458 44.5621 48.4482 44.7911 49.6595 45.2353C50.8709 45.6795 51.9664 46.33 52.8808 47.1479C53.7953 47.9658 54.5099 48.9344 54.9822 49.9961C55.4544 51.0577 55.6746 52.1907 55.6297 53.3274C55.6298 53.7106 55.4561 54.0784 55.1459 54.3521C54.8357 54.6258 54.4138 54.7834 53.9706 54.7912V54.7912Z" fill="#00C4D1"/>
<path d="M45.8698 12.956C44.4238 12.956 43.0102 12.5854 41.8079 11.891C40.6056 11.1965 39.6685 10.2095 39.1151 9.05473C38.5618 7.89994 38.417 6.62924 38.6991 5.40332C38.9812 4.1774 39.6775 3.05133 40.7 2.16749C41.7225 1.28365 43.0252 0.681753 44.4435 0.437903C45.8617 0.194053 47.3317 0.319206 48.6677 0.797535C50.0036 1.27586 51.1455 2.08589 51.9489 3.12517C52.7522 4.16445 53.181 5.38632 53.181 6.63625C53.181 7.46618 52.9919 8.28797 52.6245 9.05473C52.2571 9.82148 51.7185 10.5182 51.0396 11.105C50.3607 11.6919 49.5547 12.1574 48.6677 12.475C47.7807 12.7926 46.8299 12.956 45.8698 12.956V12.956ZM45.8698 3.26372C45.0949 3.26177 44.3368 3.45873 43.6915 3.82964C43.0463 4.20055 42.543 4.72871 42.2454 5.34717C41.9478 5.96563 41.8694 6.64654 42.02 7.30358C42.1706 7.96063 42.5435 8.56422 43.0914 9.03786C43.6394 9.51149 44.3377 9.83384 45.0978 9.96403C45.8579 10.0942 46.6456 10.0264 47.3611 9.76918C48.0766 9.51195 48.6876 9.07688 49.1167 8.51913C49.5458 7.96138 49.7737 7.30607 49.7714 6.63625C49.7684 5.7426 49.3564 4.8863 48.6253 4.2544C47.8943 3.62249 46.9036 3.26633 45.8698 3.26372V3.26372Z" fill="#9D3BFF"/>
<path d="M53.9706 23.9341C53.5185 23.9341 53.0849 23.7788 52.7652 23.5025C52.4454 23.2261 52.2658 22.8513 52.2658 22.4604C52.3023 21.7141 52.1638 20.9691 51.8586 20.2702C51.5533 19.5713 51.0876 18.9331 50.4896 18.3938C49.8916 17.8545 49.1735 17.4254 48.3786 17.1323C47.5837 16.8391 46.7284 16.688 45.8642 16.688C45 16.688 44.1447 16.8391 43.3498 17.1323C42.555 17.4254 41.8369 17.8545 41.2389 18.3938C40.6408 18.9331 40.1752 19.5713 39.8699 20.2702C39.5647 20.9691 39.4261 21.7141 39.4626 22.4604C39.4626 22.8539 39.2818 23.2312 38.96 23.5094C38.6381 23.7877 38.2016 23.944 37.7464 23.944C37.2912 23.944 36.8547 23.7877 36.5328 23.5094C36.211 23.2312 36.0301 22.8539 36.0301 22.4604C35.9852 21.3237 36.2054 20.1907 36.6777 19.1291C37.1499 18.0674 37.8645 17.0988 38.779 16.2809C39.6934 15.463 40.7889 14.8125 42.0003 14.3683C43.2116 13.9241 44.514 13.6951 45.8299 13.6951C47.1458 13.6951 48.4482 13.9241 49.6595 14.3683C50.8709 14.8125 51.9664 15.463 52.8808 16.2809C53.7953 17.0988 54.5099 18.0674 54.9822 19.1291C55.4544 20.1907 55.6746 21.3237 55.6297 22.4604C55.6298 22.8445 55.4565 23.2135 55.1466 23.4887C54.8368 23.764 54.4148 23.9238 53.9706 23.9341V23.9341Z" fill="#9D3BFF"/>
<path d="M45.8698 78.3594C44.4238 78.3594 43.0102 77.9887 41.8079 77.2943C40.6056 76.5999 39.6685 75.6128 39.1151 74.458C38.5618 73.3033 38.417 72.0326 38.6991 70.8066C38.9812 69.5807 39.6775 68.4546 40.7 67.5708C41.7225 66.687 43.0252 66.0851 44.4435 65.8412C45.8617 65.5974 47.3317 65.7225 48.6677 66.2009C50.0036 66.6792 51.1455 67.4892 51.9489 68.5285C52.7522 69.5678 53.181 70.7896 53.181 72.0396C53.178 73.7149 52.4067 75.3208 51.0363 76.5054C49.6658 77.6901 47.8079 78.3567 45.8698 78.3594V78.3594ZM45.8698 68.6572C45.0954 68.6552 44.3377 68.8519 43.6927 69.2224C43.0477 69.5929 42.5444 70.1204 42.2465 70.7383C41.9486 71.3562 41.8694 72.0366 42.0191 72.6934C42.1688 73.3501 42.5406 73.9538 43.0874 74.4278C43.6342 74.9018 44.3314 75.2249 45.0908 75.3563C45.8501 75.4876 46.6375 75.4212 47.3532 75.1655C48.0688 74.9097 48.6807 74.4762 49.1111 73.9198C49.5416 73.3633 49.7714 72.709 49.7714 72.0396C49.7714 71.1442 49.3607 70.2854 48.6294 69.6513C47.898 69.0173 46.9056 68.6598 45.8698 68.6572V68.6572Z" fill="#9D3BFF"/>
<path d="M53.9706 89.3275C53.5205 89.3275 53.0886 89.1736 52.7692 88.8994C52.4498 88.6252 52.2689 88.2529 52.2658 87.8638C52.3023 87.1174 52.1638 86.3724 51.8586 85.6735C51.5533 84.9746 51.0876 84.3364 50.4896 83.7971C49.8916 83.2578 49.1735 82.8287 48.3786 82.5356C47.5837 82.2424 46.7284 82.0913 45.8642 82.0913C45 82.0913 44.1447 82.2424 43.3498 82.5356C42.555 82.8287 41.8369 83.2578 41.2389 83.7971C40.6408 84.3364 40.1752 84.9746 39.8699 85.6735C39.5647 86.3724 39.4261 87.1174 39.4626 87.8638C39.4626 88.2572 39.2818 88.6345 38.96 88.9128C38.6381 89.191 38.2016 89.3473 37.7464 89.3473C37.2912 89.3473 36.8547 89.191 36.5328 88.9128C36.211 88.6345 36.0301 88.2572 36.0301 87.8638C35.9852 86.727 36.2054 85.594 36.6777 84.5324C37.1499 83.4707 37.8645 82.5021 38.779 81.6842C39.6934 80.8663 40.7889 80.2159 42.0003 79.7716C43.2116 79.3274 44.514 79.0984 45.8299 79.0984C47.1458 79.0984 48.4482 79.3274 49.6595 79.7716C50.8709 80.2159 51.9664 80.8663 52.8808 81.6842C53.7953 82.5021 54.5099 83.4707 54.9822 84.5324C55.4544 85.594 55.6746 86.727 55.6297 87.8638C55.6298 88.2469 55.4561 88.6148 55.1459 88.8884C54.8357 89.1621 54.4138 89.3197 53.9706 89.3275Z" fill="#9D3BFF"/>
<path d="M79.863 45.2868C78.417 45.2868 77.0034 44.9162 75.8011 44.2218C74.5988 43.5273 73.6617 42.5403 73.1083 41.3855C72.5549 40.2307 72.4101 38.96 72.6922 37.7341C72.9743 36.5082 73.6707 35.3821 74.6932 34.4983C75.7157 33.6145 77.0184 33.0126 78.4366 32.7687C79.8549 32.5249 81.3249 32.65 82.6609 33.1283C83.9968 33.6067 85.1387 34.4167 85.942 35.456C86.7454 36.4953 87.1742 37.7171 87.1742 38.9671C87.1742 40.6432 86.4039 42.2506 85.0328 43.4358C83.6617 44.621 81.802 45.2868 79.863 45.2868V45.2868ZM79.863 35.5945C79.0886 35.5945 78.3316 35.7932 77.6878 36.1653C77.0441 36.5374 76.5425 37.0662 76.2467 37.6848C75.9509 38.3035 75.8741 38.9841 76.026 39.6405C76.1779 40.2969 76.5517 40.8995 77.1001 41.3722C77.6485 41.8448 78.3468 42.1662 79.1066 42.2956C79.8664 42.425 80.6536 42.3566 81.3684 42.099C82.0832 41.8415 82.6935 41.4065 83.1221 40.8489C83.5507 40.2914 83.7783 39.6365 83.776 38.9671C83.7745 38.5242 83.6721 38.0859 83.4746 37.6772C83.2772 37.2685 82.9885 36.8975 82.6252 36.5852C82.2618 36.273 81.8309 36.0256 81.3569 35.8574C80.883 35.6891 80.3753 35.6031 79.863 35.6044V35.5945Z" fill="#9D3BFF"/>
<path d="M87.9745 56.2648C87.5224 56.2648 87.0888 56.1096 86.7691 55.8332C86.4493 55.5568 86.2697 55.182 86.2697 54.7912C86.1999 53.3641 85.4949 52.0155 84.3021 51.027C83.1092 50.0386 81.5206 49.4867 79.8681 49.4867C78.2157 49.4867 76.6271 50.0386 75.4342 51.027C74.2413 52.0155 73.5363 53.3641 73.4665 54.7912C73.4665 55.1846 73.2857 55.562 72.9639 55.8402C72.642 56.1184 72.2055 56.2747 71.7503 56.2747C71.2951 56.2747 70.8586 56.1184 70.5367 55.8402C70.2149 55.562 70.034 55.1846 70.034 54.7912C69.9891 53.6544 70.2093 52.5215 70.6816 51.4598C71.1538 50.3982 71.8684 49.4295 72.7829 48.6116C73.6973 47.7937 74.7928 47.1433 76.0042 46.699C77.2155 46.2548 78.5179 46.0259 79.8338 46.0259C81.1497 46.0259 82.4521 46.2548 83.6634 46.699C84.8748 47.1433 85.9703 47.7937 86.8848 48.6116C87.7992 49.4295 88.5138 50.3982 88.9861 51.4598C89.4583 52.5215 89.6785 53.6544 89.6336 54.7912C89.6337 55.1753 89.4604 55.5442 89.1505 55.8195C88.8407 56.0947 88.4187 56.2545 87.9745 56.2648V56.2648Z" fill="#9D3BFF"/>
<path d="M10.1598 45.2868C8.71383 45.2868 7.30028 44.9162 6.09796 44.2218C4.89563 43.5273 3.95854 42.5403 3.40517 41.3855C2.8518 40.2307 2.70701 38.96 2.98912 37.7341C3.27122 36.5082 3.96755 35.3821 4.99004 34.4983C6.01253 33.6145 7.31527 33.0126 8.7335 32.7687C10.1517 32.5249 11.6218 32.65 12.9577 33.1283C14.2937 33.6067 15.4355 34.4167 16.2389 35.456C17.0423 36.4953 17.4711 37.7171 17.4711 38.9671C17.468 40.6424 16.6968 42.2483 15.3263 43.4329C13.9559 44.6176 12.098 45.2842 10.1598 45.2868V45.2868ZM10.1598 35.5945C9.38544 35.5945 8.62844 35.7932 7.98469 36.1653C7.34095 36.5374 6.83942 37.0662 6.54359 37.6848C6.24776 38.3035 6.17094 38.9841 6.32285 39.6405C6.47477 40.2969 6.84859 40.8995 7.39698 41.3722C7.94537 41.8448 8.64368 42.1662 9.40349 42.2956C10.1633 42.425 10.9504 42.3566 11.6653 42.099C12.3801 41.8415 12.9904 41.4065 13.419 40.8489C13.8476 40.2914 14.0752 39.6365 14.0729 38.9671C14.0668 38.0734 13.6519 37.2182 12.9187 36.5881C12.1855 35.9581 11.1937 35.6044 10.1598 35.6044V35.5945Z" fill="#9D3BFF"/>
<path d="M18.3067 56.2648C17.8566 56.2622 17.4259 56.1058 17.1086 55.8297C16.7914 55.5536 16.6133 55.1803 16.6134 54.7912C16.6134 53.3223 15.9383 51.9136 14.7367 50.8749C13.5351 49.8362 11.9054 49.2527 10.206 49.2527C8.5067 49.2527 6.87697 49.8362 5.67537 50.8749C4.47376 51.9136 3.7987 53.3223 3.7987 54.7912C3.7987 54.986 3.75431 55.1789 3.66806 55.3589C3.58181 55.5389 3.4554 55.7024 3.29603 55.8402C3.13666 55.978 2.94746 56.0872 2.73924 56.1618C2.53101 56.2363 2.30784 56.2747 2.08246 56.2747C1.85708 56.2747 1.6339 56.2363 1.42568 56.1618C1.21745 56.0872 1.02826 55.978 0.868888 55.8402C0.70952 55.7024 0.583102 55.5389 0.496852 55.3589C0.410603 55.1789 0.366211 54.986 0.366211 54.7912C0.366211 52.5433 1.39929 50.3874 3.23817 48.7979C5.07706 47.2084 7.57112 46.3154 10.1717 46.3154C12.7723 46.3154 15.2663 47.2084 17.1052 48.7979C18.9441 50.3874 19.9772 52.5433 19.9772 54.7912C19.9773 55.1769 19.8024 55.5473 19.4901 55.8229C19.1777 56.0984 18.7529 56.2571 18.3067 56.2648V56.2648Z" fill="#9D3BFF"/>
<path d="M16.11 31.1835C15.8832 31.1823 15.6589 31.1419 15.4504 31.0648C15.2418 30.9877 15.0532 30.8754 14.8955 30.7345C14.7378 30.5936 14.6142 30.4269 14.532 30.2441C14.4498 30.0614 14.4105 29.8663 14.4166 29.6703C14.4318 26.5619 15.8701 23.585 18.4173 21.3907C20.9645 19.1963 24.4131 17.963 28.0093 17.9604C28.4645 17.9604 28.901 18.1167 29.2229 18.395C29.5447 18.6732 29.7256 19.0505 29.7256 19.444C29.7256 19.8374 29.5447 20.2148 29.2229 20.493C28.901 20.7712 28.4645 20.9275 28.0093 20.9275C25.3203 20.93 22.7411 21.8497 20.8322 23.4868C18.9233 25.1239 17.8389 27.3461 17.8148 29.6703C17.8209 29.8672 17.7813 30.063 17.6984 30.2464C17.6155 30.4298 17.4909 30.597 17.3319 30.738C17.173 30.8791 16.983 30.9912 16.7731 31.0677C16.5633 31.1442 16.3378 31.1836 16.11 31.1835V31.1835Z" fill="#00C4D1"/>
<path d="M26.3159 24.567C26.0062 24.5659 25.7024 24.4943 25.4349 24.3593C25.061 24.1585 24.7915 23.8405 24.6828 23.4718C24.574 23.1031 24.6344 22.7123 24.8514 22.3813L26.7164 19.6912L24.2564 17.5253C23.9378 17.2498 23.7588 16.8763 23.7588 16.4868C23.7588 16.0973 23.9378 15.7238 24.2564 15.4483C24.575 15.1729 25.0072 15.0182 25.4578 15.0182C25.9084 15.0182 26.3405 15.1729 26.6592 15.4483L30.0917 18.4154C30.358 18.6491 30.5271 18.9526 30.5727 19.2783C30.6182 19.6039 30.5376 19.9335 30.3434 20.2154L27.7919 23.8846C27.6345 24.0985 27.416 24.2736 27.1575 24.3932C26.8989 24.5127 26.6091 24.5726 26.3159 24.567V24.567Z" fill="#00C4D1"/>
<path d="M74.3711 29.3439C74.1478 29.3452 73.9264 29.3083 73.7196 29.2354C73.5128 29.1624 73.3248 29.0548 73.1663 28.9187C73.0079 28.7827 72.8821 28.6209 72.7963 28.4426C72.7105 28.2644 72.6663 28.0733 72.6663 27.8802C72.6633 25.5413 71.5871 23.2989 69.6737 21.645C67.7604 19.9911 65.1662 19.0608 62.4604 19.0582C62.0052 19.0582 61.5687 18.9019 61.2468 18.6237C60.925 18.3455 60.7441 17.9682 60.7441 17.5747C60.7441 17.1812 60.925 16.8039 61.2468 16.5257C61.5687 16.2475 62.0052 16.0912 62.4604 16.0912C66.0695 16.099 69.5273 17.3452 72.0739 19.5558C74.6206 21.7664 76.0477 24.7605 76.0416 27.8802C76.0417 28.265 75.8664 28.6343 75.5538 28.9083C75.2411 29.1822 74.8163 29.3387 74.3711 29.3439V29.3439Z" fill="#00C4D1"/>
<path d="M74.3709 30.0758C74.061 30.0761 73.7567 30.0044 73.4899 29.8681L69.2222 27.6923C69.0291 27.5949 68.8601 27.4655 68.7248 27.3117C68.5896 27.1578 68.4907 26.9824 68.4339 26.7956C68.377 26.6087 68.3633 26.4139 68.3936 26.2225C68.4238 26.031 68.4973 25.8465 68.61 25.6796C68.7227 25.5128 68.8723 25.3667 69.0503 25.2498C69.2283 25.1329 69.4312 25.0474 69.6474 24.9983C69.8637 24.9491 70.0889 24.9373 70.3104 24.9634C70.532 24.9895 70.7453 25.0531 70.9384 25.1505L74.0505 26.7626L76.5105 24.6362C76.8276 24.3569 77.2601 24.1979 77.7129 24.1942C78.1656 24.1904 78.6015 24.3424 78.9247 24.6165C79.2479 24.8906 79.4318 25.2644 79.4361 25.6558C79.4404 26.0471 79.2647 26.4239 78.9476 26.7033L75.5151 29.6703C75.2065 29.9253 74.7978 30.0701 74.3709 30.0758V30.0758Z" fill="#00C4D1"/>
<path d="M65.8471 73.8C65.6217 73.8 65.3986 73.7616 65.1903 73.6871C64.9821 73.6125 64.7929 73.5032 64.6335 73.3655C64.4742 73.2277 64.3478 73.0642 64.2615 72.8842C64.1753 72.7042 64.1309 72.5113 64.1309 72.3165C64.1309 72.1217 64.1753 71.9288 64.2615 71.7488C64.3478 71.5688 64.4742 71.4052 64.6335 71.2675C64.7929 71.1297 64.9821 71.0204 65.1903 70.9459C65.3986 70.8713 65.6217 70.833 65.8471 70.833C68.551 70.8277 71.1422 69.8963 73.0531 68.2427C74.9639 66.5891 76.0386 64.3482 76.0416 62.011C76.0416 61.6175 76.2224 61.2402 76.5443 60.962C76.8661 60.6838 77.3027 60.5275 77.7579 60.5275C78.213 60.5275 78.6496 60.6838 78.9714 60.962C79.2933 61.2402 79.4741 61.6175 79.4741 62.011C79.4771 63.559 79.1268 65.0924 78.4432 66.5232C77.7596 67.9541 76.7561 69.2543 75.4903 70.3494C74.2244 71.4445 72.7211 72.313 71.0664 72.9051C69.4116 73.4972 67.638 73.8013 65.8471 73.8V73.8Z" fill="#00C4D1"/>
<path d="M68.387 76.7373C68.1643 76.7382 67.9435 76.7011 67.7373 76.6282C67.5312 76.5552 67.3437 76.4478 67.1857 76.3121L63.7532 73.345C63.4869 73.1113 63.3177 72.8078 63.2722 72.4821C63.2266 72.1564 63.3073 71.8269 63.5015 71.545L66.0529 67.8758C66.2812 67.5487 66.6493 67.3124 67.0775 67.2181C67.5057 67.1237 67.9597 67.1788 68.3413 67.3714C68.7151 67.5722 68.9847 67.8902 69.0934 68.2589C69.2022 68.6276 69.1418 69.0184 68.9248 69.3494L67.0484 72.0395L69.5198 74.1659C69.7589 74.3712 69.9218 74.6336 69.9874 74.9194C70.0531 75.2051 70.0186 75.5014 69.8883 75.7701C69.7581 76.0388 69.538 76.2678 69.2563 76.4278C68.9745 76.5878 68.644 76.6715 68.3069 76.6681L68.387 76.7373Z" fill="#00C4D1"/>
<path d="M31.4071 75.6396C27.802 75.6343 24.3464 74.3934 21.7983 72.189C19.2502 69.9845 17.8175 66.9965 17.8145 63.8802C17.8145 63.4868 17.9953 63.1095 18.3171 62.8312C18.639 62.553 19.0755 62.3967 19.5307 62.3967C19.9859 62.3967 20.4224 62.553 20.7443 62.8312C21.0661 63.1095 21.2469 63.4868 21.2469 63.8802C21.25 66.2175 22.3246 68.4584 24.2355 70.1119C26.1464 71.7655 28.7376 72.697 31.4415 72.7022C31.8966 72.7022 32.3332 72.8585 32.655 73.1367C32.9769 73.4149 33.1577 73.7923 33.1577 74.1857C33.1577 74.5792 32.9769 74.9565 32.655 75.2347C32.3332 75.513 31.8966 75.6693 31.4415 75.6693L31.4071 75.6396Z" fill="#00C4D1"/>
<path d="M16.11 67.5593C15.7711 67.5638 15.4383 67.4809 15.1542 67.3212C14.8701 67.1615 14.6475 66.9321 14.5148 66.6625C14.3822 66.3929 14.3456 66.0952 14.4096 65.8075C14.4736 65.5198 14.6354 65.2551 14.8743 65.0472L18.3068 62.0802C18.5759 61.8485 18.9263 61.7004 19.3031 61.6592C19.6799 61.6181 20.0619 61.6861 20.3892 61.8527L24.6341 64.0582C24.8279 64.1576 24.9972 64.289 25.1323 64.4449C25.2674 64.6008 25.3656 64.7782 25.4214 64.9669C25.4772 65.1556 25.4894 65.352 25.4574 65.5448C25.4253 65.7376 25.3497 65.9231 25.2348 66.0906C25.1198 66.2582 24.9678 66.4045 24.7874 66.5213C24.6071 66.6381 24.4019 66.723 24.1835 66.7712C23.9652 66.8194 23.738 66.83 23.515 66.8023C23.2919 66.7746 23.0773 66.7092 22.8835 66.6099L19.7714 64.9978L17.3114 67.1242C16.9934 67.401 16.5613 67.5574 16.11 67.5593Z" fill="#00C4D1"/>
<path d="M13.4672 85.6384C16.2855 85.6384 18.5702 83.6636 18.5702 81.2275C18.5702 78.7913 16.2855 76.8165 13.4672 76.8165C10.6489 76.8165 8.36426 78.7913 8.36426 81.2275C8.36426 83.6636 10.6489 85.6384 13.4672 85.6384Z" fill="#9D3BFF"/>
<path d="M80.572 20.2846C81.9811 20.2846 83.1235 19.2972 83.1235 18.0791C83.1235 16.861 81.9811 15.8736 80.572 15.8736C79.1628 15.8736 78.0205 16.861 78.0205 18.0791C78.0205 19.2972 79.1628 20.2846 80.572 20.2846Z" fill="#9D3BFF"/>
<path d="M70.103 12.8275C72.9213 12.8275 75.2059 10.8526 75.2059 8.41648C75.2059 5.98036 72.9213 4.00549 70.103 4.00549C67.2847 4.00549 65 5.98036 65 8.41648C65 10.8526 67.2847 12.8275 70.103 12.8275Z" fill="#00C4D1"/>
<path d="M5.58371 75.4121C6.99286 75.4121 8.1352 74.4246 8.1352 73.2066C8.1352 71.9885 6.99286 71.0011 5.58371 71.0011C4.17457 71.0011 3.03223 71.9885 3.03223 73.2066C3.03223 74.4246 4.17457 75.4121 5.58371 75.4121Z" fill="#00C4D1"/>
</svg>
