<svg xmlns="http://www.w3.org/2000/svg" xmlns:xlink="http://www.w3.org/1999/xlink" width="90" height="90" fill="none" xmlns:v="https://vecta.io/nano"><g clip-path="url(#A)"><path d="M8.453 86.786c1.154 0 2.09-.956 2.09-2.136s-.935-2.136-2.09-2.136-2.09.956-2.09 2.136.935 2.136 2.09 2.136z" fill="#9d3bff"/><path d="M4.372 79.477c1.923 0 3.482-1.594 3.482-3.56s-1.56-3.56-3.482-3.56S.9 73.95.9 75.917s1.56 3.56 3.482 3.56z" fill="#00c4d1"/><path d="M74.61 22.846c2.853 0 5.165-2.364 5.165-5.28s-2.312-5.28-5.165-5.28-5.165 2.364-5.165 5.28 2.312 5.28 5.165 5.28z" fill="#9d3bff"/><g fill="#00c4d1"><path d="M64.33 13.243c1.426 0 2.582-1.182 2.582-2.64s-1.156-2.64-2.582-2.64-2.582 1.182-2.582 2.64 1.156 2.64 2.582 2.64zM88.308 90H23.33a1.7 1.7 0 0 1-1-.332 1.78 1.78 0 0 1-.63-.86 1.82 1.82 0 0 1-.031-1.075c.098-.353.3-.667.58-.897l64.8-53.406a1.72 1.72 0 0 1 .887-.384 1.7 1.7 0 0 1 .95.157c.3.15.533.38.703.662a1.84 1.84 0 0 1 .264.94l.222 53.407a1.84 1.84 0 0 1-.503 1.266 1.75 1.75 0 0 1-.582.394 1.56 1.56 0 0 1-.686.13zm-60.045-3.56h58.294l-.203-47.868-58.1 47.868z"/></g><path d="M79.254 80.03h-26.53c-.356.002-.704-.107-.997-.313s-.518-.5-.643-.84a1.82 1.82 0 0 1-.058-1.065c.087-.353.278-.67.547-.908l26.444-23.5c.252-.225.563-.372.894-.422s.67-.002.975.138a1.76 1.76 0 0 1 .748.655 1.82 1.82 0 0 1 .284.964l.087 23.5a1.84 1.84 0 0 1-.503 1.266 1.75 1.75 0 0 1-.573.39 1.72 1.72 0 0 1-.675.134zm-21.88-3.56h20.128l-.068-17.802-20.06 17.802z" fill="#9d3bff"/><path d="M24.936 69.35h-6.964a1.73 1.73 0 0 1-1.228-.524 1.81 1.81 0 0 1-.513-1.256V35.525a1.81 1.81 0 0 1 .513-1.256 1.73 1.73 0 0 1 1.228-.524h6.964a1.73 1.73 0 0 1 1.228.524 1.81 1.81 0 0 1 .513 1.256V67.57a1.81 1.81 0 0 1-.513 1.256 1.73 1.73 0 0 1-1.228.524zm-5.223-3.56h3.5V37.306h-3.482l-.02 28.484z" fill="#00c4d1"/><g fill="#9d3bff"><path d="M38.166 37.306H16.578a1.73 1.73 0 0 1-1.228-.524 1.81 1.81 0 0 1-.513-1.256V13.45a1.81 1.81 0 0 1 .513-1.256 1.73 1.73 0 0 1 1.228-.524H23.9c.815-2.623 2.306-4.973 4.316-6.803a14.84 14.84 0 0 1 7.11-3.595 14.66 14.66 0 0 1 7.907.623A14.98 14.98 0 0 1 49.72 6.56c1.713 2.123 2.834 4.68 3.247 7.4a15.63 15.63 0 0 1-.905 8.057C51.058 24.57 49.4 26.8 47.26 28.47s-4.68 2.72-7.352 3.04v4.015a1.81 1.81 0 0 1-.513 1.256 1.73 1.73 0 0 1-1.228.524zm-19.847-3.56h18.106V29.8a1.81 1.81 0 0 1 .513-1.256 1.73 1.73 0 0 1 1.228-.524 11.31 11.31 0 0 0 6.14-1.807c1.84-1.184 3.3-2.876 4.246-4.88s1.297-4.24 1.042-6.445-1.117-4.292-2.485-6.017a11.48 11.48 0 0 0-5.244-3.73 11.25 11.25 0 0 0-6.382-.29 11.43 11.43 0 0 0-5.547 3.24 11.84 11.84 0 0 0-2.998 5.768c-.084.398-.3.754-.6 1s-.696.395-1.094.395H18.32v18.494zm12.187 40.588H17.932a1.73 1.73 0 0 1-1.228-.524 1.81 1.81 0 0 1-.513-1.256V67.6a1.81 1.81 0 0 1 .513-1.256 1.73 1.73 0 0 1 1.228-.524h12.574a1.73 1.73 0 0 1 1.228.524 1.81 1.81 0 0 1 .513 1.256v4.945a1.81 1.81 0 0 1-.513 1.256 1.73 1.73 0 0 1-1.228.524zm-10.794-3.56h9.053V69.35h-9.053v1.424z"/></g><g fill="#00c4d1"><use xlink:href="#B"/><path d="M88.143 63.653h-3.995a1.72 1.72 0 0 1-1.231-.521 1.8 1.8 0 0 1 0-2.518 1.72 1.72 0 0 1 1.231-.521h4.014a1.72 1.72 0 0 1 1.231.521 1.8 1.8 0 0 1 0 2.518 1.72 1.72 0 0 1-1.231.521h-.02zm0 12.105h-3.995a1.72 1.72 0 0 1-1.231-.522 1.8 1.8 0 0 1 0-2.518 1.72 1.72 0 0 1 1.231-.521h4.014a1.72 1.72 0 0 1 1.231.521 1.8 1.8 0 0 1 0 2.518 1.72 1.72 0 0 1-1.231.522h-.02z"/></g><path d="M16.578 15.23a1.73 1.73 0 0 1-1.228-.524 1.81 1.81 0 0 1-.513-1.256c.003-3.304 1.287-6.472 3.572-8.81S23.793.992 27.024.99h11.142a1.72 1.72 0 0 1 1.231.521 1.8 1.8 0 0 1 .51 1.259 1.8 1.8 0 0 1-.51 1.259 1.72 1.72 0 0 1-1.231.521H27.024c-2.31 0-4.523.938-6.155 2.607s-2.55 3.933-2.55 6.294a1.81 1.81 0 0 1-.513 1.256 1.73 1.73 0 0 1-1.228.524z" fill="#9d3bff"/><g fill="#00c4d1"><path d="M38.167 23.736c-1.584 0-3.132-.48-4.45-1.38s-2.344-2.18-2.95-3.675a8.36 8.36 0 0 1-.456-4.731c.31-1.588 1.072-3.048 2.192-4.193s2.547-1.925 4.1-2.24 3.164-.154 4.627.466a8.05 8.05 0 0 1 3.594 3.016 8.32 8.32 0 0 1 1.35 4.55 8.35 8.35 0 0 1-.61 3.134c-.403.994-.992 1.896-1.736 2.657a8 8 0 0 1-2.598 1.775c-.972.412-2.013.623-3.065.623zm0-12.857c-.895 0-1.77.272-2.515.78a4.61 4.61 0 0 0-1.667 2.077c-.343.846-.432 1.776-.258 2.674a4.66 4.66 0 0 0 1.239 2.37c.633.647 1.44 1.088 2.318 1.267s1.788.087 2.615-.263a4.55 4.55 0 0 0 2.031-1.705c.497-.76.763-1.656.763-2.572a4.69 4.69 0 0 0-1.356-3.219c-.846-.85-1.985-1.328-3.17-1.33v-.08z"/><use xlink:href="#C"/><path d="M24.935 54.396H22.15a1.72 1.72 0 0 1-1.231-.521 1.8 1.8 0 0 1 0-2.518 1.72 1.72 0 0 1 1.231-.521h2.786a1.72 1.72 0 0 1 1.231.521 1.8 1.8 0 0 1 0 2.518 1.72 1.72 0 0 1-1.231.521zm0-7.12H22.15a1.72 1.72 0 0 1-1.231-.521 1.8 1.8 0 0 1 0-2.518 1.72 1.72 0 0 1 1.231-.521h2.786a1.72 1.72 0 0 1 1.231.521 1.8 1.8 0 0 1 0 2.518 1.72 1.72 0 0 1-1.231.521z"/></g></g><defs><clipPath id="A"><path fill="#fff" d="M0 0h90v90H0z"/></clipPath><path id="B" d="M88.143 51.547h-3.995a1.72 1.72 0 0 1-1.231-.522 1.8 1.8 0 0 1 0-2.518 1.72 1.72 0 0 1 1.231-.521h4.014a1.72 1.72 0 0 1 1.231.521 1.8 1.8 0 0 1 0 2.518 1.72 1.72 0 0 1-1.231.522h-.02z"/><path id="C" d="M24.935 61.517H22.15a1.72 1.72 0 0 1-1.231-.521 1.8 1.8 0 0 1 0-2.518 1.72 1.72 0 0 1 1.231-.521h2.786a1.72 1.72 0 0 1 1.231.521 1.8 1.8 0 0 1 0 2.518 1.72 1.72 0 0 1-1.231.521z"/></defs></svg>