<svg xmlns="http://www.w3.org/2000/svg" width="90" height="90" fill="none" xmlns:v="https://vecta.io/nano"><path d="M45.87 43.823a8.15 8.15 0 0 1-4.062-1.065c-1.202-.694-2.14-1.68-2.693-2.836s-.698-2.425-.416-3.65.978-2.352 2-3.236 2.325-1.486 3.743-1.73 2.888-.12 4.224.36 2.478 1.288 3.28 2.328 1.232 2.26 1.232 3.5c-.003 1.675-.774 3.28-2.145 4.466s-3.228 1.85-5.166 1.854h0zm0-9.702a4.37 4.37 0 0 0-2.177.565c-.645.37-1.148.898-1.446 1.516a2.96 2.96 0 0 0-.227 1.955c.15.657.52 1.26 1.068 1.734s1.244.797 2.003.928 1.547.065 2.262-.2 1.328-.7 1.758-1.246.66-1.2.66-1.88c0-.895-.4-1.754-1.142-2.388s-1.724-.992-2.76-.994zm8.1 20.67a1.85 1.85 0 0 1-1.201-.428 1.38 1.38 0 0 1-.503-1.036 4.93 4.93 0 0 0-.407-2.2c-.305-.7-.77-1.337-1.37-1.876a6.56 6.56 0 0 0-2.11-1.262 7.28 7.28 0 0 0-5.029 0c-.795.293-1.513.722-2.1 1.262a5.5 5.5 0 0 0-1.369 1.876 4.88 4.88 0 0 0-.407 2.2 1.39 1.39 0 0 1-.503 1.05c-.323.28-.758.435-1.214.435s-.892-.156-1.214-.435a1.39 1.39 0 0 1-.503-1.05 7.45 7.45 0 0 1 .648-3.331c.472-1.062 1.187-2.03 2.1-2.848a9.88 9.88 0 0 1 3.22-1.913c1.22-.445 2.514-.673 3.83-.673a11.18 11.18 0 0 1 3.83.673 9.93 9.93 0 0 1 3.22 1.913c.913.818 1.63 1.786 2.1 2.848s.692 2.195.648 3.33c0 .383-.174.75-.484 1.025a1.83 1.83 0 0 1-1.175.439h0z" fill="#00c4d1"/><path d="M45.87 12.956a8.15 8.15 0 0 1-4.062-1.065c-1.202-.694-2.14-1.68-2.693-2.836s-.698-2.425-.416-3.65.978-2.352 2-3.236S43.025.682 44.444.438a8.36 8.36 0 0 1 4.224.36c1.336.48 2.478 1.288 3.28 2.328s1.232 2.26 1.232 3.5a5.6 5.6 0 0 1-.556 2.418c-.366.766-.906 1.463-1.585 2.05s-1.485 1.052-2.372 1.37-1.838.48-2.798.48h0zm0-9.692a4.36 4.36 0 0 0-2.178.566c-.645.37-1.148.9-1.446 1.518a2.96 2.96 0 0 0-.225 1.956c.15.657.523 1.26 1.07 1.734s1.246.796 2.006.926a4.49 4.49 0 0 0 2.263-.195c.715-.257 1.327-.692 1.756-1.25s.657-1.213.655-1.883c-.003-.894-.415-1.75-1.146-2.382s-1.722-.988-2.756-1h0zm8.1 20.67a1.85 1.85 0 0 1-1.205-.432 1.38 1.38 0 0 1-.499-1.042 4.93 4.93 0 0 0-.407-2.2c-.305-.7-.77-1.337-1.37-1.876a6.52 6.52 0 0 0-2.11-1.26 7.28 7.28 0 0 0-5.029 0c-.795.293-1.513.722-2.1 1.26a5.5 5.5 0 0 0-1.369 1.876 4.88 4.88 0 0 0-.407 2.2c0 .393-.18.77-.503 1.05s-.758.435-1.214.435-.892-.156-1.214-.435a1.39 1.39 0 0 1-.503-1.05 7.45 7.45 0 0 1 .648-3.331c.472-1.062 1.187-2.03 2.1-2.848a9.88 9.88 0 0 1 3.22-1.913c1.22-.445 2.514-.673 3.83-.673a11.18 11.18 0 0 1 3.83.673 9.93 9.93 0 0 1 3.22 1.913c.913.818 1.63 1.787 2.1 2.848s.692 2.195.648 3.33c0 .384-.173.753-.483 1.028a1.84 1.84 0 0 1-1.176.445h0zm-8.1 54.426a8.15 8.15 0 0 1-4.062-1.065c-1.202-.694-2.14-1.682-2.693-2.836s-.698-2.425-.416-3.65.978-2.352 2-3.236 2.325-1.486 3.743-1.73 2.888-.12 4.224.36 2.478 1.288 3.28 2.328 1.232 2.26 1.232 3.5c-.003 1.675-.774 3.28-2.145 4.466s-3.228 1.85-5.166 1.854h0zm0-9.702a4.37 4.37 0 0 0-2.177.565c-.645.37-1.148.898-1.446 1.516a2.96 2.96 0 0 0-.227 1.955c.15.657.52 1.26 1.068 1.734s1.244.797 2.003.928 1.547.065 2.262-.2 1.328-.7 1.758-1.246.66-1.2.66-1.88c0-.895-.4-1.754-1.142-2.388s-1.724-.992-2.76-.994h0zm8.1 20.67a1.85 1.85 0 0 1-1.201-.428 1.38 1.38 0 0 1-.503-1.036 4.93 4.93 0 0 0-.407-2.2c-.305-.7-.77-1.337-1.37-1.876a6.52 6.52 0 0 0-2.11-1.26 7.28 7.28 0 0 0-5.029 0c-.795.293-1.513.722-2.1 1.26a5.5 5.5 0 0 0-1.369 1.876 4.88 4.88 0 0 0-.407 2.2 1.39 1.39 0 0 1-.503 1.049c-.322.278-.758.434-1.214.434s-.892-.156-1.214-.434a1.39 1.39 0 0 1-.503-1.049 7.45 7.45 0 0 1 .648-3.331c.472-1.062 1.187-2.03 2.1-2.848A9.98 9.98 0 0 1 42 79.772c1.2-.444 2.514-.673 3.83-.673a11.18 11.18 0 0 1 3.83.673 9.98 9.98 0 0 1 3.221 1.913c.914.818 1.63 1.786 2.1 2.848s.692 2.195.648 3.33c0 .383-.174.75-.484 1.025a1.83 1.83 0 0 1-1.175.439zm25.893-44.04a8.15 8.15 0 0 1-4.062-1.065c-1.202-.695-2.14-1.68-2.693-2.836s-.698-2.425-.416-3.65.978-2.352 2-3.236 2.325-1.486 3.743-1.73 2.888-.12 4.224.36 2.478 1.288 3.28 2.328 1.232 2.26 1.232 3.5c0 1.676-.77 3.283-2.14 4.47s-3.23 1.85-5.17 1.85h0zm0-9.692c-.774 0-1.53.2-2.175.57s-1.145.9-1.44 1.52a2.96 2.96 0 0 0-.221 1.956c.152.656.526 1.26 1.074 1.732s1.247.794 2.007.923 1.547.06 2.262-.197 1.325-.692 1.754-1.25.656-1.212.654-1.882a2.98 2.98 0 0 0-.301-1.29 3.39 3.39 0 0 0-.849-1.092 3.99 3.99 0 0 0-1.268-.728 4.44 4.44 0 0 0-1.494-.253v-.01zm8.112 20.67a1.85 1.85 0 0 1-1.205-.432 1.38 1.38 0 0 1-.499-1.042c-.07-1.427-.775-2.776-1.968-3.764s-2.78-1.54-4.434-1.54-3.24.552-4.434 1.54-1.898 2.337-1.968 3.764c0 .393-.18.77-.503 1.05s-.758.434-1.214.434-.892-.156-1.214-.434a1.39 1.39 0 0 1-.503-1.05 7.43 7.43 0 0 1 .648-3.33c.473-1.06 1.187-2.03 2.1-2.848a9.98 9.98 0 0 1 3.221-1.913c1.2-.444 2.514-.673 3.83-.673a11.18 11.18 0 0 1 3.83.673 9.93 9.93 0 0 1 3.22 1.913c.913.818 1.63 1.787 2.1 2.848s.692 2.195.648 3.33c0 .384-.173.753-.483 1.028a1.84 1.84 0 0 1-1.176.445h0zM10.16 45.287a8.15 8.15 0 0 1-4.062-1.065c-1.202-.695-2.14-1.68-2.693-2.836s-.698-2.425-.416-3.65.978-2.352 2-3.236 2.325-1.486 3.743-1.73 2.888-.12 4.224.36 2.478 1.288 3.28 2.328 1.232 2.26 1.232 3.5c-.003 1.675-.774 3.28-2.145 4.466s-3.228 1.85-5.166 1.854h0zm0-9.692c-.774 0-1.53.2-2.175.57s-1.145.9-1.44 1.52a2.96 2.96 0 0 0-.221 1.956c.152.656.526 1.26 1.074 1.732s1.247.794 2.007.923 1.547.06 2.262-.197 1.325-.692 1.754-1.25.656-1.212.654-1.882c-.006-.894-.42-1.75-1.154-2.38s-1.725-.984-2.76-.984v-.01zm8.147 20.67c-.45-.003-.88-.16-1.198-.435s-.495-.65-.495-1.038c0-1.47-.675-2.878-1.877-3.916s-2.83-1.622-4.53-1.622-3.33.584-4.53 1.622S3.8 53.322 3.8 54.8a1.31 1.31 0 0 1-.131.568 1.49 1.49 0 0 1-.372.481 1.78 1.78 0 0 1-.557.322 1.93 1.93 0 0 1-.657.113 1.93 1.93 0 0 1-.657-.113 1.78 1.78 0 0 1-.557-.322 1.49 1.49 0 0 1-.372-.481 1.31 1.31 0 0 1-.131-.568c0-2.248 1.033-4.404 2.872-5.993s4.333-2.483 6.934-2.483 5.095.893 6.934 2.483 2.872 3.745 2.872 5.993a1.38 1.38 0 0 1-.487 1.032 1.84 1.84 0 0 1-1.183.442h0z" fill="#9d3bff"/><g fill="#00c4d1"><path d="M16.1 31.184c-.227-.001-.45-.042-.66-.12s-.397-.19-.555-.33-.28-.308-.364-.5-.12-.378-.115-.574c.015-3.108 1.454-6.085 4-8.28s5.996-3.428 9.592-3.43c.455 0 .892.156 1.214.435s.503.656.503 1.05-.18.77-.503 1.05-.758.434-1.214.434c-2.69.003-5.268.922-7.177 2.56s-2.993 3.86-3.017 6.184c.006.197-.034.393-.116.576s-.207.35-.366.492-.35.253-.56.33-.435.116-.663.116h0z"/><path d="M26.316 24.567a2 2 0 0 1-.88-.208c-.374-.2-.643-.52-.752-.887a1.3 1.3 0 0 1 .169-1.091l1.865-2.7-2.46-2.166c-.32-.276-.498-.65-.498-1.04s.18-.763.498-1.038.75-.43 1.2-.43a1.84 1.84 0 0 1 1.2.43l3.433 2.967a1.41 1.41 0 0 1 .48.863 1.32 1.32 0 0 1-.229.937l-2.552 3.67a1.64 1.64 0 0 1-.634.51 1.91 1.91 0 0 1-.842.174h0zm48.054 4.777a1.93 1.93 0 0 1-.651-.109 1.71 1.71 0 0 1-.553-.317 1.47 1.47 0 0 1-.37-.476 1.29 1.29 0 0 1-.13-.562c-.003-2.34-1.08-4.58-2.993-6.235s-4.507-2.584-7.213-2.587c-.455 0-.892-.156-1.214-.434s-.503-.655-.503-1.05.18-.77.503-1.05.758-.434 1.214-.434c3.6.008 7.067 1.254 9.613 3.465s3.974 5.205 3.968 8.324c0 .385-.175.754-.488 1.028s-.737.43-1.183.436h0z"/><path d="M74.37 30.076a1.94 1.94 0 0 1-.881-.208l-4.268-2.176a1.65 1.65 0 0 1-.497-.381 1.4 1.4 0 0 1-.291-.516 1.28 1.28 0 0 1-.04-.573c.03-.19.104-.376.216-.543s.262-.313.44-.43.38-.202.597-.252a1.96 1.96 0 0 1 .663-.035c.222.026.435.1.628.187l3.112 1.612 2.46-2.126c.317-.28.75-.438 1.202-.442s.9.148 1.212.422.507.648.5 1.04-.17.768-.5 1.047L75.51 29.67a1.84 1.84 0 0 1-1.144.406h0zM65.847 73.8c-.225 0-.448-.038-.657-.113a1.76 1.76 0 0 1-.557-.322 1.49 1.49 0 0 1-.372-.481 1.31 1.31 0 0 1 0-1.135 1.49 1.49 0 0 1 .372-.481 1.78 1.78 0 0 1 .557-.322 1.95 1.95 0 0 1 .657-.113c2.704-.005 5.295-.937 7.206-2.6s2.986-3.894 3-6.232a1.39 1.39 0 0 1 .503-1.05c.323-.28.758-.434 1.214-.434s.892.156 1.213.434.503.655.503 1.05c.003 1.548-.347 3.08-1.03 4.512s-1.687 2.73-2.953 3.826-2.77 1.964-4.424 2.556a15.49 15.49 0 0 1-5.219.895h0z"/><path d="M68.387 76.737a1.93 1.93 0 0 1-.65-.109 1.73 1.73 0 0 1-.552-.316l-3.432-2.967a1.41 1.41 0 0 1-.48-.863 1.32 1.32 0 0 1 .229-.937l2.55-3.67c.228-.327.596-.563 1.025-.658a1.91 1.91 0 0 1 1.264.153c.374.2.643.52.752.888a1.3 1.3 0 0 1-.169 1.091l-1.876 2.7 2.47 2.126c.24.205.402.468.468.754a1.28 1.28 0 0 1-.099.851c-.13.27-.35.498-.632.658a1.89 1.89 0 0 1-.949.24l.08.07zm-36.98-1.097c-3.605-.005-7.06-1.246-9.6-3.45s-3.98-5.192-3.984-8.3a1.39 1.39 0 0 1 .503-1.049c.322-.278.758-.434 1.214-.434s.892.156 1.214.434a1.39 1.39 0 0 1 .503 1.049c.003 2.337 1.078 4.578 3 6.232s4.502 2.585 7.206 2.6a1.86 1.86 0 0 1 1.213.434c.32.278.503.656.503 1.05a1.39 1.39 0 0 1-.503 1.05c-.323.28-.758.435-1.213.435l-.034-.03z"/><path d="M16.1 67.56c-.34.005-.672-.078-.956-.238a1.55 1.55 0 0 1-.639-.659 1.29 1.29 0 0 1-.105-.855c.064-.288.226-.552.465-.76l3.432-2.967c.27-.232.62-.38.996-.42s.76.027 1.086.194l4.245 2.206a1.66 1.66 0 0 1 .498.387 1.41 1.41 0 0 1 .289.522 1.29 1.29 0 0 1 .036.578 1.36 1.36 0 0 1-.223.546c-.115.168-.267.314-.447.43a1.84 1.84 0 0 1-.604.25 1.98 1.98 0 0 1-.668.031 1.9 1.9 0 0 1-.631-.192l-3.112-1.612-2.46 2.126c-.318.277-.75.433-1.2.435z"/></g><path d="M13.467 85.638c2.818 0 5.103-1.975 5.103-4.4s-2.285-4.4-5.103-4.4-5.103 1.975-5.103 4.4 2.285 4.4 5.103 4.4zm67.105-65.353c1.4 0 2.552-.987 2.552-2.206s-1.142-2.206-2.552-2.206-2.552.987-2.552 2.206 1.142 2.206 2.552 2.206z" fill="#9d3bff"/><path d="M70.103 12.828c2.818 0 5.103-1.975 5.103-4.4s-2.285-4.4-5.103-4.4S65 5.98 65 8.416s2.285 4.4 5.103 4.4zM5.584 75.412c1.4 0 2.55-.987 2.55-2.206S6.993 71 5.584 71s-2.55.987-2.55 2.206 1.142 2.206 2.55 2.206z" fill="#00c4d1"/></svg>