<svg xmlns="http://www.w3.org/2000/svg" width="88" height="88" fill="none" xmlns:v="https://vecta.io/nano"><g filter="url(#A)"><circle cx="44" cy="40" r="40" fill="url(#B)"/><path d="M62.75 40.16c0 9.752-8.242 17.658-18.41 17.658-3.227 0-6.258-.798-8.897-2.195L25.25 58.75l3.322-9.477c-1.675-2.66-2.64-5.783-2.64-9.116.001-9.752 8.24-17.657 18.41-17.657S62.75 30.407 62.75 40.16zM44.338 25.316c-8.534 0-15.476 6.66-15.476 14.847 0 3.248 1.096 6.255 2.948 8.702l-1.932 5.512 5.945-1.826c2.446 1.55 5.372 2.454 8.514 2.454 8.534 0 15.478-6.66 15.478-14.845s-6.943-14.843-15.478-14.843zm9.298 18.91c-.115-.178-.416-.287-.866-.505s-2.67-1.264-3.083-1.406-.717-.22-1.017.215-1.163 1.408-1.428 1.7-.526.326-.977.112c-.45-.22-1.906-.674-3.63-2.148-1.34-1.15-2.248-2.564-2.51-2.998s-.027-.667.197-.882c.202-.195.45-.506.677-.76s.3-.43.45-.72.073-.54-.038-.76-1.014-2.345-1.392-3.212-.75-.722-1.015-.722-.564-.035-.864-.035-.8.105-1.202.54-1.58 1.48-1.58 3.6 1.615 4.188 1.842 4.476 3.123 4.8 7.7 6.534 4.59 1.154 5.416 1.08S53 47.3 53.374 46.3s.377-1.883.263-2.064z" fill="#fff"/></g><defs><filter id="A" x="0" y="0" width="88" height="88" filterUnits="userSpaceOnUse" color-interpolation-filters="sRGB"><feFlood flood-opacity="0" result="A"/><feColorMatrix in="SourceAlpha" values="0 0 0 0 0 0 0 0 0 0 0 0 0 0 0 0 0 0 127 0"/><feOffset dy="4"/><feGaussianBlur stdDeviation="2"/><feColorMatrix values="0 0 0 0 0 0 0 0 0 0 0 0 0 0 0 0 0 0 0.25 0"/><feBlend in2="A"/><feBlend in="SourceGraphic"/></filter><linearGradient id="B" x1="44" y1="0" x2="44" y2="80" gradientUnits="userSpaceOnUse"><stop stop-color="#00c4d1"/><stop offset="1" stop-color="#9d3bff"/></linearGradient></defs></svg>