<svg xmlns="http://www.w3.org/2000/svg" width="1200" height="1200" fill="none" xmlns:v="https://vecta.io/nano"><path fill="#000" d="M439 601h329v208H439z"/><path fill-rule="evenodd" d="M568.183 456.477c0-3.673-.18-7.32-.18-10.762 0-13.557 0-19.12-10.943-23.465-12.313-4.916-25.74-3.96-38.648-3.027-9.908.698-19.505 1.37-28.068-.62-8.045-9.625-6.415-19.352-4.734-29.364 1.57-6.65 1.773-13.552.595-20.284a39.55 39.55 0 0 0-16.712-6.463c-5.99-.848-12.098-.3-17.85 1.574-4.785 7.114-4.527 17.54-4.294 28.018.207 9.47.44 19.016-3.052 26.234a289.06 289.06 0 0 1-57.921 1.63c-3.285 0-6.804 0-10.348.26-16.22.57-34.07 1.216-40.174-9.34-8.977-15.807-4.14-45.042.776-75.027 8.356-51.38 17.306-105.012-43.382-95.362a94.42 94.42 0 0 0-41.391 17.359c-22.816 18.73-9.08 134.713-5.33 161.438l.44 3.208c4.657 34.02 6.002 43.594 72.15 43.594 31.042 0 62.085-3.027 92.87-6.028l16.427-1.578c29.88-2.976 77.452-6.65 87.075-6.65 1.656 0 3.596-.156 5.743-.31 10.347-.802 24.756-1.94 24.756 12.936v12.21c.365 5.13-.001 10.288-1.086 15.316l-5.562.285c-38.984 1.914-104.02 5.174-128.8 22.792a74.66 74.66 0 0 0-20.126 22.172c-5.17 8.73-8.54 18.406-9.908 28.46-7.14 45.844-9.442 90.912-9.856 99.346v.207c-2.924 56.918-3.053 211.215 20.954 251.367 21.316 35.65 73.467 38.808 121.403 41.395l17.927 1.112a1022.84 1022.84 0 0 0 226.871-9.365c15.135-1.607 29.35-8.048 40.536-18.37 11.238-10.35 18.94-23.97 22.015-38.936 6.47-37.784 9.93-76.02 10.347-114.352 4.683-49.674 0-172.977-10.528-219.364-12.52-53.14-56.653-57.435-101.226-61.782l-9.002-.905c-4.5-.44-10.968-.828-17.953-1.268-13.814-.828-29.646-1.81-36.217-3.596v-28.458c0-14.023 5.38-13.66 40.77-11.28l6.467.413c13.762 1.035 31.276 2.82 50.548 4.813 60.068 6.157 137.26 14.074 172.624 5.898 21.6-5.02 23.877-11.124 27.343-33.788 4-26.31 17.358-144.88 0-166.586a77.38 77.38 0 0 0-40.019-21.034c-66.975-13.84-58.05 41.68-49.565 94.535 4.89 30.45 9.65 60.02-.362 75.027-6.778 9.986-24.912 9.236-40.77 8.59l-10.735-.3H792.75c-26.257.155-35.776.207-38.803-4.217-1.76-2.587-1.45-6.468-.983-12.65a142.05 142.05 0 0 0 0-27.968c-2.587-24.552-37.5-8.408-38.803-6.105-.862 6.735-.644 13.565.646 20.23 1.45 10.633 2.872 21.06-3.828 28.46-6.312 3.286-17.695 2.587-29.982 2.07-13.71-.7-28.456-1.475-38.804 2.95s-9.985 10.84-9.882 23.465v40.1c0 7.037-4.216 6.78-15.52 6.132-4-.233-8.9-.518-14.823-.57H567.07l.93-12.47c.427-7.305.487-14.627.18-21.94zM532.82 764.555c11.297.2 22.398-2.967 31.89-9.098a56.92 56.92 0 0 0 21.405-25.33c4.462-10.38 5.734-21.855 3.653-32.962a56.91 56.91 0 0 0-15.337-29.403c-7.918-8.062-18.055-13.584-29.122-15.863s-22.56-1.212-33.02 3.064a56.92 56.92 0 0 0-25.706 20.951c-6.3 9.38-9.664 20.424-9.666 31.724a56.41 56.41 0 0 0 4.097 21.629 56.42 56.42 0 0 0 30.256 30.805c6.82 2.895 14.142 4.42 21.55 4.483zm221.257-57.383c-.224 13.412-4.405 26.458-12.02 37.5s-18.32 19.6-30.775 24.568a68.06 68.06 0 0 1-73.781-15.477c-9.405-9.563-15.775-21.692-18.31-34.864a68.08 68.08 0 0 1 4.061-39.171c5.183-12.372 13.906-22.936 25.072-30.366a68.06 68.06 0 0 1 37.692-11.397c9.013.074 17.923 1.923 26.22 5.442s15.822 8.636 22.142 15.063a68.64 68.64 0 0 1 14.693 22.391c3.38 8.356 5.08 17.296 5.005 26.3z" fill="#fff"/></svg>