<svg xmlns="http://www.w3.org/2000/svg" width="70" height="68" shape-rendering="geometricPrecision" image-rendering="optimizeQuality" fill-rule="evenodd" fill="#fefefe" xmlns:v="https://vecta.io/nano"><path d="M24 1h-8C10 2 4 6 2 13c-2 5-2 10-2 15v17c1 6 0 10 3 14 6 9 15 9 26 9 5 0 11 1 17 0 6 0 10 0 15-2 3-2 6-6 8-10 1-5 1-10 1-15V24c0-6 0-10-3-14-2-4-5-6-9-8-6-2-18-1-25-1-3 0-6-1-9 0zm-1 6c-4 0-8 0-11 3-3 2-5 4-5 9-1 4-1 23 0 27 0 5 0 8 2 11s5 4 10 5c4 1 24 1 28 0 5 0 9 0 12-3 3-2 4-5 5-9V23C64 5 52 7 37 7H23zm11 10c-6 1-9 3-12 6-4 3-5 8-5 13 1 9 10 17 20 16 6-1 9-3 12-6 5-5 6-13 2-20-3-6-10-10-17-9zm0 6c-7 1-11 7-10 13 0 6 6 11 13 10 6-1 11-6 10-13-1-3-2-6-4-7-2-2-6-3-9-3zm19-11c-6 2-3 10 2 8 2 0 4-2 3-4 0-2-2-4-5-4z"/></svg>