<?xml version="1.0" encoding="UTF-8"?>
<!DOCTYPE svg PUBLIC "-//W3C//DTD SVG 1.1//EN" "http://www.w3.org/Graphics/SVG/1.1/DTD/svg11.dtd">
<!-- Creator: CorelDRAW X7 -->
<svg xmlns="http://www.w3.org/2000/svg" xml:space="preserve" width="70px" height="68px" version="1.1" style="shape-rendering:geometricPrecision; text-rendering:geometricPrecision; image-rendering:optimizeQuality; fill-rule:evenodd; clip-rule:evenodd"
viewBox="0 0 70 68"
 xmlns:xlink="http://www.w3.org/1999/xlink">
 <defs>
  <style type="text/css">
   <![CDATA[
    .fil0 {fill:#FEFEFE}
   ]]>
  </style>
 </defs>
 <g id="Capa_x0020_1">
  <metadata id="CorelCorpID_0Corel-Layer"/>
  <g id="_2371416023664">
   <path class="fil0" d="M40 28l-1 -6 -15 0 0 46c2,0 15,0 15,0 1,-2 0,-18 0,-22 0,-3 0,-6 2,-9 3,-5 10,-6 13,0 1,3 1,6 1,9 0,3 0,21 0,22 1,0 14,0 15,0 1,-2 0,-18 0,-21 0,-7 0,-13 -3,-18 -2,-5 -7,-8 -13,-8 -4,0 -7,1 -9,2 -4,2 -4,5 -5,5z"/>
   <path class="fil0" d="M1 68c2,0 14,0 15,0 0,-1 0,-44 0,-46l-15 0 0 46z"/>
   <path class="fil0" d="M8 0c-11,1 -10,17 1,16 11,-1 10,-17 -1,-16z"/>
  </g>
 </g>
</svg>
