<svg width="350" height="458" viewBox="0 0 350 458" fill="none" xmlns="http://www.w3.org/2000/svg">
<path d="M0.438477 407.796V313.791H57.1142V325.049H13.5175V353.387H52.1987V364.483H13.5175V407.752L0.438477 407.796Z" fill="#9D3BFF"/>
<path d="M132.777 372.526C132.849 377.694 132.019 382.836 130.324 387.719C128.834 392.02 126.508 395.983 123.48 399.381C120.561 402.624 116.972 405.194 112.962 406.912C108.749 408.661 104.232 409.561 99.6705 409.561C95.1089 409.561 90.5922 408.661 86.3789 406.912C82.3702 405.187 78.785 402.609 75.8721 399.359C72.844 395.959 70.5146 391.997 69.0165 387.697C65.7614 377.856 65.7614 367.228 69.0165 357.387C70.5066 353.061 72.8363 349.071 75.8721 345.648C78.7872 342.406 82.3722 339.836 86.3789 338.117C94.8911 334.6 104.45 334.6 112.962 338.117C116.972 339.836 120.561 342.405 123.48 345.648C126.516 349.069 128.843 353.059 130.324 357.387C132.01 362.253 132.84 367.375 132.777 372.526ZM119.611 372.526C119.611 364.533 117.827 358.226 114.259 353.605C112.573 351.349 110.366 349.536 107.826 348.319C105.287 347.102 102.49 346.519 99.6759 346.618C96.8636 346.516 94.0683 347.096 91.5289 348.309C88.9894 349.522 86.7812 351.331 85.0928 353.583C81.5179 358.248 79.7304 364.555 79.7304 372.504C79.7304 380.453 81.5179 386.76 85.0928 391.425C86.775 393.684 88.9815 395.501 91.522 396.718C94.0625 397.935 96.8609 398.516 99.6759 398.411C102.49 398.511 105.287 397.927 107.826 396.71C110.366 395.494 112.573 393.68 114.259 391.425C117.827 386.789 119.611 380.489 119.611 372.526Z" fill="#9D3BFF"/>
<path d="M206.695 405.758C203.788 406.484 199.97 407.254 195.24 408.068C189.787 408.938 184.271 409.346 178.749 409.289C174.059 409.425 169.389 408.617 165.016 406.913C161.505 405.483 158.423 403.17 156.068 400.199C153.739 397.164 152.076 393.674 151.185 389.954C150.151 385.672 149.649 381.279 149.692 376.875V337.234H162.313V374.139C162.313 382.728 163.668 388.875 166.379 392.58C169.089 396.286 173.656 398.139 180.079 398.139C181.43 398.139 182.836 398.139 184.286 398.008C185.736 397.877 187.087 397.801 188.351 397.67L191.806 397.267C192.57 397.192 193.324 397.031 194.052 396.788V337.234H206.662L206.695 405.758Z" fill="#9D3BFF"/>
<path d="M254.444 335.763C255.534 335.763 256.777 335.839 258.172 335.97C259.567 336.101 260.951 336.286 262.313 336.515C263.676 336.744 264.907 336.973 266.041 337.191C266.886 337.351 267.723 337.555 268.548 337.801L266.368 348.788C261.907 347.326 257.229 346.641 252.537 346.76C250.188 346.761 247.847 347.01 245.55 347.502C243.24 348.003 241.725 348.341 241.005 348.515V407.796H228.395V340.221C232.032 338.957 235.75 337.938 239.523 337.169C244.434 336.179 249.435 335.708 254.444 335.763Z" fill="#9D3BFF"/>
<path d="M292.537 337.234H319.262V347.817H292.537V380.395C292.481 383.323 292.755 386.248 293.354 389.114C293.737 391.095 294.573 392.96 295.796 394.564C296.859 395.859 298.269 396.823 299.861 397.343C301.706 397.917 303.63 398.189 305.561 398.15C308.665 398.255 311.763 397.82 314.717 396.864C317.016 396.003 318.63 395.392 319.534 395.033L321.976 405.474C319.824 406.435 317.601 407.23 315.327 407.85C311.783 408.854 308.111 409.335 304.428 409.278C300.393 409.402 296.369 408.781 292.559 407.447C289.6 406.349 286.996 404.465 285.027 401.997C283.031 399.329 281.663 396.244 281.027 392.973C280.215 388.89 279.832 384.733 279.883 380.57V317.616L292.537 315.436V337.234Z" fill="#9D3BFF"/>
<path d="M341.583 324.515C339.44 324.56 337.366 323.753 335.818 322.269C334.291 320.631 333.443 318.476 333.443 316.237C333.443 313.998 334.291 311.842 335.818 310.204C337.39 308.76 339.448 307.958 341.583 307.958C343.719 307.958 345.776 308.76 347.349 310.204C348.87 311.845 349.716 313.999 349.716 316.237C349.716 318.474 348.87 320.629 347.349 322.269C345.799 323.75 343.726 324.557 341.583 324.515ZM347.959 407.795H335.284V337.234H347.905L347.959 407.795Z" fill="#9D3BFF"/>
<path d="M10.7385 453.747C15.6322 453.747 18.0736 452.068 18.0736 448.733C18.1029 447.814 17.8765 446.905 17.4197 446.106C16.9782 445.368 16.3925 444.727 15.6976 444.221C14.9095 443.662 14.0568 443.201 13.1581 442.847C12.2099 442.455 11.2072 442.074 10.1499 441.692C8.96345 441.286 7.80242 440.809 6.6731 440.264C5.64377 439.772 4.68666 439.141 3.82842 438.39C3.02703 437.664 2.37857 436.786 1.92106 435.807C1.43112 434.665 1.1932 433.43 1.22351 432.188C1.15881 430.893 1.39587 429.601 1.91602 428.413C2.43616 427.225 3.22516 426.174 4.22079 425.343C6.20444 423.698 8.96193 422.88 12.4606 422.88C14.323 422.86 16.1802 423.08 17.9865 423.534C19.2654 423.817 20.4932 424.295 21.6268 424.951L20.0573 428.788C19.105 428.255 18.0911 427.842 17.0382 427.556C15.5395 427.127 13.9866 426.918 12.4279 426.935C11.5841 426.931 10.7427 427.026 9.92106 427.218C9.19956 427.388 8.51343 427.683 7.89381 428.09C7.3243 428.463 6.85319 428.968 6.52052 429.561C6.17291 430.203 6.00001 430.925 6.01916 431.654C5.99186 432.442 6.17227 433.224 6.54232 433.921C6.93047 434.561 7.45067 435.111 8.0682 435.534C8.75153 436.032 9.48156 436.463 10.248 436.82C11.0982 437.202 12.0464 437.594 13.0709 437.976C14.5205 438.553 15.8502 439.131 17.0491 439.708C18.1925 440.244 19.2503 440.945 20.1881 441.79C21.0711 442.586 21.7703 443.564 22.2371 444.657C22.7477 445.935 22.9925 447.303 22.9565 448.679C23.0229 449.982 22.7649 451.282 22.2057 452.461C21.6465 453.64 20.8034 454.663 19.7521 455.436C17.5723 457.006 14.5968 457.801 10.7058 457.801C9.48712 457.805 8.27 457.714 7.06548 457.529C6.06662 457.376 5.07693 457.169 4.1009 456.907C3.33607 456.7 2.58598 456.441 1.85567 456.134C1.23441 455.861 0.765749 455.621 0.384277 455.436L1.79027 451.578C2.87443 452.139 4.00485 452.606 5.16902 452.973C6.97105 453.532 8.85227 453.793 10.7385 453.747Z" fill="#9D3BFF"/>
<path d="M50.4771 444.537C50.505 446.372 50.2136 448.197 49.616 449.932C49.0845 451.464 48.2548 452.875 47.1746 454.085C46.1379 455.236 44.862 456.148 43.4362 456.755C41.9396 457.381 40.3336 457.703 38.7114 457.703C37.0893 457.703 35.4833 457.381 33.9866 456.755C32.5608 456.148 31.2849 455.236 30.2482 454.085C29.1715 452.875 28.3454 451.463 27.8177 449.932C27.2164 448.198 26.9213 446.372 26.9457 444.537C26.9259 442.705 27.2208 440.884 27.8177 439.153C28.3427 437.617 29.1691 436.202 30.2482 434.989C31.2845 433.834 32.5603 432.919 33.9866 432.308C37.0126 431.059 40.4102 431.059 43.4362 432.308C44.8625 432.919 46.1383 433.834 47.1746 434.989C48.2572 436.201 49.0872 437.616 49.616 439.153C50.2092 440.885 50.5005 442.706 50.4771 444.537ZM45.8013 444.537C45.9326 442.142 45.2614 439.772 43.894 437.801C43.2686 437.029 42.4788 436.407 41.5822 435.98C40.6855 435.552 39.7047 435.33 38.7114 435.33C37.7181 435.33 36.7373 435.552 35.8407 435.98C34.944 436.407 34.1542 437.029 33.5288 437.801C32.2819 439.825 31.6216 442.155 31.6216 444.531C31.6216 446.908 32.2819 449.238 33.5288 451.262C34.1519 452.037 34.9409 452.663 35.8379 453.093C36.7348 453.522 37.7168 453.746 38.7114 453.746C39.706 453.746 40.688 453.522 41.5849 453.093C42.4819 452.663 43.2709 452.037 43.894 451.262C45.2606 449.295 45.9318 446.928 45.8013 444.537Z" fill="#9D3BFF"/>
<path d="M66.5858 419.654C67.7259 419.635 68.8651 419.73 69.9863 419.937C70.6686 420.059 71.3394 420.238 71.9918 420.471L71.1744 424.33C70.6471 424.086 70.0954 423.9 69.5286 423.774C68.6743 423.579 67.7997 423.488 66.9237 423.501C64.831 423.501 63.3705 424.079 62.564 425.223C61.6466 426.596 61.1992 428.229 61.2888 429.877V432.057H70.9237V435.817H61.2888V457.125H56.7983V429.725C56.7983 426.509 57.5831 424.035 59.1635 422.281C60.7438 420.526 63.218 419.654 66.5858 419.654Z" fill="#9D3BFF"/>
<path d="M79.6106 431.992H89.1038V435.752H79.6106V447.316C79.5921 448.362 79.6871 449.407 79.8939 450.433C80.0376 451.133 80.3355 451.792 80.7659 452.362C81.1421 452.825 81.6463 453.166 82.2155 453.343C82.8707 453.551 83.5554 453.65 84.2427 453.637C85.351 453.677 86.4576 453.522 87.5125 453.18L89.2236 452.526L90.0956 456.242C89.3299 456.582 88.5392 456.863 87.7305 457.082C86.4761 457.439 85.1763 457.612 83.8721 457.594C82.4379 457.637 81.008 457.416 79.6542 456.94C78.5981 456.548 77.6703 455.873 76.973 454.989C76.2694 454.039 75.7854 452.944 75.5561 451.785C75.2645 450.332 75.1257 448.852 75.1419 447.37V425.005L79.6324 424.231L79.6106 431.992Z" fill="#9D3BFF"/>
<path d="M115.294 457.125C114.4 454.815 113.445 452.17 112.428 449.191C111.41 446.212 110.484 443.116 109.648 439.905C108.82 443.124 107.905 446.219 106.902 449.191C105.899 452.163 104.951 454.808 104.057 457.125H100.155C98.5126 453.423 97.0575 449.639 95.7956 445.79C94.3423 441.554 93.0054 436.973 91.7847 432.046H96.613C96.9291 433.561 97.3215 435.196 97.7683 436.973C98.2152 438.749 98.6948 440.504 99.1852 442.27C99.6757 444.035 100.21 445.747 100.755 447.382C101.3 449.016 101.845 450.455 102.302 451.676C102.847 450.172 103.392 448.57 103.915 446.88C104.439 445.191 105.005 443.491 105.43 441.768C105.856 440.046 106.379 438.357 106.815 436.7C107.251 435.044 107.621 433.496 107.905 432.046H111.61C111.905 433.496 112.253 435.044 112.7 436.7C113.147 438.357 113.561 440.046 114.052 441.768C114.542 443.491 115.033 445.191 115.567 446.88C116.101 448.57 116.657 450.15 117.18 451.676C117.659 450.455 118.172 449.027 118.706 447.382C119.24 445.736 119.796 444.046 120.264 442.27C120.733 440.493 121.267 438.739 121.714 436.973C122.161 435.207 122.553 433.561 122.869 432.046H127.501C126.244 436.973 124.911 441.554 123.501 445.79C122.092 450.026 120.671 453.805 119.24 457.125H115.294Z" fill="#9D3BFF"/>
<path d="M140.373 431.371C141.922 431.328 143.465 431.564 144.929 432.068C146.072 432.47 147.098 433.148 147.916 434.041C148.687 434.914 149.243 435.955 149.54 437.082C149.869 438.349 150.03 439.653 150.019 440.962V456.635L148.406 456.907C147.709 457.016 146.935 457.125 146.063 457.213C145.191 457.3 144.254 457.398 143.24 457.485C142.226 457.572 141.224 457.605 140.232 457.605C138.915 457.618 137.601 457.471 136.319 457.169C135.213 456.911 134.166 456.445 133.234 455.796C132.367 455.15 131.677 454.295 131.229 453.311C130.72 452.139 130.474 450.871 130.51 449.594C130.478 448.354 130.767 447.126 131.349 446.03C131.9 445.046 132.691 444.217 133.649 443.621C134.683 442.977 135.823 442.519 137.016 442.27C138.338 441.986 139.687 441.851 141.038 441.867C141.504 441.866 141.97 441.891 142.433 441.943C142.913 441.943 143.382 442.052 143.807 442.128L144.897 442.346L145.572 442.488V441.234C145.573 440.501 145.493 439.77 145.333 439.055C145.182 438.359 144.888 437.702 144.472 437.125C144.017 436.54 143.426 436.076 142.749 435.774C141.859 435.405 140.9 435.234 139.937 435.273C138.634 435.256 137.332 435.358 136.046 435.578C135.205 435.725 134.377 435.944 133.572 436.232L133.038 432.526C133.97 432.168 134.939 431.915 135.927 431.774C137.394 431.508 138.882 431.373 140.373 431.371ZM140.755 453.845C141.845 453.845 142.76 453.845 143.578 453.768C144.267 453.742 144.953 453.654 145.627 453.507V446.03C145.126 445.819 144.597 445.679 144.057 445.616C143.187 445.497 142.309 445.442 141.431 445.452C140.702 445.452 139.974 445.499 139.251 445.594C138.533 445.681 137.833 445.883 137.18 446.194C136.572 446.492 136.036 446.92 135.611 447.447C135.172 448.058 134.953 448.799 134.989 449.55C134.92 450.195 135.026 450.846 135.297 451.435C135.568 452.024 135.992 452.529 136.526 452.897C137.82 453.599 139.284 453.931 140.755 453.856V453.845Z" fill="#9D3BFF"/>
<path d="M166.706 431.469C167.087 431.469 167.534 431.469 168.035 431.534L169.507 431.73L170.826 431.97C171.128 432.024 171.426 432.096 171.719 432.188L170.945 436.09C170.597 435.97 170.008 435.818 169.191 435.632C168.149 435.438 167.09 435.351 166.03 435.371C165.195 435.37 164.362 435.458 163.545 435.632L161.932 436.003V457.125H157.441V433.147C158.734 432.694 160.056 432.33 161.398 432.057C163.142 431.676 164.921 431.478 166.706 431.469Z" fill="#9D3BFF"/>
<path d="M174.662 444.58C174.62 442.601 174.946 440.632 175.621 438.771C176.19 437.24 177.061 435.838 178.183 434.651C179.209 433.573 180.459 432.732 181.845 432.188C183.197 431.649 184.64 431.372 186.096 431.371C187.544 431.278 188.994 431.515 190.338 432.062C191.682 432.609 192.884 433.454 193.856 434.531C195.65 436.631 196.551 439.836 196.559 444.144V444.896C196.559 445.177 196.54 445.457 196.504 445.736H179.338C179.366 447.922 180.169 450.027 181.605 451.676C182.927 453.02 184.984 453.692 187.774 453.692C189.112 453.72 190.447 453.585 191.752 453.289C192.587 453.095 193.404 452.828 194.194 452.493L194.826 456.253C193.906 456.67 192.94 456.977 191.948 457.169C190.42 457.504 188.859 457.665 187.294 457.649C185.359 457.694 183.434 457.361 181.627 456.668C180.129 456.07 178.787 455.138 177.703 453.943C176.651 452.747 175.87 451.338 175.414 449.812C174.898 448.117 174.644 446.352 174.662 444.58ZM191.883 442.117C191.985 440.325 191.444 438.555 190.357 437.125C189.837 436.478 189.17 435.964 188.412 435.625C187.654 435.285 186.827 435.131 185.997 435.174C185.054 435.158 184.119 435.368 183.273 435.785C182.511 436.166 181.833 436.696 181.278 437.343C180.721 437.986 180.285 438.725 179.992 439.523C179.692 440.347 179.491 441.203 179.393 442.074L191.883 442.117Z" fill="#9D3BFF"/>
<path d="M222.215 453.747C227.098 453.747 229.54 452.068 229.54 448.733C229.569 447.814 229.342 446.905 228.886 446.106C228.441 445.361 227.843 444.718 227.131 444.221C226.347 443.662 225.498 443.201 224.602 442.847C223.654 442.455 222.64 442.074 221.583 441.692C220.4 441.286 219.243 440.81 218.117 440.264C217.083 439.775 216.122 439.144 215.262 438.39C214.464 437.664 213.819 436.785 213.365 435.807C212.87 434.666 212.632 433.431 212.668 432.188C212.601 430.894 212.836 429.602 213.354 428.414C213.872 427.226 214.66 426.175 215.654 425.343C217.645 423.701 220.391 422.88 223.894 422.88C225.756 422.86 227.613 423.08 229.42 423.534C230.699 423.817 231.926 424.295 233.06 424.951L231.567 428.766C230.618 428.235 229.607 427.822 228.559 427.534C227.041 427.109 225.47 426.907 223.894 426.935C223.05 426.931 222.209 427.026 221.387 427.218C220.67 427.39 219.987 427.685 219.371 428.09C218.773 428.468 218.284 428.996 217.953 429.621C217.623 430.246 217.461 430.947 217.485 431.654C217.454 432.444 217.639 433.228 218.019 433.921C218.393 434.561 218.903 435.112 219.512 435.534C220.215 436.038 220.968 436.468 221.757 436.82C222.608 437.202 223.545 437.594 224.569 437.976C226.023 438.55 227.352 439.127 228.559 439.708C229.697 440.246 230.751 440.948 231.687 441.79C232.57 442.586 233.269 443.564 233.736 444.657C234.25 445.934 234.499 447.302 234.466 448.679C234.53 449.983 234.27 451.283 233.709 452.462C233.148 453.641 232.303 454.663 231.251 455.436C229.071 457.006 226.106 457.801 222.215 457.801C220.997 457.805 219.779 457.714 218.575 457.529C217.572 457.377 216.579 457.17 215.599 456.907C214.856 456.699 214.128 456.441 213.42 456.134C212.787 455.861 212.33 455.621 211.948 455.436L213.343 451.578C214.427 452.139 215.558 452.606 216.722 452.973C218.5 453.524 220.355 453.785 222.215 453.747Z" fill="#9D3BFF"/>
<path d="M244.014 431.992H253.507V435.752H244.014V447.316C243.99 448.362 244.085 449.408 244.297 450.433C244.436 451.134 244.734 451.795 245.169 452.362C245.545 452.825 246.049 453.166 246.618 453.343C247.27 453.55 247.951 453.65 248.635 453.637C249.743 453.676 250.85 453.521 251.905 453.18L253.616 452.526L254.488 456.242C253.722 456.582 252.931 456.863 252.123 457.082C250.868 457.439 249.568 457.612 248.264 457.594C246.83 457.637 245.4 457.416 244.046 456.94C242.99 456.548 242.062 455.873 241.365 454.989C240.657 454.041 240.173 452.946 239.948 451.785C239.657 450.332 239.518 448.852 239.534 447.37V425.005L244.024 424.231L244.014 431.992Z" fill="#9D3BFF"/>
<path d="M279.164 456.351C278.139 456.602 276.777 456.875 275.087 457.169C273.152 457.481 271.194 457.627 269.234 457.605C267.57 457.653 265.913 457.364 264.362 456.755C263.112 456.249 262.015 455.426 261.18 454.368C260.348 453.293 259.757 452.051 259.447 450.727C259.074 449.205 258.894 447.641 258.913 446.073V431.992H263.392V445.071C263.392 448.122 263.883 450.313 264.842 451.61C265.801 452.907 267.436 453.583 269.714 453.583C270.194 453.583 270.695 453.583 271.207 453.583C271.719 453.583 272.21 453.507 272.657 453.452C273.104 453.398 273.518 453.365 273.888 453.311C274.159 453.288 274.426 453.233 274.684 453.147V431.992H279.164V456.351Z" fill="#9D3BFF"/>
<path d="M303.087 420.417L307.567 419.654V456.351C306.542 456.635 305.223 456.929 303.621 457.212C301.789 457.523 299.932 457.668 298.074 457.648C296.295 457.676 294.527 457.365 292.864 456.733C291.371 456.163 290.021 455.274 288.907 454.128C287.78 452.951 286.918 451.546 286.379 450.008C285.761 448.259 285.458 446.414 285.485 444.558C285.468 442.762 285.718 440.973 286.226 439.251C286.671 437.736 287.412 436.324 288.406 435.098C289.368 433.945 290.579 433.024 291.948 432.406C293.457 431.738 295.094 431.407 296.744 431.436C298.046 431.415 299.342 431.61 300.58 432.013C301.445 432.287 302.279 432.652 303.065 433.103L303.087 420.417ZM303.087 437.3C302.366 436.754 301.569 436.318 300.722 436.003C299.649 435.57 298.5 435.355 297.343 435.37C296.214 435.342 295.093 435.581 294.074 436.068C293.18 436.52 292.41 437.182 291.828 437.997C291.225 438.881 290.8 439.873 290.575 440.918C290.316 442.107 290.188 443.32 290.193 444.537C290.037 446.987 290.816 449.406 292.373 451.305C293.107 452.099 294.005 452.723 295.004 453.135C296.004 453.548 297.081 453.738 298.161 453.692C299.184 453.703 300.207 453.649 301.223 453.528C301.867 453.454 302.504 453.334 303.131 453.169L303.087 437.3Z" fill="#9D3BFF"/>
<path d="M317.507 427.458C317.129 427.468 316.754 427.403 316.402 427.266C316.05 427.129 315.729 426.924 315.458 426.662C314.913 426.082 314.609 425.316 314.609 424.521C314.609 423.725 314.913 422.959 315.458 422.379C316.018 421.868 316.748 421.585 317.507 421.585C318.265 421.585 318.996 421.868 319.556 422.379C320.096 422.961 320.396 423.726 320.396 424.521C320.396 425.315 320.096 426.08 319.556 426.662C319.283 426.923 318.962 427.128 318.61 427.264C318.259 427.401 317.884 427.467 317.507 427.458ZM319.785 457.126H315.294V432.057H319.785V457.126Z" fill="#9D3BFF"/>
<path d="M349.627 444.537C349.651 446.372 349.356 448.198 348.755 449.932C348.223 451.461 347.397 452.872 346.324 454.085C345.285 455.234 344.01 456.145 342.586 456.755C341.087 457.381 339.479 457.703 337.856 457.703C336.232 457.703 334.624 457.381 333.125 456.755C331.703 456.147 330.431 455.236 329.398 454.085C328.318 452.875 327.488 451.464 326.956 449.932C326.355 448.198 326.06 446.372 326.084 444.537C326.065 442.705 326.359 440.884 326.956 439.153C327.485 437.616 328.315 436.201 329.398 434.989C330.43 433.835 331.702 432.919 333.125 432.308C336.155 431.058 339.556 431.058 342.586 432.308C344.011 432.922 345.286 433.837 346.324 434.989C347.4 436.204 348.225 437.619 348.755 439.153C349.352 440.884 349.647 442.705 349.627 444.537ZM344.951 444.537C345.073 442.143 344.403 439.776 343.044 437.801C342.417 437.029 341.626 436.407 340.729 435.979C339.831 435.552 338.85 435.33 337.856 435.33C336.861 435.33 335.88 435.552 334.982 435.979C334.085 436.407 333.294 437.029 332.668 437.801C331.428 439.827 330.772 442.156 330.772 444.531C330.772 446.907 331.428 449.236 332.668 451.262C333.292 452.037 334.082 452.663 334.979 453.093C335.877 453.523 336.86 453.746 337.856 453.746C338.851 453.746 339.834 453.523 340.732 453.093C341.629 452.663 342.419 452.037 343.044 451.262C344.405 449.292 345.076 446.928 344.951 444.537Z" fill="#9D3BFF"/>
<path fill-rule="evenodd" clip-rule="evenodd" d="M160.962 92.5368C160.962 90.9892 160.886 89.4524 160.886 88.0028C160.886 82.2916 160.886 79.9483 156.275 78.1172C151.087 76.0464 145.431 76.4496 139.992 76.842C135.817 77.1363 131.774 77.4197 128.166 76.5804C124.777 72.5259 125.463 68.4278 126.172 64.2099C126.833 61.408 126.919 58.5008 126.422 55.6649C124.315 54.2305 121.906 53.2989 119.381 52.9418C116.857 52.5847 114.284 52.8116 111.861 53.605C109.845 56.6022 109.954 60.9946 110.052 65.4088C110.139 69.3979 110.237 73.4197 108.766 76.4605C100.675 77.5063 92.4993 77.7363 84.3624 77.1472C82.9782 77.1472 81.4959 77.1472 80.0027 77.2562C73.169 77.496 65.6485 77.7684 63.0763 73.3216C59.2943 66.6622 61.3324 54.3461 63.4033 41.7139C66.9237 20.0682 70.6948 -2.52583 45.1254 1.53956C38.8091 2.54027 32.8273 5.04892 27.6867 8.85291C18.0736 16.7439 23.8611 65.605 25.4414 76.8638C25.5068 77.3216 25.5613 77.7793 25.6267 78.2153C27.5886 92.5477 28.1553 96.5804 56.0245 96.5804C69.1036 96.5804 82.1826 95.3052 95.1526 94.0409L102.074 93.3761C114.662 92.1227 134.706 90.575 138.76 90.575C139.458 90.575 140.275 90.5096 141.18 90.4442C145.54 90.1063 151.61 89.6268 151.61 95.8938C151.61 98.1826 151.61 99.7957 151.61 101.038C151.764 103.2 151.61 105.372 151.153 107.491L148.809 107.61C132.384 108.417 104.984 109.79 94.5423 117.213C91.114 119.722 88.2294 122.899 86.0627 126.553C83.8845 130.231 82.4651 134.307 81.8883 138.542C78.8801 157.856 77.9101 176.842 77.7357 180.395V180.482C76.5041 204.461 76.4496 269.463 86.564 286.379C95.545 301.398 117.518 302.728 137.714 303.818C140.272 303.956 142.789 304.112 145.267 304.286C177.177 306.522 209.236 305.199 240.853 300.341C247.23 299.664 253.219 296.95 257.932 292.602C262.667 288.242 265.911 282.504 267.207 276.199C269.933 260.282 271.391 244.173 271.567 228.025C273.54 207.098 271.567 155.153 267.131 135.61C261.856 113.223 243.262 111.414 224.482 109.583L220.689 109.202C218.793 109.016 216.068 108.853 213.125 108.668C207.305 108.319 200.635 107.905 197.867 107.153V95.1635C197.867 89.2562 200.134 89.4088 215.044 90.4115L217.768 90.5859C223.567 91.0219 230.946 91.7739 239.065 92.6131C264.373 95.2071 296.896 98.5423 311.796 95.0981C320.896 92.9837 321.856 90.4115 323.316 80.8638C325.005 69.7793 330.629 19.8284 323.316 10.684C318.703 6.11758 312.832 3.03217 306.455 1.82294C278.237 -4.00812 281.997 19.3815 285.572 41.6486C287.632 54.4769 289.638 66.9347 285.42 73.2562C282.564 77.4633 274.924 77.1472 268.243 76.8747C266.651 76.8093 265.125 76.7439 263.719 76.7439C260.657 76.7439 257.954 76.7439 255.578 76.7439C244.515 76.8093 240.504 76.8311 239.229 74.9674C238.488 73.8774 238.619 72.2426 238.815 69.6376C239.202 65.7199 239.202 61.7734 238.815 57.8556C237.725 47.5123 223.011 54.3134 222.466 55.2834C222.103 58.1209 222.195 60.9981 222.738 63.8066C223.349 68.2862 223.948 72.6785 221.125 75.7957C218.466 77.1799 213.67 76.8856 208.493 76.6676C202.717 76.3734 196.504 76.0464 192.144 77.9101C187.785 79.7739 187.937 82.4769 187.981 87.7957V104.689C187.981 107.654 186.204 107.545 181.441 107.273C179.752 107.174 177.692 107.055 175.196 107.033H160.493L160.886 101.779C161.065 98.7017 161.091 95.617 160.962 92.5368ZM146.063 222.324C150.822 222.409 155.499 221.074 159.498 218.492C163.497 215.909 166.636 212.194 168.516 207.821C170.397 203.447 170.933 198.613 170.056 193.934C169.179 189.255 166.93 184.943 163.594 181.547C160.258 178.151 155.987 175.825 151.324 174.864C146.662 173.904 141.819 174.354 137.413 176.155C133.006 177.957 129.236 181.03 126.582 184.981C123.928 188.933 122.51 193.586 122.51 198.346C122.481 201.467 123.067 204.564 124.236 207.458C125.404 210.352 127.131 212.988 129.318 215.215C131.505 217.442 134.11 219.216 136.983 220.436C139.856 221.655 142.941 222.297 146.063 222.324ZM239.283 198.15C239.189 203.8 237.427 209.296 234.219 213.949C231.011 218.601 226.501 222.201 221.253 224.298C216.006 226.396 210.256 226.895 204.725 225.735C199.195 224.575 194.13 221.807 190.167 217.778C186.205 213.75 183.521 208.64 182.453 203.091C181.385 197.542 181.98 191.801 184.164 186.589C186.347 181.377 190.022 176.926 194.727 173.796C199.432 170.666 204.957 168.995 210.608 168.995C214.405 169.026 218.159 169.805 221.655 171.287C225.151 172.769 228.321 174.926 230.984 177.633C233.647 180.34 235.75 183.546 237.174 187.066C238.598 190.586 239.315 194.353 239.283 198.15Z" fill="url(#paint0_linear)"/>
<defs>
<linearGradient id="paint0_linear" x1="174.597" y1="305.376" x2="174.597" y2="0.918315" gradientUnits="userSpaceOnUse">
<stop stop-color="#9D3BFF"/>
<stop offset="1" stop-color="#00C4D1"/>
</linearGradient>
</defs>
</svg>
