<svg xmlns="http://www.w3.org/2000/svg" width="350" height="458" fill="none" xmlns:v="https://vecta.io/nano"><path d="M.438 407.796V313.8h56.676v11.258H13.518v28.338H52.2v11.096H13.52v43.27l-13.08.044zm132.34-35.27c.072 5.168-.758 10.3-2.453 15.193-1.5 4.3-3.816 8.264-6.844 11.662a30.1 30.1 0 0 1-10.518 7.531c-4.213 1.75-8.73 2.65-13.3 2.65a34.67 34.67 0 0 1-13.292-2.649c-4-1.725-7.594-4.303-10.507-7.553a34.7 34.7 0 0 1-6.856-11.662 48.26 48.26 0 0 1 0-30.31c1.5-4.326 3.82-8.316 6.856-11.74a30.08 30.08 0 0 1 10.507-7.531c8.512-3.517 18.07-3.517 26.583 0a30.22 30.22 0 0 1 10.518 7.53c3.036 3.42 5.363 7.4 6.844 11.74 1.686 4.866 2.516 9.988 2.453 15.14zm-13.166 0c0-7.993-1.784-14.3-5.352-18.92-1.686-2.256-3.893-4.07-6.433-5.286a17.44 17.44 0 0 0-8.15-1.701c-2.812-.102-5.608.478-8.147 1.7s-4.748 3.022-6.436 5.274c-3.575 4.665-5.362 10.972-5.362 18.92s1.787 14.256 5.362 18.92a17.37 17.37 0 0 0 6.43 5.293c2.54 1.217 5.34 1.798 8.154 1.693a17.44 17.44 0 0 0 8.15-1.7 17.43 17.43 0 0 0 6.433-5.285c3.568-4.636 5.352-10.936 5.352-18.9zm87.084 33.232c-2.907.726-6.725 1.496-11.455 2.3a98.23 98.23 0 0 1-16.491 1.221 35.03 35.03 0 0 1-13.733-2.376 22.02 22.02 0 0 1-8.948-6.714 27.24 27.24 0 0 1-4.883-10.245 53.5 53.5 0 0 1-1.493-13.08v-39.64h12.62v36.905c0 8.6 1.355 14.736 4.066 18.44s7.277 5.56 13.7 5.56c1.35 0 2.757 0 4.207-.13l4.065-.338 3.455-.403a10.21 10.21 0 0 0 2.246-.48v-59.554h12.6l.033 68.524zm47.75-69.995c1.1 0 2.333.076 3.728.207l4.14.545 3.728.676a25.15 25.15 0 0 1 2.507.61l-2.18 10.987c-4.46-1.462-9.14-2.147-13.83-2.028a33.42 33.42 0 0 0-6.987.742l-4.545 1.013v59.28h-12.6V340.22c3.637-1.264 7.355-2.283 11.128-3.052a71.53 71.53 0 0 1 14.921-1.406zm38.093 1.47h26.725v10.583h-26.725v32.578a38.99 38.99 0 0 0 .817 8.72c.383 1.98 1.22 3.846 2.442 5.45a8.79 8.79 0 0 0 4.065 2.779c1.845.574 3.77.846 5.7.807 3.104.105 6.202-.33 9.156-1.286l4.817-1.83 2.442 10.44c-2.152.96-4.375 1.756-6.65 2.376a37.84 37.84 0 0 1-10.899 1.428 32.89 32.89 0 0 1-11.87-1.83 17.36 17.36 0 0 1-7.532-5.45 22.11 22.11 0 0 1-4-9.024 59.83 59.83 0 0 1-1.144-12.403v-62.954l12.654-2.18v21.798zm49.046-12.72c-2.143.045-4.217-.762-5.765-2.246-1.527-1.638-2.375-3.793-2.375-6.032s.848-4.395 2.375-6.033c1.572-1.444 3.63-2.246 5.765-2.246a8.53 8.53 0 0 1 5.766 2.246c1.52 1.64 2.367 3.795 2.367 6.033a8.87 8.87 0 0 1-2.367 6.032 8.12 8.12 0 0 1-5.766 2.246zm6.376 83.28h-12.675v-70.56h12.62l.054 70.56zM10.74 453.747c4.894 0 7.335-1.68 7.335-5.014.03-.92-.197-1.828-.654-2.627a6.39 6.39 0 0 0-1.722-1.885 11.9 11.9 0 0 0-2.54-1.374l-3.008-1.155c-1.186-.406-2.347-.883-3.477-1.428a12.52 12.52 0 0 1-2.845-1.874 8.13 8.13 0 0 1-1.907-2.583c-.5-1.142-.728-2.377-.698-3.62a8.37 8.37 0 0 1 2.998-6.845c1.984-1.645 4.74-2.463 8.24-2.463 1.862-.02 3.72.2 5.526.654a12.78 12.78 0 0 1 3.64 1.417l-1.57 3.837a13.34 13.34 0 0 0-3.019-1.232 16.03 16.03 0 0 0-4.6-.62 10.79 10.79 0 0 0-2.507.283 6.34 6.34 0 0 0-2.027.872 4.24 4.24 0 0 0-1.373 1.47c-.348.642-.52 1.364-.5 2.093-.027.788.153 1.57.523 2.267.388.64.908 1.2 1.526 1.613.683.498 1.413.93 2.18 1.286l2.823 1.156 3.978 1.732a12.81 12.81 0 0 1 3.139 2.082 8.19 8.19 0 0 1 2.049 2.867c.5 1.278.755 2.646.72 4.022a7.89 7.89 0 0 1-3.204 6.757c-2.18 1.57-5.155 2.365-9.046 2.365a23.47 23.47 0 0 1-3.64-.272c-1-.153-2-.36-2.965-.622-.765-.207-1.515-.466-2.245-.773l-1.47-.698 1.406-3.858c1.084.56 2.215 1.028 3.38 1.395a17.37 17.37 0 0 0 5.569.774zm39.737-9.2a15.86 15.86 0 0 1-.86 5.395 12.28 12.28 0 0 1-2.441 4.153c-1.037 1.15-2.313 2.063-3.738 2.67-1.497.626-3.103.948-4.725.948s-3.228-.322-4.725-.948c-1.426-.607-2.702-1.52-3.738-2.67-1.077-1.2-1.903-2.622-2.43-4.153a15.87 15.87 0 0 1-.872-5.395c-.02-1.832.275-3.653.872-5.384a12.2 12.2 0 0 1 2.431-4.164 10.65 10.65 0 0 1 3.738-2.68c3.026-1.25 6.424-1.25 9.45 0a10.66 10.66 0 0 1 3.738 2.68c1.083 1.212 1.913 2.627 2.44 4.164a15.95 15.95 0 0 1 .86 5.384zm-4.676 0a10.78 10.78 0 0 0-1.907-6.736 6.66 6.66 0 0 0-2.312-1.821c-.897-.428-1.877-.65-2.87-.65a6.66 6.66 0 0 0-5.182 2.471 12.83 12.83 0 0 0 0 13.461c.623.775 1.412 1.4 2.3 1.83a6.66 6.66 0 0 0 5.747 0c.897-.43 1.686-1.056 2.3-1.83a10.76 10.76 0 0 0 1.907-6.725zm20.785-24.883a17.07 17.07 0 0 1 3.4.283 12.51 12.51 0 0 1 2.005.534l-.817 3.86a8.12 8.12 0 0 0-1.646-.556 10.98 10.98 0 0 0-2.605-.273c-2.093 0-3.553.578-4.36 1.722a7.63 7.63 0 0 0-1.275 4.654v2.18h9.635v3.76H61.3v21.308h-4.5v-27.4c0-3.216.785-5.7 2.365-7.444s4.055-2.627 7.422-2.627zM79.6 431.992h9.493v3.76H79.6v11.564a14.48 14.48 0 0 0 .283 3.117 4.82 4.82 0 0 0 .872 1.93 3.01 3.01 0 0 0 1.45.98c.655.208 1.34.307 2.027.294 1.108.04 2.215-.115 3.27-.457l1.7-.654.872 3.716c-.766.34-1.556.62-2.365.84a13.42 13.42 0 0 1-3.858.512 11.66 11.66 0 0 1-4.218-.654 6.13 6.13 0 0 1-2.68-1.95 7.99 7.99 0 0 1-1.417-3.204 21.26 21.26 0 0 1-.414-4.415v-22.365l4.5-.774-.022 7.76zm35.684 25.133l-2.866-7.934-2.78-9.286-2.746 9.286-2.845 7.934h-3.902a120.6 120.6 0 0 1-4.359-11.335c-1.453-4.236-2.8-8.817-4-13.744h4.828a129.52 129.52 0 0 0 1.155 4.927c.445 1.777.927 3.53 1.417 5.297a105.6 105.6 0 0 0 1.57 5.112c.545 1.634 1.1 3.073 1.547 4.294.545-1.504 1.1-3.106 1.613-4.796s1.1-3.4 1.515-5.112.95-3.4 1.385-5.068.806-3.204 1.1-4.654h3.705c.295 1.45.643 2.998 1.1 4.654l1.352 5.068 1.515 5.112c.534 1.7 1.1 3.27 1.613 4.796.48-1.22.992-2.65 1.526-4.294s1.1-3.336 1.558-5.112l1.45-5.297a119.66 119.66 0 0 0 1.155-4.927h4.632a206.56 206.56 0 0 1-4 13.744c-1.4 4.236-2.83 8.015-4.26 11.335h-3.946zm25.08-25.755a12.89 12.89 0 0 1 4.556.697 7.36 7.36 0 0 1 2.987 1.973 7.47 7.47 0 0 1 1.624 3.041c.33 1.267.5 2.57.48 3.88v15.673l-1.613.272-2.343.306-2.823.272-3.008.12a16.37 16.37 0 0 1-3.913-.436 8.96 8.96 0 0 1-3.085-1.373c-.867-.646-1.557-1.5-2.005-2.485a8.71 8.71 0 0 1-.719-3.717c-.032-1.24.257-2.468.84-3.564a6.68 6.68 0 0 1 2.3-2.409 10.36 10.36 0 0 1 3.367-1.35 18.06 18.06 0 0 1 4.022-.403c.466-.001.932.024 1.395.076.48 0 .95.1 1.374.185l1.1.218.675.142v-1.254c.001-.733-.08-1.464-.24-2.18a5.18 5.18 0 0 0-.861-1.93 4.51 4.51 0 0 0-1.723-1.351 6.64 6.64 0 0 0-2.812-.501c-1.303-.017-2.605.085-3.9.305-.84.147-1.67.366-2.474.654l-.534-3.706c.932-.358 1.9-.6 2.9-.752a25.11 25.11 0 0 1 4.446-.403zm.382 22.474l2.823-.077c.7-.026 1.375-.114 2.05-.26v-7.477a5.77 5.77 0 0 0-1.57-.414 17.88 17.88 0 0 0-2.626-.164 16.73 16.73 0 0 0-2.18.142 6.69 6.69 0 0 0-2.071.6 4.64 4.64 0 0 0-1.569 1.253 3.33 3.33 0 0 0-.622 2.103c-.07.645.037 1.296.308 1.885a3.6 3.6 0 0 0 1.23 1.462c1.294.702 2.758 1.034 4.23.96v-.01zm25.95-22.374l1.33.065 1.472.196 1.32.24a7.22 7.22 0 0 1 .893.218l-.774 3.902c-.348-.12-.937-.272-1.754-.458-1.042-.194-2.1-.28-3.16-.26a11.93 11.93 0 0 0-2.485.26l-1.613.37v21.122h-4.5v-23.978c1.293-.453 2.615-.817 3.957-1.1 1.744-.38 3.523-.58 5.308-.588zm7.956 13.1a16.04 16.04 0 0 1 .959-5.809 12.17 12.17 0 0 1 2.562-4.12 10.2 10.2 0 0 1 3.662-2.463 11.5 11.5 0 0 1 4.251-.817 9.62 9.62 0 0 1 4.242.691 9.63 9.63 0 0 1 3.518 2.469c1.794 2.1 2.695 5.305 2.703 9.613v.752a6.56 6.56 0 0 1-.055.84h-17.166a9.22 9.22 0 0 0 2.267 5.94c1.322 1.344 3.38 2.016 6.17 2.016 1.338.028 2.673-.107 3.978-.403a14.79 14.79 0 0 0 2.442-.796l.632 3.76c-.92.417-1.886.724-2.878.916a20.74 20.74 0 0 1-4.654.48 14.86 14.86 0 0 1-5.667-.981 10.61 10.61 0 0 1-3.924-2.725 11.04 11.04 0 0 1-2.289-4.131c-.516-1.695-.77-3.46-.752-5.232zm17.22-2.463a7.54 7.54 0 0 0-1.526-4.992 5.24 5.24 0 0 0-1.945-1.5 5.22 5.22 0 0 0-2.415-.45 5.94 5.94 0 0 0-2.724.611 6.4 6.4 0 0 0-1.995 1.558c-.557.643-.993 1.382-1.286 2.18-.3.824-.5 1.68-.6 2.55l12.5.043zm30.333 11.63c4.883 0 7.325-1.68 7.325-5.014a4.97 4.97 0 0 0-.654-2.627c-.445-.745-1.043-1.388-1.755-1.885-.784-.56-1.633-1.02-2.53-1.374l-3.02-1.155c-1.183-.406-2.34-.882-3.466-1.428-1.034-.5-1.995-1.12-2.855-1.874a8.11 8.11 0 0 1-1.897-2.583c-.495-1.14-.733-2.376-.697-3.62a8.36 8.36 0 0 1 .686-3.774c.518-1.188 1.306-2.24 2.3-3.07 2-1.642 4.737-2.463 8.24-2.463a21.72 21.72 0 0 1 5.526.654c1.28.283 2.506.76 3.64 1.417l-1.493 3.815a13.47 13.47 0 0 0-3.008-1.232 16.23 16.23 0 0 0-4.665-.599 10.74 10.74 0 0 0-2.507.283 6.38 6.38 0 0 0-2.016.872 4.06 4.06 0 0 0-1.886 3.564 4.36 4.36 0 0 0 .534 2.267c.374.64.884 1.2 1.493 1.613a12.81 12.81 0 0 0 2.245 1.286l2.812 1.156 4 1.732c1.138.538 2.192 1.24 3.128 2.082a8.21 8.21 0 0 1 2.05 2.867 10.12 10.12 0 0 1 .73 4.022c.064 1.304-.196 2.604-.757 3.783a7.91 7.91 0 0 1-2.458 2.974c-2.18 1.57-5.145 2.365-9.036 2.365a23.47 23.47 0 0 1-3.64-.272 27.2 27.2 0 0 1-2.976-.622 16.99 16.99 0 0 1-2.179-.773l-1.472-.698 1.395-3.858c1.084.56 2.215 1.028 3.38 1.395a17.36 17.36 0 0 0 5.493.774zm21.8-21.755h9.493v3.76h-9.493v11.564a13.77 13.77 0 0 0 .283 3.117 4.66 4.66 0 0 0 .872 1.929 3.01 3.01 0 0 0 1.45.98 6.27 6.27 0 0 0 2.017.294 9.52 9.52 0 0 0 3.27-.457l1.7-.654.872 3.716a16.54 16.54 0 0 1-2.365.84 13.43 13.43 0 0 1-3.859.512c-1.434.043-2.864-.178-4.218-.654a6.13 6.13 0 0 1-2.681-1.951 7.85 7.85 0 0 1-1.417-3.204 21.38 21.38 0 0 1-.414-4.415v-22.365l4.5-.774-.01 7.76zm35.15 24.358l-4.077.818c-1.935.312-3.893.458-5.853.436a12.34 12.34 0 0 1-4.872-.85c-1.25-.506-2.347-1.33-3.182-2.387a9.48 9.48 0 0 1-1.733-3.641c-.373-1.522-.553-3.086-.534-4.654v-14.08h4.48v13.08c0 3.05.5 5.242 1.45 6.54s2.594 1.973 4.872 1.973h1.493c.512 0 1.003-.076 1.45-.13l1.23-.14c.27-.023.538-.078.796-.164v-21.155h4.48v24.36zm23.923-35.933l4.48-.763v36.697c-1.025.284-2.344.578-3.946.86-1.832.3-3.7.456-5.547.436-1.78.028-3.547-.283-5.2-.915a10.98 10.98 0 0 1-3.957-2.605c-1.127-1.177-2-2.582-2.528-4.12a15.7 15.7 0 0 1-.894-5.45 18.15 18.15 0 0 1 .741-5.307c.445-1.515 1.186-2.927 2.18-4.153a9.94 9.94 0 0 1 3.542-2.692c1.5-.668 3.146-1 4.796-.97a11.78 11.78 0 0 1 3.836.577 12.7 12.7 0 0 1 2.485 1.09l.022-12.686zm0 16.883a9.25 9.25 0 0 0-2.365-1.297 8.73 8.73 0 0 0-3.379-.633 7.17 7.17 0 0 0-3.269.698c-.894.452-1.664 1.114-2.246 1.93-.603.884-1.028 1.876-1.253 2.92a16.68 16.68 0 0 0-.382 3.619 9.7 9.7 0 0 0 2.18 6.768 7.45 7.45 0 0 0 2.631 1.83 7.44 7.44 0 0 0 3.157.557c1.023.01 2.046-.043 3.062-.164a13.59 13.59 0 0 0 1.908-.359l-.044-15.87zm14.42-9.842c-.378.01-.753-.055-1.105-.192a2.84 2.84 0 0 1-.944-.604 3.13 3.13 0 0 1 0-4.283 3.04 3.04 0 0 1 4.098 0 3.15 3.15 0 0 1 0 4.283 2.86 2.86 0 0 1-.946.602c-.35.137-.726.203-1.103.194zm2.278 29.668h-4.5v-25.07h4.5v25.07zm29.842-12.59c.024 1.835-.27 3.66-.872 5.395a12.44 12.44 0 0 1-2.431 4.153 10.74 10.74 0 0 1-3.738 2.67 12.28 12.28 0 0 1-4.73.948 12.27 12.27 0 0 1-4.73-.948c-1.422-.608-2.694-1.52-3.727-2.67a12.29 12.29 0 0 1-2.442-4.153 15.87 15.87 0 0 1-.872-5.395 16 16 0 0 1 .872-5.384c.53-1.537 1.36-2.952 2.442-4.164a10.61 10.61 0 0 1 3.727-2.68 12.4 12.4 0 0 1 9.46 0 10.79 10.79 0 0 1 3.738 2.68 12.37 12.37 0 0 1 2.43 4.164c.597 1.73.892 3.552.872 5.384zm-4.676 0c.122-2.394-.548-4.76-1.907-6.736-.627-.772-1.418-1.394-2.315-1.822a6.69 6.69 0 0 0-5.747 0c-.897.428-1.688 1.05-2.314 1.822a12.89 12.89 0 0 0-1.896 6.73c0 2.376.656 4.705 1.896 6.73a6.67 6.67 0 0 0 2.311 1.831 6.66 6.66 0 0 0 5.753 0 6.68 6.68 0 0 0 2.312-1.831 10.84 10.84 0 0 0 1.907-6.725z" fill="#9d3bff"/><path fill-rule="evenodd" d="M160.962 92.537l-.076-4.534c0-5.71 0-8.054-4.61-9.886-5.188-2.07-10.844-1.668-16.283-1.275-4.175.294-8.218.578-11.826-.262-3.39-4.055-2.703-8.153-1.994-12.37.66-2.802.747-5.71.25-8.545-2.107-1.434-4.516-2.366-7.04-2.723s-5.097-.13-7.52.663c-2.016 2.997-1.907 7.4-1.81 11.804.087 3.99.185 8.01-1.286 11.052-8.09 1.046-16.267 1.276-24.404.687-1.384 0-2.866 0-4.36.11-6.834.24-14.354.512-16.926-3.935-3.782-6.66-1.744-18.976.327-31.608 3.52-21.646 7.29-44.24-18.278-40.174a39.78 39.78 0 0 0-17.439 7.313c-9.613 7.89-3.826 56.752-2.245 68.01l.185 1.352c1.962 14.332 2.53 18.365 30.398 18.365 13.08 0 26.158-1.275 39.128-2.54l6.92-.665c12.588-1.253 32.632-2.8 36.686-2.8.698 0 1.515-.065 2.42-.13 4.36-.338 10.43-.817 10.43 5.45v5.144a22.89 22.89 0 0 1-.457 6.453l-2.344.12c-16.425.807-43.825 2.18-54.267 9.603-3.428 2.51-6.313 5.686-8.48 9.34a32 32 0 0 0-4.174 11.989c-3.008 19.314-3.978 38.3-4.153 41.853v.087c-1.232 23.98-1.286 88.98 8.828 105.897 8.98 15.02 30.954 16.35 51.15 17.44l7.553.468a431.01 431.01 0 0 0 95.586-3.945c6.377-.677 12.366-3.39 17.08-7.74a30.7 30.7 0 0 0 9.275-16.403 305.08 305.08 0 0 0 4.36-48.174c1.973-20.927 0-72.872-4.436-92.415-5.275-22.387-23.87-24.196-42.65-26.027l-3.793-.38c-1.896-.186-4.62-.35-7.564-.534-5.82-.35-12.5-.763-15.258-1.515v-12c0-5.907 2.267-5.755 17.177-4.752l2.724.174c5.8.436 13.178 1.188 21.297 2.027 25.308 2.594 57.83 5.93 72.73 2.485 9.1-2.114 10.06-4.687 11.52-14.234 1.69-11.084 7.313-61.035 0-70.18a32.6 32.6 0 0 0-16.861-8.861c-28.218-5.83-24.458 17.56-20.883 39.826 2.06 12.828 4.066 25.286-.152 31.608-2.856 4.207-10.496 3.89-17.177 3.618l-4.524-.13h-8.14c-11.063.065-15.074.087-16.35-1.776-.74-1.1-.6-2.725-.414-5.33a59.93 59.93 0 0 0 0-11.782c-1.1-10.343-15.804-3.542-16.35-2.572a26.91 26.91 0 0 0 .272 8.523c.61 4.48 1.2 8.872-1.613 11.99-2.66 1.384-7.455 1.1-12.632.872-5.776-.294-11.99-.62-16.35 1.243s-4.207 4.567-4.163 9.886v16.893c0 2.965-1.777 2.856-6.54 2.584-1.69-.1-3.75-.218-6.245-.24h-14.703l.393-5.254c.18-3.077.205-6.162.076-9.242zm-14.9 129.787a23.98 23.98 0 0 0 13.435-3.832c4-2.583 7.138-6.298 9.018-10.67a23.97 23.97 0 0 0 1.54-13.887 23.98 23.98 0 0 0-6.462-12.387c-3.336-3.396-7.607-5.722-12.27-6.683s-9.505-.5-13.91 1.29-8.177 4.875-10.83 8.826-4.072 8.605-4.072 13.365a23.74 23.74 0 0 0 1.726 9.112c1.168 2.894 2.895 5.53 5.082 7.757a23.76 23.76 0 0 0 7.665 5.221 23.77 23.77 0 0 0 9.08 1.888zm93.22-24.174c-.094 5.65-1.856 11.146-5.064 15.8a28.67 28.67 0 0 1-12.966 10.349c-5.247 2.098-10.997 2.597-16.528 1.437a28.68 28.68 0 0 1-14.558-7.957c-3.962-4.028-6.646-9.138-7.714-14.687s-.473-11.3 1.71-16.502 5.858-9.663 10.563-12.793 10.23-4.8 15.88-4.8a28.91 28.91 0 0 1 11.047 2.292c3.496 1.482 6.666 3.64 9.33 6.346a28.91 28.91 0 0 1 8.299 20.517z" fill="url(#A)"/><defs><linearGradient id="A" x1="174.597" y1="305.376" x2="174.597" y2=".918" gradientUnits="userSpaceOnUse"><stop stop-color="#9d3bff"/><stop offset="1" stop-color="#00c4d1"/></linearGradient></defs></svg>